<svg width="1792" height="945" viewBox="0 0 1792 945" fill="none" xmlns="http://www.w3.org/2000/svg">
<path d="M825.104 772.83C789.933 793.162 753.065 806.385 711.087 806.212C664.298 806.015 617.915 774.62 588.603 740.164C577.712 727.367 568.188 712.576 565.98 695.921C560.894 657.443 596.105 646.498 627.809 646.986C645.679 647.253 662.962 652.205 680.052 657.115C708.425 665.276 740.066 666.004 766.685 679.677C775.62 684.282 782.837 690.469 792.731 693.189C808.123 697.426 824.84 697.671 840.499 701.22C853.875 704.277 869.35 710.518 871.872 723.998C874.443 737.826 861.653 749.318 849.999 757.177C841.754 762.766 833.485 768.002 825.104 772.83Z" fill="url(#paint0_linear)"/>
<path d="M576.8 317.685C617.798 207.432 741.155 136.982 857.386 146.193C913.435 150.643 965.635 175.71 1014.79 202.964C1058.12 226.983 1101.03 253.828 1135.44 289.921C1158.93 314.556 1179.14 346.034 1195.33 376.078C1219.54 421.069 1223.39 485.735 1160.18 496.409C1145.35 498.915 1131.47 496.763 1116.72 495.517C1104.78 494.5 1094.53 499.375 1082.64 500.363C1052.72 502.856 1022.37 499.047 993.089 493.053C933.407 480.812 876.113 458.355 815.679 449.62C766.158 442.486 715.73 444.892 667.114 456.707C646.604 461.695 625.399 468.409 604.815 463.734C554.076 452.189 559.467 386.23 567.946 347.792C570.181 337.559 573.14 327.498 576.8 317.685Z" fill="url(#paint1_linear)"/>
<path d="M1076.51 211.678C1088.57 218.201 1133.33 233.109 1127.06 204.285C1125.49 197.106 1120.56 190.971 1114.87 186.824C1108.37 182.061 1101.88 180.314 1096.24 174.29C1089.35 167.032 1081.93 160.445 1074.06 154.613C1057.91 142.421 1039.96 131.896 1020.83 129.934C1007.41 128.563 986.791 134.785 984.803 152.037C981.901 177.153 1019.45 172.428 1032.64 178.092C1045.16 183.445 1054.49 195.626 1065.52 204.421C1069 207.193 1072.68 209.622 1076.51 211.678Z" fill="url(#paint2_linear)"/>
<path d="M872.693 224.827C898.29 232.519 919.899 248.123 944.184 259.005C984.615 277.119 1032.48 271.127 1075.93 279.97C1120.23 288.999 1157.35 310.8 1181.19 349.486C1211.98 399.417 1229.44 463.489 1228.21 522.875C1226.85 588.246 1198.36 638.427 1148.75 679.388C1099.17 720.324 1039.99 748.257 978.502 766.088C972.57 767.814 966.619 769.418 960.619 770.928C825.845 804.768 634.563 801.26 553.103 667.527C552.357 666.305 551.629 665.08 550.895 663.835C542.204 648.842 535.339 632.862 530.447 616.236C512.958 557.333 507.276 488.982 514.489 427.98C519.331 386.915 544.321 354.897 570.665 324.419C607.678 281.601 657.853 252.876 711.337 235.727C750.943 223.03 796.012 210.897 837.895 216.977C849.674 218.721 861.306 221.345 872.693 224.827Z" fill="url(#paint3_linear)"/>
<path d="M1186.26 641.85C1162.6 674.875 1134.47 702.125 1096.15 719.277C1053.44 738.391 998.243 728.916 957.331 709.613C942.132 702.444 927.356 692.897 918.477 678.634C897.977 645.677 925.541 621.187 954.626 608.558C971.016 601.432 988.803 598.817 1006.4 596.244C1035.61 591.979 1064.74 579.595 1094.63 581.075C1104.66 581.586 1113.79 584.246 1123.93 582.644C1139.7 580.157 1155.03 573.487 1170.76 570.263C1184.2 567.533 1200.87 566.837 1208.73 578.078C1216.77 589.615 1209.86 605.359 1202.48 617.325C1197.28 625.816 1191.9 633.995 1186.26 641.85Z" fill="url(#paint4_linear)"/>
<path d="M1323.33 519.089L1323.33 521L1321.25 521C1320.76 521 1320.33 520.937 1319.95 520.811C1319.61 520.937 1319.21 521 1318.75 521L1307.94 521C1306.57 521 1305.52 520.601 1304.81 519.803C1304.11 519.005 1303.76 517.913 1303.76 516.527C1303.76 515.351 1303.99 514.441 1304.45 513.797C1304.91 513.153 1305.49 512.831 1306.17 512.831C1306.54 512.831 1306.83 512.915 1307.06 513.083C1307.29 513.251 1307.45 513.454 1307.54 513.692C1307.17 513.916 1306.85 514.308 1306.57 514.868C1306.29 515.414 1306.15 516.086 1306.15 516.884C1306.15 517.752 1306.34 518.34 1306.72 518.648C1307.1 518.942 1307.57 519.089 1308.13 519.089L1313.84 519.089C1313.59 518.683 1313.4 518.193 1313.27 517.619C1313.15 517.031 1313.08 516.408 1313.08 515.75C1313.08 514.378 1313.27 513.342 1313.65 512.642C1314.04 511.928 1314.54 511.466 1315.14 511.256C1315.74 511.032 1316.46 510.92 1317.3 510.92C1318.24 510.92 1319 511.032 1319.59 511.256C1320.19 511.48 1320.66 511.907 1320.98 512.537C1321.31 513.167 1321.48 514.07 1321.48 515.246L1321.48 518.06C1321.48 518.396 1321.45 518.739 1321.38 519.089L1323.33 519.089ZM1319.11 514.511C1319.11 513.895 1318.95 513.461 1318.63 513.209C1318.32 512.943 1317.95 512.81 1317.51 512.81C1316.87 512.81 1316.37 513.076 1316 513.608C1315.65 514.126 1315.48 514.847 1315.48 515.771C1315.48 516.513 1315.62 517.255 1315.92 517.997C1316.21 518.725 1316.71 519.089 1317.41 519.089L1317.85 519.089C1318.3 519.089 1318.62 518.963 1318.82 518.711C1319.01 518.445 1319.11 518.018 1319.11 517.43L1319.11 514.511ZM1317.56 509.555C1317.16 509.555 1316.83 509.422 1316.55 509.156C1316.28 508.876 1316.15 508.547 1316.15 508.169C1316.15 507.777 1316.28 507.448 1316.55 507.182C1316.83 506.916 1317.16 506.783 1317.56 506.783C1317.93 506.783 1318.26 506.916 1318.52 507.182C1318.8 507.448 1318.94 507.777 1318.94 508.169C1318.94 508.547 1318.8 508.876 1318.52 509.156C1318.26 509.422 1317.93 509.555 1317.56 509.555ZM1323.33 519.089L1325.05 519.089C1325.68 519.089 1326.14 518.76 1326.42 518.102C1326.71 517.444 1326.86 516.653 1326.86 515.729C1326.86 514.805 1326.74 514.049 1326.5 513.461C1326.27 512.859 1325.86 512.32 1325.29 511.844C1325.34 511.62 1325.49 511.41 1325.73 511.214C1325.98 511.018 1326.32 510.92 1326.76 510.92C1327.6 510.92 1328.22 511.312 1328.62 512.096C1329.03 512.88 1329.23 513.895 1329.23 515.141C1329.23 516.149 1329.09 517.101 1328.81 517.997C1328.53 518.879 1328.07 519.6 1327.43 520.16C1326.8 520.72 1325.99 521 1325.01 521L1323.33 521L1323.33 519.089ZM1326.78 509.555C1326.38 509.555 1326.05 509.422 1325.77 509.156C1325.5 508.876 1325.37 508.547 1325.37 508.169C1325.37 507.777 1325.5 507.448 1325.77 507.182C1326.05 506.916 1326.38 506.783 1326.78 506.783C1327.15 506.783 1327.48 506.916 1327.74 507.182C1328.02 507.448 1328.16 507.777 1328.16 508.169C1328.16 508.547 1328.02 508.876 1327.74 509.156C1327.48 509.422 1327.15 509.555 1326.78 509.555ZM1332.48 521C1332.24 521 1332.04 520.916 1331.87 520.748C1331.72 520.566 1331.64 520.328 1331.64 520.034C1331.64 519.754 1331.72 519.53 1331.87 519.362C1332.04 519.18 1332.25 519.089 1332.5 519.089L1335.04 519.089L1335.04 513.188C1335.04 512.572 1334.94 512.117 1334.73 511.823C1334.53 511.529 1334.29 511.298 1333.99 511.13C1334.04 510.92 1334.2 510.696 1334.48 510.458C1334.77 510.22 1335.13 510.101 1335.55 510.101C1336.09 510.101 1336.54 510.311 1336.89 510.731C1337.26 511.151 1337.44 511.753 1337.44 512.537L1337.44 519.089L1339.54 519.089C1339.96 519.089 1340.28 518.921 1340.5 518.585C1340.73 518.235 1340.84 517.794 1340.84 517.262L1340.84 510.227C1340.84 509.611 1340.73 509.156 1340.52 508.862C1340.33 508.568 1340.08 508.337 1339.79 508.169C1339.83 507.959 1339.99 507.735 1340.27 507.497C1340.57 507.259 1340.92 507.14 1341.34 507.14C1341.89 507.14 1342.34 507.35 1342.69 507.77C1343.05 508.19 1343.23 508.792 1343.23 509.576L1343.23 517.325C1343.22 518.445 1342.95 519.341 1342.41 520.013C1341.9 520.671 1341.19 521 1340.29 521L1332.48 521ZM1333.78 509.156C1333.55 509.002 1333.43 508.799 1333.43 508.547C1333.43 508.337 1333.51 508.169 1333.68 508.043C1333.85 507.917 1334.09 507.868 1334.41 507.896C1334.2 507.77 1334.01 507.567 1333.85 507.287C1333.69 506.993 1333.62 506.678 1333.62 506.342C1333.62 505.81 1333.81 505.341 1334.2 504.935C1334.6 504.529 1335.15 504.326 1335.86 504.326C1336.34 504.326 1336.68 504.417 1336.89 504.599C1337.12 504.767 1337.23 505.005 1337.23 505.313C1337.23 505.551 1337.16 505.726 1337.04 505.838C1336.93 505.95 1336.78 506.006 1336.6 506.006C1336.44 506.006 1336.3 505.971 1336.16 505.901C1336.17 505.691 1336.11 505.502 1335.99 505.334C1335.86 505.166 1335.69 505.075 1335.48 505.061C1335.36 505.131 1335.24 505.271 1335.13 505.481C1335.03 505.677 1334.98 505.901 1334.98 506.153C1334.98 506.615 1335.13 506.972 1335.42 507.224C1335.73 507.462 1336.09 507.581 1336.51 507.581C1336.67 507.581 1336.82 507.567 1336.98 507.539C1337.13 507.511 1337.23 507.49 1337.29 507.476C1337.44 507.476 1337.56 507.525 1337.63 507.623C1337.71 507.721 1337.75 507.84 1337.75 507.98C1337.75 508.106 1337.72 508.225 1337.67 508.337C1337.61 508.435 1337.54 508.484 1337.44 508.484C1336.43 508.568 1335.58 508.659 1334.88 508.757C1334.18 508.841 1333.81 508.974 1333.78 509.156ZM1347.87 521C1347.09 521 1346.7 520.538 1346.7 519.614L1346.7 510.227C1346.7 509.625 1346.59 509.177 1346.38 508.883C1346.19 508.589 1345.94 508.351 1345.65 508.169C1345.69 507.973 1345.85 507.756 1346.13 507.518C1346.41 507.266 1346.77 507.14 1347.2 507.14C1347.75 507.14 1348.2 507.357 1348.55 507.791C1348.9 508.211 1349.07 508.806 1349.07 509.576L1349.07 519.635C1349.07 520.545 1348.67 521 1347.87 521ZM1363.15 525.956C1361.11 525.956 1359.57 525.431 1358.53 524.381C1357.49 523.345 1356.98 521.959 1356.98 520.223C1356.98 519.131 1357.19 518.172 1357.61 517.346C1358.03 516.506 1358.66 516.086 1359.52 516.086C1360.06 516.086 1360.54 516.247 1360.95 516.569C1360.61 516.821 1360.27 517.29 1359.92 517.976C1359.58 518.648 1359.41 519.446 1359.41 520.37C1359.41 521.616 1359.78 522.54 1360.53 523.142C1361.28 523.744 1362.18 524.045 1363.23 524.045C1364.48 524.045 1365.33 523.667 1365.8 522.911C1366.26 522.155 1366.49 521.273 1366.49 520.265L1366.49 512.075C1366.49 511.725 1366.59 511.445 1366.8 511.235C1367.03 511.025 1367.32 510.92 1367.67 510.92C1368.03 510.92 1368.32 511.025 1368.53 511.235C1368.75 511.445 1368.86 511.739 1368.86 512.117L1368.86 520.265C1368.86 522.043 1368.41 523.436 1367.5 524.444C1366.6 525.452 1365.15 525.956 1363.15 525.956ZM1362.94 510.92C1362.55 510.92 1362.21 510.787 1361.93 510.521C1361.67 510.241 1361.53 509.912 1361.53 509.534C1361.53 509.142 1361.67 508.813 1361.93 508.547C1362.21 508.281 1362.55 508.148 1362.94 508.148C1363.32 508.148 1363.64 508.281 1363.91 508.547C1364.19 508.813 1364.33 509.142 1364.33 509.534C1364.33 509.912 1364.19 510.241 1363.91 510.521C1363.64 510.787 1363.32 510.92 1362.94 510.92ZM1385.06 519.089L1385.06 521L1383.59 521C1382.81 521 1382.15 520.818 1381.62 520.454C1381.14 520.818 1380.58 521 1379.94 521L1372.12 521C1371.89 521 1371.68 520.916 1371.51 520.748C1371.36 520.566 1371.28 520.328 1371.28 520.034C1371.28 519.754 1371.36 519.53 1371.51 519.362C1371.68 519.18 1371.89 519.089 1372.14 519.089L1374.69 519.089L1374.69 513.188C1374.69 512.572 1374.58 512.117 1374.37 511.823C1374.17 511.529 1373.93 511.298 1373.64 511.13C1373.68 510.92 1373.84 510.696 1374.12 510.458C1374.41 510.22 1374.77 510.101 1375.19 510.101C1375.74 510.101 1376.18 510.311 1376.53 510.731C1376.9 511.151 1377.08 511.753 1377.08 512.537L1377.08 519.089L1379.18 519.089C1379.6 519.089 1379.92 518.921 1380.15 518.585C1380.37 518.235 1380.48 517.794 1380.48 517.262L1380.48 510.227C1380.48 509.611 1380.38 509.156 1380.17 508.862C1379.97 508.568 1379.73 508.337 1379.43 508.169C1379.47 507.959 1379.63 507.735 1379.91 507.497C1380.21 507.259 1380.57 507.14 1380.99 507.14C1381.53 507.14 1381.98 507.35 1382.33 507.77C1382.69 508.19 1382.88 508.792 1382.88 509.576L1382.88 517.325C1382.88 517.983 1382.78 518.571 1382.58 519.089L1385.06 519.089ZM1392.41 519.089L1392.41 521L1389.81 521C1389.05 521 1388.38 520.783 1387.79 520.349C1387.5 520.559 1387.21 520.72 1386.93 520.832C1386.65 520.93 1386.33 520.986 1385.96 521L1385.06 521L1385.06 519.089L1385.96 519.089C1386.5 519.075 1387.01 518.921 1387.5 518.627L1387.5 512.138C1387.5 511.774 1387.59 511.48 1387.79 511.256C1387.99 511.032 1388.29 510.92 1388.69 510.92C1389.09 510.92 1389.38 511.032 1389.58 511.256C1389.77 511.48 1389.87 511.781 1389.87 512.159L1389.87 517.577C1389.87 518.025 1389.93 518.389 1390.06 518.669C1390.18 518.949 1390.37 519.089 1390.63 519.089L1392.41 519.089ZM1387.06 525.347C1386.71 525.347 1386.4 525.214 1386.15 524.948C1385.9 524.696 1385.77 524.395 1385.77 524.045C1385.77 523.695 1385.9 523.387 1386.15 523.121C1386.4 522.869 1386.71 522.743 1387.06 522.743C1387.42 522.743 1387.73 522.869 1387.98 523.121C1388.23 523.373 1388.36 523.681 1388.36 524.045C1388.36 524.409 1388.23 524.717 1387.98 524.969C1387.73 525.221 1387.42 525.347 1387.06 525.347ZM1390.33 525.347C1389.98 525.347 1389.67 525.221 1389.41 524.969C1389.16 524.717 1389.03 524.409 1389.03 524.045C1389.03 523.695 1389.16 523.387 1389.41 523.121C1389.67 522.869 1389.98 522.743 1390.33 522.743C1390.7 522.743 1391 522.869 1391.23 523.121C1391.49 523.373 1391.61 523.681 1391.61 524.045C1391.61 524.409 1391.49 524.717 1391.23 524.969C1391 525.221 1390.7 525.347 1390.33 525.347ZM1408.15 510.92C1409.01 510.92 1409.65 511.326 1410.08 512.138C1410.52 512.95 1410.74 514.042 1410.74 515.414C1410.74 516.814 1410.43 518.095 1409.83 519.257C1409.23 520.419 1408.08 521 1406.39 521L1406.14 521C1405.42 521 1404.81 520.902 1404.29 520.706C1403.78 520.51 1403.33 520.202 1402.92 519.782C1402.69 520.118 1402.38 520.405 1402.02 520.643C1401.67 520.881 1401.25 521 1400.76 521L1398.09 521C1397.3 521 1396.58 520.755 1395.95 520.265C1395.63 520.517 1395.31 520.706 1395.01 520.832C1394.71 520.944 1394.37 521 1393.98 521L1392.4 521L1392.4 519.089L1393.45 519.089C1394.33 519.089 1394.78 518.529 1394.78 517.409L1394.78 513.356C1394.78 512.95 1394.85 512.635 1395.01 512.411C1395.17 512.187 1395.49 512.075 1395.95 512.075C1396.41 512.075 1396.73 512.187 1396.9 512.411C1397.06 512.635 1397.15 512.95 1397.15 513.356L1397.15 517.346C1397.15 517.92 1397.21 518.354 1397.34 518.648C1397.48 518.928 1397.71 519.075 1398.03 519.089L1399.98 519.089C1400.49 519.089 1400.84 518.935 1401.03 518.627C1401.23 518.305 1401.33 517.92 1401.33 517.472L1401.33 512.873C1401.33 512.425 1401.44 512.096 1401.66 511.886C1401.9 511.676 1402.2 511.571 1402.55 511.571C1402.88 511.571 1403.16 511.676 1403.39 511.886C1403.61 512.082 1403.72 512.411 1403.72 512.873L1403.72 516.989C1403.72 518.389 1404.07 519.089 1404.77 519.089L1406.54 519.089C1407.17 519.089 1407.63 518.753 1407.92 518.081C1408.22 517.409 1408.36 516.681 1408.36 515.897C1408.36 514.959 1408.22 514.133 1407.92 513.419C1407.64 512.691 1407.24 512.152 1406.7 511.802C1406.77 511.564 1406.93 511.361 1407.17 511.193C1407.4 511.011 1407.73 510.92 1408.15 510.92Z" fill="#FF383D"/>
<path d="M790.432 462.302C790.091 462.302 789.748 462.194 789.455 461.968C789.188 461.758 782.859 456.759 778.026 446.562C773.594 437.211 769.658 421.534 776.066 399.921C780.412 385.259 784.768 374.836 788.609 365.634C795.583 348.94 800.623 336.878 801.03 311.306C801.043 310.431 801.689 309.681 802.643 309.741C803.525 309.757 804.225 310.476 804.212 311.357C803.795 337.54 798.389 350.48 791.545 366.863C787.734 375.988 783.416 386.329 779.117 400.828C767.431 440.23 791.17 459.27 791.412 459.454C792.102 459.995 792.226 460.994 791.689 461.688C791.374 462.092 790.906 462.302 790.432 462.302Z" fill="#000C3E"/>
<path d="M920.799 211.035C920.561 228.37 906.316 242.232 888.979 241.994C871.645 241.755 857.785 227.51 858.021 210.173C858.259 192.839 872.507 178.979 889.841 179.215C907.175 179.454 921.038 193.701 920.799 211.035Z" fill="#000C3E"/>
<path d="M787.394 451.089C787.394 451.089 797.051 469.858 834.808 475.645C872.563 481.43 901.749 467.125 931.024 476.963C960.299 486.804 1001.91 472.092 1009.93 459.699C1017.95 447.306 1013 312.283 989.577 290.179C966.153 268.076 845.792 252.021 820.433 279.138C795.075 306.26 770.55 436.268 787.394 451.089Z" fill="#000C3E"/>
<path d="M1001.94 339.38C1001.16 396.508 954.209 442.185 897.078 441.403C839.95 440.62 794.273 393.67 795.055 336.542C795.841 279.414 842.788 233.737 899.916 234.52C957.044 235.306 1002.72 282.252 1001.94 339.38Z" fill="#000C3E"/>
<path d="M813.966 336.087C813.966 336.087 821.198 461.52 906.201 464.925C991.201 468.329 986.915 291.46 955.801 275.363C924.687 259.27 796.587 265.471 813.966 336.087Z" fill="#FFCEB0"/>
<path d="M901.744 360.891C901.744 360.891 918.871 399.145 914.761 401.805C910.65 404.462 898.432 404.296 895.075 401.535C891.719 398.773 895.012 356.726 901.744 360.891Z" fill="#F5A473"/>
<path d="M876.633 374.426C876.522 378.83 872.863 382.311 868.46 382.199C864.056 382.091 860.575 378.432 860.687 374.028C860.795 369.625 864.454 366.144 868.86 366.252C873.264 366.364 876.745 370.023 876.633 374.426Z" fill="#41294A"/>
<path d="M945.01 369.045C944.899 373.449 941.24 376.929 936.836 376.818C932.433 376.71 928.952 373.051 929.064 368.647C929.172 364.244 932.831 360.763 937.237 360.871C941.641 360.983 945.122 364.642 945.01 369.045Z" fill="#41294A"/>
<path d="M879.202 267.554C879.202 267.554 849.118 282.995 843.986 310.758C838.851 338.522 843.525 409.192 811.205 406.713C811.205 406.713 745.451 268.196 879.202 267.554Z" fill="#41294A"/>
<path d="M895.256 267.774C892.542 269.816 926.679 268.922 946.759 292.12C966.842 315.318 972.881 374.343 975.926 375.367C978.971 376.395 989.257 301.736 967.329 279.899C945.4 258.066 910.7 256.151 895.256 267.774Z" fill="#41294A"/>
<path d="M968.725 380.584C968.725 380.584 976.103 348.964 990.542 359.813C1004.98 370.663 992.938 403.807 978.998 407.119C965.062 410.432 961.372 396.966 968.725 380.584Z" fill="#FFCEB0"/>
<path d="M834.746 378.747C834.746 378.747 828.236 346.936 813.505 357.384C798.777 367.833 809.906 401.299 823.747 404.993C837.591 408.683 841.647 395.327 834.746 378.747Z" fill="#FFCEB0"/>
<path d="M933.183 340.911C933.183 340.911 948.195 332.991 957.444 344.369C965.58 354.373 947.011 346.265 940.177 347.56C933.339 348.859 924.31 348.292 933.183 340.911Z" fill="#41294A"/>
<path d="M873.527 343.793C873.527 343.793 858.13 336.65 849.473 348.483C841.859 358.89 859.989 349.845 866.883 350.793C873.775 351.738 882.767 350.71 873.527 343.793Z" fill="#41294A"/>
<path d="M927.732 425.18C927.732 425.18 917.939 410.382 907.344 411.314C896.745 412.249 888.622 425.889 887.197 426.462C887.197 426.462 903.736 434.229 927.732 425.18Z" fill="#41294A"/>
<path d="M868.172 356.667C854.914 356.667 843.979 367.46 843.794 380.721C843.708 387.231 846.158 393.391 850.702 398.062C855.245 402.729 861.332 405.348 867.845 405.437L868.185 405.44C881.443 405.44 892.379 394.651 892.56 381.389C892.745 367.947 881.959 356.858 868.513 356.671L868.172 356.667ZM868.185 408.622L867.8 408.619C860.438 408.52 853.556 405.555 848.42 400.279C843.285 395.001 840.514 388.039 840.612 380.677C840.819 365.684 853.183 353.486 868.172 353.486L868.557 353.489C883.757 353.699 895.949 366.235 895.742 381.431C895.539 396.423 883.174 408.622 868.185 408.622Z" fill="#FFFCF6"/>
<path d="M937.038 351.156C923.777 351.156 912.841 361.948 912.66 375.21C912.475 388.649 923.264 399.741 936.707 399.925L937.048 399.928C950.309 399.928 961.245 389.139 961.426 375.878C961.515 369.365 959.062 363.205 954.522 358.534C949.978 353.87 943.891 351.248 937.378 351.159L937.038 351.156ZM937.048 403.11L936.666 403.107C921.463 402.897 909.271 390.361 909.478 375.165C909.685 360.173 922.046 347.974 937.038 347.974L937.423 347.977C944.786 348.076 951.668 351.041 956.8 356.316C961.938 361.595 964.71 368.557 964.608 375.919C964.401 390.911 952.037 403.11 937.048 403.11Z" fill="#FFFCF6"/>
<path d="M842.887 376.727C842.705 376.727 842.517 376.695 842.339 376.632L832.135 372.883C831.311 372.578 830.888 371.665 831.191 370.838C831.493 370.017 832.412 369.6 833.233 369.896L843.434 373.641C844.261 373.946 844.681 374.859 844.379 375.687C844.143 376.329 843.536 376.727 842.887 376.727Z" fill="#FFFCF6"/>
<path d="M961.873 369.497C961.196 369.497 960.566 369.061 960.356 368.38C960.092 367.543 960.559 366.649 961.399 366.385L975.345 362.032C976.178 361.765 977.076 362.239 977.337 363.076C977.601 363.916 977.133 364.807 976.293 365.071L962.347 369.427C962.192 369.474 962.029 369.497 961.873 369.497Z" fill="#FFFCF6"/>
<path d="M894.759 296.942C894.759 296.942 894.788 328.673 913.69 334.404C932.59 340.137 981.21 337.608 980.717 329.854C976.265 259.846 943.357 263.368 915.873 254.408C867.673 238.7 828.251 317.4 834.153 336.001C840.055 354.598 880.737 337.232 889.445 334.617C898.151 331.998 893.327 310.436 894.759 296.942Z" fill="#000C3E"/>
<g opacity="0.210007">
<g opacity="0.210007">
<path opacity="0.210007" d="M846.015 404.112C846.015 404.112 888.895 379.371 907.715 382.829C926.535 386.291 959.565 386.832 961.06 393.583C962.559 400.332 919.185 397.29 905.844 398.588C892.503 399.886 841.287 415.245 846.015 404.112Z" fill="#DB5C5D"/>
</g>
</g>
<path d="M870.013 387.556C869.386 387.556 868.791 387.184 868.539 386.563C868.209 385.752 868.6 384.823 869.414 384.492C873.726 382.735 874.524 381.351 874.531 381.339C874.814 380.505 875.686 380.117 876.526 380.413C877.356 380.696 877.773 381.663 877.49 382.497C877.289 383.082 876.204 385.163 870.611 387.438C870.413 387.518 870.213 387.556 870.013 387.556Z" fill="#DB5C5D"/>
<path d="M935.524 384.188C934.242 384.188 932.078 383.8 928.68 382.142C927.888 381.76 927.56 380.809 927.945 380.016C928.327 379.227 929.284 378.903 930.07 379.285C934.261 381.324 935.82 380.984 935.839 380.984C936.65 380.643 937.516 381.041 937.859 381.849C938.203 382.657 937.764 383.612 936.952 383.959C936.742 384.048 936.291 384.188 935.524 384.188Z" fill="#DB5C5D"/>
<path d="M894.128 381.541C893.323 381.541 892.629 380.933 892.546 380.112C892.457 379.237 893.094 378.454 893.969 378.369L911.042 376.625C911.898 376.517 912.696 377.169 912.785 378.044C912.875 378.919 912.238 379.702 911.363 379.788L894.29 381.531C894.236 381.538 894.182 381.541 894.128 381.541Z" fill="#FFFCF6"/>
<path d="M870.487 241.565C870.255 241.565 870.016 241.515 869.794 241.403C860.767 237.016 855.307 230.757 853.557 222.8C849.676 205.131 865.46 185.583 866.135 184.759C866.695 184.078 867.694 183.979 868.371 184.536C869.052 185.093 869.154 186.092 868.597 186.773C868.441 186.964 853.112 205.968 856.666 222.125C858.196 229.08 863.08 234.604 871.184 238.546C871.973 238.928 872.304 239.882 871.919 240.671C871.645 241.235 871.079 241.565 870.487 241.565Z" fill="#000C3E"/>
<path d="M906.817 246.294C906.375 246.294 905.936 246.109 905.621 245.753C905.041 245.091 905.105 244.089 905.767 243.507C905.951 243.345 924.196 227.121 923.343 210.598C922.977 203.487 919.067 197.235 911.72 192.014C911.004 191.508 910.835 190.515 911.345 189.796C911.854 189.083 912.846 188.915 913.562 189.424C921.742 195.234 926.105 202.307 926.521 210.445C927.444 228.508 908.665 245.196 907.864 245.899C907.561 246.164 907.189 246.294 906.817 246.294Z" fill="#000C3E"/>
<path d="M1001.45 455.181C1000.99 455.181 1000.53 454.984 1000.21 454.592C999.659 453.914 999.761 452.912 1000.44 452.355C1000.65 452.184 1021.58 434.706 1015.52 407.057C1013.18 396.398 1009.09 384.67 1004.75 372.255C997.231 350.724 989.455 328.459 988.822 306.874C988.797 305.992 989.49 305.264 990.368 305.235C991.192 305.264 991.978 305.9 992.004 306.778C992.624 327.873 1000.31 349.904 1007.75 371.205C1012.12 383.716 1016.25 395.53 1018.63 406.373C1025.11 435.979 1002.68 454.64 1002.45 454.824C1002.15 455.063 1001.8 455.181 1001.45 455.181Z" fill="#000C3E"/>
<path d="M1007.1 341.551C1007.05 341.551 1006.99 341.548 1006.94 341.545C1006.07 341.459 1005.43 340.679 1005.51 339.804C1008.26 311.968 1002.4 289.374 988.109 272.641C965.09 245.708 927.691 243.236 927.319 243.213C926.441 243.163 925.77 242.412 925.824 241.53C925.871 240.655 926.626 239.962 927.501 240.038C927.892 240.06 966.639 242.618 990.527 270.573C1005.41 287.99 1011.52 311.388 1008.68 340.116C1008.6 340.94 1007.91 341.551 1007.1 341.551Z" fill="#000C3E"/>
<path d="M893.154 428.321C893.154 428.321 909.008 417.197 923.167 426.733C923.167 426.733 906.635 432.928 893.154 428.321Z" fill="#DB5C5D"/>
<path d="M903.644 439.741C902.079 439.741 900.733 439.725 899.903 439.712C899.025 439.699 898.325 438.977 898.337 438.096C898.35 437.217 898.951 436.505 899.954 436.53C905.961 436.61 913.139 436.463 914.256 436.04C915.073 435.728 915.996 436.136 916.311 436.953C916.626 437.774 916.225 438.687 915.407 439.006C913.816 439.623 907.911 439.741 903.644 439.741Z" fill="#DB5C5D"/>
<path d="M826.48 396.203C826.337 396.203 826.194 396.184 826.051 396.143C825.204 395.907 824.711 395.032 824.946 394.183C829.299 378.583 817.743 368.538 817.625 368.436C816.957 367.87 816.874 366.865 817.444 366.193C818.01 365.525 819.016 365.442 819.687 366.015C820.228 366.473 832.907 377.498 828.01 395.042C827.813 395.742 827.177 396.203 826.48 396.203Z" fill="#DB5C5D"/>
<path d="M974.92 400.003C974.885 400.003 974.853 400.003 974.815 400C973.94 399.943 973.275 399.185 973.329 398.31C974.519 379.847 983.367 369.977 983.746 369.567C984.338 368.918 985.343 368.873 985.989 369.465C986.638 370.057 986.683 371.062 986.094 371.711C986.008 371.807 977.618 381.234 976.508 398.514C976.45 399.357 975.75 400.003 974.92 400.003Z" fill="#DB5C5D"/>
<path d="M942.972 451.941C942.972 451.941 948.031 508.534 941.318 517.485C934.604 526.438 892.084 519.721 880.893 517.485C869.703 515.248 869.681 421.648 871.94 427.97C890.623 480.185 941.684 433.977 942.972 451.941Z" fill="#FFCEB0"/>
<path d="M875.986 457.539C875.986 457.539 906.152 472.038 940.445 454.487C940.445 454.487 943.111 475.57 940.445 480.431C937.782 485.293 883.46 488.767 872.766 464.806C872.766 464.806 872.9 456.498 875.986 457.539Z" fill="#F5A473"/>
<path d="M711.249 900.876H1101.62C1101.62 900.876 1121.56 561.474 1072.66 524.566C1023.76 487.655 808.486 506.093 757.804 537.621C707.122 569.149 711.249 900.876 711.249 900.876Z" fill="#FB4C47"/>
<path d="M906.153 510.778C906.153 510.778 891.106 641.241 897.674 659.4C904.237 677.558 895.828 758.065 893.155 768.53C890.48 778.995 809.374 783.439 788.445 775.068C767.515 766.697 793.777 541.045 805.492 499.298C817.211 457.547 904.864 482.145 906.153 510.778Z" fill="#05BA6E"/>
<path d="M667.969 350.932C667.969 350.932 700.598 413.425 723.465 414.004C746.335 414.583 823.454 320.668 851.889 319.7C880.328 318.736 904.747 321.495 904.859 314.718C904.97 307.938 865.307 300.537 865.307 300.537C865.307 300.537 922.667 304.189 910.802 297.915C898.941 291.641 870.515 285.999 870.515 285.999C870.515 285.999 911.741 287.664 912.04 283.254C912.339 278.844 869.118 272.35 869.118 272.35C869.118 272.35 921.712 270.67 912.094 263.435C902.472 256.199 884.365 259.34 835.389 266.82C786.409 274.3 675.602 339.688 667.969 350.932Z" fill="#FFCEB0"/>
<path d="M725.214 347.938C725.214 347.938 777.41 379.03 754.683 414.265C730.483 451.784 731.838 440.638 727.654 455.818C723.467 470.998 792.441 500.563 795.578 513.557C798.715 526.548 766.201 686.332 735.745 679.774C709.235 674.069 561.915 590.466 540.743 506.92C524.332 442.15 658.102 283.722 725.214 347.938Z" fill="#FB4C47"/>
<path d="M861.845 712.398C861.845 712.398 804.011 839.801 825.274 856.862C846.538 873.919 863.672 862.805 882.476 873.878C901.283 884.95 919.323 879.414 934.43 869.78C949.537 860.142 910.22 733.391 893.958 721.323C877.697 709.252 864.776 705.777 861.845 712.398Z" fill="white"/>
<path d="M1054 515.5C1054 515.5 1085.1 519.296 1109.51 564C1127.82 597.541 1163.3 793.529 1109.51 821.454C1055.72 849.377 1005.26 834.771 985.736 815.953C966.209 797.135 1000.95 700.154 1024.11 692.915C1047.27 685.679 1054 515.5 1054 515.5Z" fill="#FB4C47"/>
<path d="M1064.07 512.496C1064.07 512.496 1065.52 503.435 1020.74 484.055C985.005 468.588 954.393 494.691 899.88 497.501C845.368 500.313 850.287 478.706 811.727 488.748C752.223 504.239 799.599 543.244 818.772 547.622C837.945 552 902.181 659.985 1064.07 512.496Z" fill="#05BA6E"/>
<path d="M907.78 403.6C907.78 403.6 907.614 407.291 909.733 407.625C911.852 407.959 915.769 406.776 914.76 401.803C914.76 401.803 909.447 403.511 907.78 403.6Z" fill="white"/>
<path d="M1128.51 709.318C1128.36 709.318 1128.21 709.309 1128.06 709.287C1126.59 709.077 1125.5 707.893 1125.35 706.483C1122.69 703.419 1104.9 697.002 1093.03 692.719C1069.51 684.234 1058.96 680.037 1056.69 675.446C1054.77 671.554 1055.63 665.942 1056.72 658.837C1058.45 647.593 1060.6 633.593 1053.46 620.109C1041.13 596.822 1042.31 562.281 1042.37 560.824C1042.44 559.067 1043.95 557.661 1045.67 557.766C1047.42 557.833 1048.79 559.312 1048.73 561.066C1048.71 561.409 1047.56 595.371 1059.09 617.131C1067.21 632.48 1064.78 648.27 1063.01 659.801C1062.16 665.321 1061.36 670.536 1062.4 672.627C1064.33 675.602 1082.9 682.302 1095.19 686.734C1122.88 696.725 1132.49 700.744 1131.66 706.588C1131.43 708.176 1130.07 709.318 1128.51 709.318Z" fill="#B31B1F"/>
<path d="M1045.5 683.159C1045.22 683.159 1044.94 683.124 1044.66 683.047C1034.15 680.181 1017.82 677.196 1017.65 677.164C1015.92 676.852 1014.78 675.195 1015.09 673.467C1015.41 671.736 1017.06 670.572 1018.79 670.906C1019.47 671.027 1035.55 673.967 1046.33 676.907C1048.03 677.371 1049.03 679.118 1048.57 680.814C1048.18 682.23 1046.9 683.159 1045.5 683.159Z" fill="#B31B1F"/>
<path d="M1102.65 840.54C1102.6 840.54 1102.55 840.54 1102.51 840.537C1043.61 837.867 984.936 812.779 981.763 788.916C980.768 781.417 980.048 777.666 979.603 775.811C978.413 775.219 977.691 773.952 977.904 772.568C978.308 769.947 980.083 769.018 981.493 769.018H981.528C984.732 769.053 985.795 770.93 988.073 788.079C990.535 806.603 1043.96 831.513 1102.79 834.179C1104.55 834.259 1105.91 835.745 1105.83 837.501C1105.75 839.21 1104.34 840.54 1102.65 840.54Z" fill="#B31B1F"/>
<path d="M997.077 784.226C996.845 784.226 996.609 784.2 996.371 784.149C994.659 783.761 993.584 782.056 993.972 780.341C994.109 779.727 1008.03 718.383 1021.03 674.256C1021.53 672.569 1023.31 671.602 1024.98 672.105C1026.67 672.601 1027.63 674.37 1027.13 676.056C1014.19 719.987 1000.32 781.133 1000.18 781.747C999.842 783.224 998.531 784.226 997.077 784.226Z" fill="#B31B1F"/>
<path d="M721 650.994C720.845 650.994 720.682 650.982 720.523 650.959C718.786 650.699 717.59 649.076 717.851 647.342C718.178 645.146 726.034 593.3 736.814 569.039C747.294 545.463 752.659 521.558 752.713 521.32C753.088 519.605 754.784 518.533 756.509 518.902C758.224 519.283 759.305 520.986 758.924 522.701C758.704 523.7 753.365 547.467 742.63 571.626C732.2 595.098 724.22 647.755 724.141 648.284C723.905 649.865 722.547 650.994 721 650.994Z" fill="#B31B1F"/>
<path d="M672.497 469.977C664.028 469.977 654.536 469.462 644.088 468.132C642.344 467.909 641.11 466.318 641.332 464.575C641.552 462.831 643.184 461.619 644.889 461.819C676.707 465.873 699.31 462.141 710.961 459.598C705.158 457.743 697.028 455.936 688.915 456.378C670.658 457.238 643.944 440.928 642.815 440.228C641.32 439.305 640.858 437.345 641.781 435.85C642.704 434.354 644.667 433.887 646.159 434.816C646.42 434.975 672.351 450.817 688.587 450.021C704.054 449.207 722.371 456.095 724.035 459.051C724.63 460.104 724.582 461.472 723.905 462.475C723.275 463.401 721.97 463.957 720.825 463.887C720.322 463.945 718.833 464.301 717.385 464.645C710.427 466.312 695.091 469.974 672.497 469.977Z" fill="#B31B1F"/>
<path d="M750.708 401.594C749.525 401.594 748.389 400.932 747.842 399.799C747.762 399.637 739.817 383.499 726.289 377.104C710.93 369.84 693.561 344.523 692.829 343.451C691.84 341.997 692.215 340.015 693.666 339.028C695.123 338.042 697.099 338.421 698.086 339.865C698.257 340.113 715.213 364.823 729.012 371.348C744.603 378.727 753.212 396.287 753.572 397.028C754.335 398.613 753.671 400.509 752.089 401.273C751.644 401.492 751.173 401.594 750.708 401.594Z" fill="#B31B1F"/>
<path d="M898.497 586.501C898.379 586.501 898.259 586.488 898.141 586.46C897.285 586.266 896.747 585.41 896.944 584.557C897.021 584.22 904.609 551.047 906.83 534.196C910.289 507.925 898.523 498.761 898.405 498.672C897.702 498.144 897.555 497.152 898.077 496.448C898.599 495.742 899.585 495.592 900.292 496.111C900.842 496.515 913.709 506.318 909.983 534.61C907.746 551.613 900.123 584.932 900.047 585.263C899.878 586.005 899.223 586.501 898.497 586.501Z" fill="#08824F"/>
<path d="M804.663 538.657L801.503 538.291C801.503 538.291 803.972 516.811 805.261 506.251C806.562 495.599 809.601 488.325 809.731 488.02C810.072 487.205 811.007 486.836 811.815 487.17C812.623 487.514 813.002 488.449 812.662 489.257C812.63 489.327 809.661 496.454 808.42 506.639C807.132 517.19 804.663 538.654 804.663 538.657Z" fill="#08824F"/>
<path d="M895.008 891.386C876.863 891.386 866.885 890.787 853.076 889.96C835.312 888.894 810.988 887.437 754.143 886.553C752.387 886.527 750.984 885.083 751.012 883.323C751.041 881.567 752.587 880.103 754.242 880.189C811.227 881.074 835.634 882.54 853.455 883.61C867.155 884.427 877.05 885.022 895.008 885.022C917.487 885.022 937.653 882.56 957.157 880.18C974.278 878.086 990.447 876.113 1007.78 875.728C1044.75 874.914 1072.37 875.725 1072.65 875.728C1074.4 875.786 1075.78 877.252 1075.73 879.006C1075.68 880.762 1074.19 882.063 1072.46 882.092C1072.18 882.082 1044.71 881.268 1007.92 882.092C990.906 882.467 974.886 884.424 957.927 886.495C938.235 888.901 917.875 891.386 895.008 891.386Z" fill="#B31B1F"/>
<path d="M1039.14 848.932C1037.56 848.932 1035.98 848.223 1034.6 846.136C1030.3 839.642 1029 839.107 1020.69 840.386C1013.17 841.56 1010.2 836.231 1008.24 832.709C1007.58 831.532 1006.96 830.421 1006.41 829.992C1004.95 828.837 1001.29 830.224 999.747 831.077L998.204 828.296C998.879 827.92 1004.87 824.723 1008.39 827.494C1009.43 828.318 1010.16 829.635 1011.01 831.156C1012.91 834.551 1014.88 838.048 1020.2 837.243C1029.72 835.773 1032.26 836.845 1037.25 844.379C1038.57 846.384 1039.72 846.11 1043.25 844.052C1045.93 842.48 1049.99 840.109 1053.02 844.341L1050.44 846.193C1049.25 844.554 1048.19 844.85 1044.85 846.797C1043.26 847.73 1041.2 848.932 1039.14 848.932Z" fill="white"/>
<path d="M1002.12 699.085C1002.12 699.085 926.125 671.604 893.153 685.661C860.181 699.715 833.009 735.948 838.042 738.344C843.076 740.743 870.012 719.852 870.012 719.852C870.012 719.852 842.544 747.609 847.638 750.387C852.732 753.165 879.201 738.344 879.201 738.344C879.201 738.344 860.725 758.096 868.66 759.608C876.595 761.119 893.608 744.844 911.349 744.233C929.094 743.619 951.455 757.641 973.638 761.59C995.818 765.535 1002.12 699.085 1002.12 699.085Z" fill="#FFCEB0"/>
<path d="M1116.82 684.84C1116.62 684.84 1116.42 684.821 1116.22 684.783C1116 684.744 1093.62 680.513 1066.86 675.072C1065.14 674.722 1064.03 673.042 1064.38 671.321C1064.73 669.599 1066.4 668.486 1068.13 668.839C1094.84 674.267 1117.18 678.489 1117.41 678.534C1119.13 678.858 1120.27 680.522 1119.94 682.25C1119.65 683.777 1118.32 684.84 1116.82 684.84Z" fill="#B31B1F"/>
<path fill-rule="evenodd" clip-rule="evenodd" d="M904.41 184.769C903.579 184.769 902.676 184.866 901.697 185.059C899.312 185.538 897.767 186.697 896.839 188.708C892.702 197.662 901.424 218.987 907.656 231.585C911.507 217.609 916.122 194.248 909.601 186.886C908.345 185.471 906.636 184.769 904.41 184.769ZM907.839 242.049C907.939 242.068 908.04 242.082 908.142 242.09C908.474 242.218 908.828 242.284 909.186 242.284C909.517 242.284 909.849 242.229 910.172 242.112C914.422 240.562 951.844 226.527 956.505 210.355C957.626 206.467 956.837 202.633 954.225 199.273C949.782 193.553 944.982 192.873 941.735 193.306C932.524 194.534 923.457 206.434 916.808 217.74C919.16 204.863 920.066 189.992 913.922 183.056C911.755 180.608 907.673 177.983 900.568 179.398C896.398 180.23 893.294 182.615 891.598 186.29C885.32 199.887 899.762 229.169 904.575 238.244C898.506 239.415 892.402 239.68 886.563 239.283C873.984 238.428 862.834 234.516 856.177 230.237L853.798 233.938C861.164 238.673 873.052 242.775 886.265 243.673C893.194 244.144 900.543 243.737 907.839 242.049ZM943.327 198.971C943.054 198.971 942.777 198.987 942.5 199.029C932.744 200.327 920.957 221.018 914.725 234.107C927.68 228.652 948.228 218.233 950.957 208.76C951.571 206.626 951.159 204.741 949.668 202.817C947.661 200.235 945.582 198.971 943.327 198.971Z" fill="#FFD310"/>
<path d="M481.27 293.75H594.515C601.784 293.75 608.662 297.045 613.218 302.71L646.458 344.048C651.173 349.91 658.363 353.223 665.883 352.997L878.85 346.597" stroke="#FFB2B1" stroke-width="5" stroke-linejoin="round"/>
<path d="M493.361 294.265C493.361 299.301 489.279 303.384 484.243 303.384C479.207 303.384 475.124 299.301 475.124 294.265C475.124 289.229 479.207 285.147 484.243 285.147C489.279 285.147 493.361 289.229 493.361 294.265Z" fill="#FF383D"/>
<path d="M295.001 294.366C295.001 255.356 326.625 223.732 365.635 223.732C404.645 223.732 436.266 255.356 436.266 294.366C436.266 333.376 404.645 365 365.635 365C326.625 365 295.001 333.376 295.001 294.366Z" fill="#FFE1E2"/>
<path d="M365.33 206.49C414.103 206.49 453.64 246.028 453.64 294.8C453.64 343.573 414.103 383.113 365.33 383.113V426.724" stroke="#FFD6D7" stroke-width="2.4" stroke-miterlimit="10"/>
<path d="M358.068 428.928C358.068 424.916 361.318 421.665 365.33 421.665C369.342 421.665 372.592 424.916 372.592 428.928C372.592 432.939 369.342 436.19 365.33 436.19C361.318 436.19 358.068 432.939 358.068 428.928Z" fill="#F2AEB0"/>
<path d="M347.328 303.192C344.263 303.192 342.209 302.554 341.168 301.278C340.127 300.017 339.606 298.594 339.606 297.01C339.606 296.057 339.738 295.272 340.002 294.656C340.266 294.04 340.596 293.6 340.992 293.336C341.388 293.057 341.799 292.918 342.224 292.918C342.605 292.918 342.906 293.021 343.126 293.226C343.361 293.417 343.507 293.629 343.566 293.864C343.185 294.172 342.847 294.656 342.554 295.316C342.261 295.961 342.114 296.658 342.114 297.406C342.114 298.462 342.51 299.357 343.302 300.09C344.094 300.823 345.517 301.19 347.57 301.19C349.359 301.19 350.701 300.889 351.596 300.288C352.491 299.687 352.938 298.924 352.938 298H352.41C351.618 298 351.039 297.839 350.672 297.516C350.32 297.179 350.144 296.761 350.144 296.262C350.144 295.954 350.217 295.639 350.364 295.316C350.555 295.492 350.826 295.653 351.178 295.8C351.545 295.932 351.948 295.998 352.388 295.998H358.46V298H355.424C355.424 298.865 355.175 299.687 354.676 300.464C354.177 301.256 353.356 301.909 352.212 302.422C351.083 302.935 349.616 303.192 347.812 303.192H347.328ZM370.069 295.998V298H369.101C368.28 298 367.561 297.795 366.945 297.384C366.314 297.824 365.493 298.044 364.481 298.044C363.616 298.044 362.89 297.883 362.303 297.56C361.79 297.853 361.174 298 360.455 298H358.453V295.998H359.817V292.104C359.817 290.843 359.971 289.875 360.279 289.2C360.602 288.525 361.056 288.063 361.643 287.814C362.23 287.565 363 287.44 363.953 287.44C364.862 287.44 365.647 287.572 366.307 287.836C366.967 288.085 367.51 288.606 367.935 289.398C368.36 290.19 368.573 291.327 368.573 292.808C368.573 294.113 368.397 295.177 368.045 295.998H370.069ZM364.129 295.998C364.921 295.998 365.442 295.653 365.691 294.964C365.955 294.275 366.087 293.527 366.087 292.72C366.087 291.62 365.926 290.799 365.603 290.256C365.295 289.713 364.782 289.442 364.063 289.442C363.564 289.442 363.146 289.581 362.809 289.86C362.486 290.139 362.325 290.593 362.325 291.224V295.998H364.129ZM370.076 295.998H375.972C376.368 295.998 376.757 295.903 377.138 295.712C377.534 295.521 377.872 295.191 378.15 294.722C378.429 294.238 378.568 293.607 378.568 292.83C378.568 291.627 378.202 290.762 377.468 290.234C376.75 289.691 375.716 289.42 374.366 289.42H372.584C371.998 289.42 371.55 289.251 371.242 288.914C370.934 288.562 370.766 288.122 370.736 287.594C370.722 287.359 370.744 287.169 370.802 287.022C370.861 286.875 370.934 286.795 371.022 286.78C371.14 286.971 371.374 287.139 371.726 287.286C372.093 287.433 372.548 287.506 373.09 287.506L374.19 287.484L375.422 287.44C376.478 287.44 377.432 287.653 378.282 288.078C379.148 288.489 379.83 289.097 380.328 289.904C380.827 290.711 381.076 291.664 381.076 292.764C381.076 293.585 380.937 294.399 380.658 295.206C380.38 295.998 379.91 296.665 379.25 297.208C378.59 297.736 377.74 298 376.698 298H370.076V295.998Z" fill="#FF383D"/>
<path d="M934.77 408.046H1103.58C1112.4 408.046 1120.5 412.877 1124.7 420.63L1155.94 478.419C1160.14 486.172 1168.24 491.004 1177.06 491.004H1259.84" stroke="#FFB2B1" stroke-width="5" stroke-linejoin="round"/>
<path d="M1263.94 490.905C1263.94 495.941 1259.86 500.023 1254.83 500.023C1249.79 500.023 1245.71 495.941 1245.71 490.905C1245.71 485.869 1249.79 481.786 1254.83 481.786C1259.86 481.786 1263.94 485.869 1263.94 490.905Z" fill="#FF383D"/>
<path opacity="0.15" d="M1289.73 509.366C1289.73 470.356 1321.36 438.732 1360.37 438.732C1399.38 438.732 1431 470.356 1431 509.366C1431 548.376 1399.38 580 1360.37 580C1321.36 580 1289.73 548.376 1289.73 509.366Z" fill="#FF383D"/>
<path d="M1365.03 421.265C1413.8 421.265 1453.34 460.803 1453.34 509.578C1453.34 558.35 1413.8 597.888 1365.03 597.888V641.502" stroke="#FFD6D7" stroke-width="2.4" stroke-miterlimit="10"/>
<path d="M1357.77 643.704C1357.77 639.693 1361.02 636.442 1365.03 636.442C1369.04 636.442 1372.29 639.693 1372.29 643.704C1372.29 647.716 1369.04 650.966 1365.03 650.966C1361.02 650.966 1357.77 647.716 1357.77 643.704Z" fill="#F2AEB0"/>
<path opacity="0.15" d="M303 772.76C303 733.75 334.624 702.126 373.634 702.126C412.644 702.126 444.265 733.75 444.265 772.76C444.265 811.77 412.644 843.394 373.634 843.394C334.624 843.394 303 811.77 303 772.76Z" fill="#FF383D"/>
<g filter="url(#filter0_d)">
<path d="M344.169 781.089V783H341.292C340.452 783 339.759 782.797 339.213 782.391C338.583 782.797 337.82 783 336.924 783H336.651C335.937 783 335.321 782.902 334.803 782.706C334.299 782.51 333.844 782.202 333.438 781.782C333.214 782.118 332.913 782.405 332.535 782.643C332.171 782.881 331.744 783 331.254 783H329.385C328.755 782.986 328.188 782.79 327.684 782.412C327.656 783.784 327.46 784.897 327.096 785.751C326.732 786.619 326.144 787.263 325.332 787.683C324.52 788.117 323.428 788.334 322.056 788.334C320.11 788.334 318.675 787.858 317.751 786.906C316.827 785.968 316.365 784.456 316.365 782.37C316.365 780.522 316.631 779.227 317.163 778.485C317.695 777.743 318.339 777.372 319.095 777.372C319.459 777.372 319.767 777.449 320.019 777.603C320.285 777.757 320.46 777.925 320.544 778.107C320.082 778.499 319.662 779.136 319.284 780.018C318.906 780.9 318.717 781.894 318.717 783C318.717 783.994 318.871 784.757 319.179 785.289C319.487 785.821 319.879 786.171 320.355 786.339C320.831 786.521 321.398 786.619 322.056 786.633C322.84 786.633 323.463 786.493 323.925 786.213C324.401 785.933 324.744 785.471 324.954 784.827C325.178 784.183 325.29 783.315 325.29 782.223V775.356C325.29 774.95 325.374 774.635 325.542 774.411C325.71 774.187 326.025 774.075 326.487 774.075C326.949 774.075 327.264 774.187 327.432 774.411C327.6 774.635 327.684 774.95 327.684 775.356V779.346C327.684 779.92 327.747 780.354 327.873 780.648C327.999 780.928 328.23 781.075 328.566 781.089H330.498C331.016 781.089 331.373 780.935 331.569 780.627C331.765 780.305 331.863 779.92 331.863 779.472V774.873C331.863 774.425 331.975 774.096 332.199 773.886C332.423 773.676 332.703 773.571 333.039 773.571C333.375 773.571 333.655 773.676 333.879 773.886C334.117 774.096 334.236 774.425 334.236 774.873V778.989C334.236 780.389 334.586 781.089 335.286 781.089H337.071C337.701 781.089 338.156 780.753 338.436 780.081C338.73 779.395 338.877 778.653 338.877 777.855C338.877 776.917 338.73 776.098 338.436 775.398C338.142 774.684 337.736 774.152 337.218 773.802C337.288 773.564 337.442 773.361 337.68 773.193C337.918 773.011 338.247 772.92 338.667 772.92C339.535 772.92 340.186 773.326 340.62 774.138C341.054 774.95 341.271 776.042 341.271 777.414C341.271 778.898 340.998 780.123 340.452 781.089H344.169ZM355.985 782.089V784H353.885C353.395 784 352.961 783.937 352.583 783.811C352.247 783.937 351.855 784 351.407 784H344.162V782.089H346.493C345.989 781.277 345.737 780.164 345.737 778.75C345.737 777.378 345.926 776.342 346.304 775.642C346.696 774.928 347.186 774.466 347.774 774.256C348.376 774.032 349.097 773.92 349.937 773.92C350.889 773.92 351.659 774.032 352.247 774.256C352.849 774.48 353.311 774.907 353.633 775.537C353.969 776.167 354.137 777.07 354.137 778.246V781.06C354.137 781.424 354.095 781.767 354.011 782.089H355.985ZM351.743 777.511C351.743 776.895 351.589 776.461 351.281 776.209C350.973 775.943 350.595 775.81 350.147 775.81C349.517 775.81 349.02 776.076 348.656 776.608C348.306 777.126 348.131 777.847 348.131 778.771C348.131 779.541 348.271 780.29 348.551 781.018C348.845 781.732 349.349 782.089 350.063 782.089H350.504C350.952 782.089 351.267 781.963 351.449 781.711C351.645 781.445 351.743 781.018 351.743 780.43V777.511ZM350.231 772.555C349.839 772.555 349.503 772.422 349.223 772.156C348.957 771.876 348.824 771.547 348.824 771.169C348.824 770.777 348.957 770.448 349.223 770.182C349.503 769.916 349.839 769.783 350.231 769.783C350.609 769.783 350.931 769.916 351.197 770.182C351.477 770.448 351.617 770.777 351.617 771.169C351.617 771.547 351.477 771.876 351.197 772.156C350.931 772.422 350.609 772.555 350.231 772.555ZM363.345 781.089V783H360.741C359.985 783 359.313 782.783 358.725 782.349C358.431 782.559 358.144 782.72 357.864 782.832C357.584 782.93 357.262 782.986 356.898 783H355.995V781.089H356.898C357.43 781.075 357.941 780.921 358.431 780.627V774.138C358.431 773.774 358.529 773.48 358.725 773.256C358.921 773.032 359.222 772.92 359.628 772.92C360.02 772.92 360.314 773.032 360.51 773.256C360.706 773.48 360.804 773.781 360.804 774.159V779.577C360.804 780.025 360.867 780.389 360.993 780.669C361.119 780.949 361.308 781.089 361.56 781.089H363.345ZM359.649 771.555C359.257 771.555 358.921 771.422 358.641 771.156C358.375 770.876 358.242 770.547 358.242 770.169C358.242 769.777 358.375 769.448 358.641 769.182C358.921 768.916 359.257 768.783 359.649 768.783C360.027 768.783 360.349 768.916 360.615 769.182C360.895 769.448 361.035 769.777 361.035 770.169C361.035 770.547 360.895 770.876 360.615 771.156C360.349 771.422 360.027 771.555 359.649 771.555ZM370.687 781.089V783H368.083C367.327 783 366.655 782.783 366.067 782.349C365.773 782.559 365.486 782.72 365.206 782.832C364.926 782.93 364.604 782.986 364.24 783H363.337V781.089H364.24C364.772 781.075 365.283 780.921 365.773 780.627V774.138C365.773 773.774 365.871 773.48 366.067 773.256C366.263 773.032 366.564 772.92 366.97 772.92C367.362 772.92 367.656 773.032 367.852 773.256C368.048 773.48 368.146 773.781 368.146 774.159V779.577C368.146 780.025 368.209 780.389 368.335 780.669C368.461 780.949 368.65 781.089 368.902 781.089H370.687ZM365.332 771.492C364.982 771.492 364.681 771.366 364.429 771.114C364.177 770.862 364.051 770.561 364.051 770.211C364.051 769.847 364.177 769.539 364.429 769.287C364.681 769.021 364.982 768.888 365.332 768.888C365.696 768.888 366.004 769.021 366.256 769.287C366.508 769.539 366.634 769.847 366.634 770.211C366.634 770.575 366.508 770.883 366.256 771.135C366.004 771.373 365.696 771.492 365.332 771.492ZM368.608 771.492C368.244 771.492 367.936 771.366 367.684 771.114C367.432 770.862 367.306 770.561 367.306 770.211C367.306 769.847 367.432 769.539 367.684 769.287C367.936 769.021 368.244 768.888 368.608 768.888C368.972 768.888 369.273 769.021 369.511 769.287C369.763 769.539 369.889 769.847 369.889 770.211C369.889 770.575 369.763 770.883 369.511 771.135C369.273 771.373 368.972 771.492 368.608 771.492ZM370.679 781.089H372.065C372.443 781.089 372.702 780.928 372.842 780.606C372.996 780.284 373.073 779.836 373.073 779.262V772.227C373.073 771.611 372.968 771.156 372.758 770.862C372.562 770.568 372.317 770.337 372.023 770.169C372.065 769.959 372.226 769.735 372.506 769.497C372.8 769.259 373.157 769.14 373.577 769.14C374.123 769.14 374.571 769.35 374.921 769.77C375.285 770.19 375.467 770.792 375.467 771.576V779.325C375.453 780.445 375.18 781.341 374.648 782.013C374.13 782.671 373.423 783 372.527 783H370.679V781.089ZM380.107 783C379.323 783 378.931 782.538 378.931 781.614V772.227C378.931 771.625 378.826 771.177 378.616 770.883C378.42 770.589 378.175 770.351 377.881 770.169C377.923 769.973 378.084 769.756 378.364 769.518C378.644 769.266 379.001 769.14 379.435 769.14C379.981 769.14 380.429 769.357 380.779 769.791C381.129 770.211 381.304 770.806 381.304 771.576V781.635C381.304 782.545 380.905 783 380.107 783ZM407.023 783H404.965C404.685 784.722 403.887 785.975 402.571 786.759C401.269 787.557 399.47 787.956 397.174 787.956C394.094 787.956 391.952 787.361 390.748 786.171C389.558 784.995 388.963 783.546 388.963 781.824C388.963 780.634 389.173 779.626 389.593 778.8C390.013 777.974 390.622 777.561 391.42 777.561C391.742 777.561 392.008 777.631 392.218 777.771C392.442 777.911 392.582 778.065 392.638 778.233C392.288 778.541 391.987 779.045 391.735 779.745C391.483 780.445 391.357 781.222 391.357 782.076C391.357 783.322 391.777 784.295 392.617 784.995C393.471 785.695 394.948 786.045 397.048 786.045C398.896 786.045 400.233 785.772 401.059 785.226C401.885 784.68 402.354 783.938 402.466 783H400.429C399.071 783 398.105 782.517 397.531 781.551C396.971 780.571 396.691 779.29 396.691 777.708C396.691 776.42 396.859 775.433 397.195 774.747C397.545 774.047 398.028 773.571 398.644 773.319C399.274 773.053 400.079 772.92 401.059 772.92C401.997 772.92 402.753 773.046 403.327 773.298C403.901 773.536 404.335 773.984 404.629 774.642C404.923 775.3 405.07 776.252 405.07 777.498V781.089H407.023V783ZM399.085 777.834C399.085 778.646 399.239 779.395 399.547 780.081C399.855 780.753 400.422 781.089 401.248 781.089H402.676V776.511C402.676 775.909 402.522 775.482 402.214 775.23C401.906 774.964 401.535 774.831 401.101 774.831C400.457 774.831 399.96 775.097 399.61 775.629C399.26 776.161 399.085 776.896 399.085 777.834ZM399.505 771.492C399.155 771.492 398.854 771.366 398.602 771.114C398.35 770.862 398.224 770.561 398.224 770.211C398.224 769.847 398.35 769.539 398.602 769.287C398.854 769.021 399.155 768.888 399.505 768.888C399.869 768.888 400.177 769.021 400.429 769.287C400.681 769.539 400.807 769.847 400.807 770.211C400.807 770.575 400.681 770.883 400.429 771.135C400.177 771.373 399.869 771.492 399.505 771.492ZM402.781 771.492C402.417 771.492 402.109 771.366 401.857 771.114C401.605 770.862 401.479 770.561 401.479 770.211C401.479 769.847 401.605 769.539 401.857 769.287C402.109 769.021 402.417 768.888 402.781 768.888C403.145 768.888 403.446 769.021 403.684 769.287C403.936 769.539 404.062 769.847 404.062 770.211C404.062 770.575 403.936 770.883 403.684 771.135C403.446 771.373 403.145 771.492 402.781 771.492ZM414.369 781.089V783H411.765C411.009 783 410.337 782.783 409.749 782.349C409.455 782.559 409.168 782.72 408.888 782.832C408.608 782.93 408.286 782.986 407.922 783H407.019V781.089H407.922C408.454 781.075 408.965 780.921 409.455 780.627V774.138C409.455 773.774 409.553 773.48 409.749 773.256C409.945 773.032 410.246 772.92 410.652 772.92C411.044 772.92 411.338 773.032 411.534 773.256C411.73 773.48 411.828 773.781 411.828 774.159V779.577C411.828 780.025 411.891 780.389 412.017 780.669C412.143 780.949 412.332 781.089 412.584 781.089H414.369ZM409.014 787.347C408.664 787.347 408.363 787.214 408.111 786.948C407.859 786.696 407.733 786.395 407.733 786.045C407.733 785.695 407.859 785.387 408.111 785.121C408.363 784.869 408.664 784.743 409.014 784.743C409.378 784.743 409.686 784.869 409.938 785.121C410.19 785.373 410.316 785.681 410.316 786.045C410.316 786.409 410.19 786.717 409.938 786.969C409.686 787.221 409.378 787.347 409.014 787.347ZM412.29 787.347C411.94 787.347 411.632 787.221 411.366 786.969C411.114 786.717 410.988 786.409 410.988 786.045C410.988 785.695 411.114 785.387 411.366 785.121C411.632 784.869 411.94 784.743 412.29 784.743C412.654 784.743 412.955 784.869 413.193 785.121C413.445 785.373 413.571 785.681 413.571 786.045C413.571 786.409 413.445 786.717 413.193 786.969C412.955 787.221 412.654 787.347 412.29 787.347ZM423.117 772.92C424.041 772.92 424.93 773.081 425.784 773.403C426.652 773.725 427.373 774.271 427.947 775.041C428.521 775.811 428.808 776.819 428.808 778.065C428.808 779.241 428.507 780.361 427.905 781.425C427.317 782.475 426.183 783 424.503 783H414.36V781.089H416.46V776.448C416.46 776.084 416.355 775.755 416.145 775.461C415.949 775.167 415.732 774.957 415.494 774.831C415.606 774.607 415.795 774.411 416.061 774.243C416.341 774.075 416.684 773.991 417.09 773.991C417.762 773.991 418.245 774.257 418.539 774.789C418.903 774.299 419.484 773.865 420.282 773.487C421.094 773.109 422.039 772.92 423.117 772.92ZM424.251 781.089C424.979 781.089 425.518 780.802 425.868 780.228C426.232 779.64 426.414 778.975 426.414 778.233C426.414 777.435 426.232 776.784 425.868 776.28C425.504 775.762 425.042 775.391 424.482 775.167C423.936 774.943 423.369 774.831 422.781 774.831C421.955 774.831 421.164 775.027 420.408 775.419C419.652 775.797 419.134 776.252 418.854 776.784V781.089H424.251ZM422.991 771.555C422.599 771.555 422.263 771.422 421.983 771.156C421.717 770.876 421.584 770.547 421.584 770.169C421.584 769.777 421.717 769.448 421.983 769.182C422.263 768.916 422.599 768.783 422.991 768.783C423.369 768.783 423.691 768.916 423.957 769.182C424.237 769.448 424.377 769.777 424.377 770.169C424.377 770.547 424.237 770.876 423.957 771.156C423.691 771.422 423.369 771.555 422.991 771.555Z" fill="#FF383D"/>
</g>
<path d="M373.332 685.036C422.104 685.036 461.642 724.574 461.642 773.346C461.642 822.121 422.104 861.659 373.332 861.659V905.27" stroke="#FFD6D7" stroke-width="2.4" stroke-miterlimit="10"/>
<path d="M366.069 907.474C366.069 903.462 369.32 900.212 373.332 900.212C377.343 900.212 380.594 903.462 380.594 907.474C380.594 911.483 377.343 914.736 373.332 914.736C369.32 914.736 366.069 911.483 366.069 907.474Z" fill="#F2AEB0"/>
<path d="M478.74 785.228H657.033C666.665 785.228 675.365 779.468 679.127 770.601L735.54 637.627C739.302 628.759 748.001 623 757.634 623H964.808" stroke="#FFB2B1" stroke-width="5" stroke-linejoin="round"/>
<path d="M493.986 785.634C493.986 790.67 489.904 794.753 484.868 794.753C479.832 794.753 475.749 790.67 475.749 785.634C475.749 780.598 479.832 776.516 484.868 776.516C489.904 776.516 493.986 780.598 493.986 785.634Z" fill="#FF383D"/>
<path opacity="0.15" d="M443.268 538.366C443.268 499.356 411.644 467.732 372.634 467.732C333.624 467.732 302 499.356 302 538.366C302 577.376 333.624 609 372.634 609C411.644 609 443.268 577.376 443.268 538.366Z" fill="#FF383D"/>
<path d="M335.665 546H333.607C333.327 547.722 332.529 548.975 331.213 549.759C329.911 550.557 328.112 550.956 325.816 550.956C322.736 550.956 320.594 550.361 319.39 549.171C318.2 547.995 317.605 546.546 317.605 544.824C317.605 543.634 317.815 542.626 318.235 541.8C318.655 540.974 319.264 540.561 320.062 540.561C320.384 540.561 320.65 540.631 320.86 540.771C321.084 540.911 321.224 541.065 321.28 541.233C320.93 541.541 320.629 542.045 320.377 542.745C320.125 543.445 319.999 544.222 319.999 545.076C319.999 546.322 320.419 547.295 321.259 547.995C322.113 548.695 323.59 549.045 325.69 549.045C327.538 549.045 328.875 548.772 329.701 548.226C330.527 547.68 330.996 546.938 331.108 546H329.071C327.713 546 326.747 545.517 326.173 544.551C325.613 543.571 325.333 542.29 325.333 540.708C325.333 539.42 325.501 538.433 325.837 537.747C326.187 537.047 326.67 536.571 327.286 536.319C327.916 536.053 328.721 535.92 329.701 535.92C330.639 535.92 331.395 536.046 331.969 536.298C332.543 536.536 332.977 536.984 333.271 537.642C333.565 538.3 333.712 539.252 333.712 540.498V544.089H335.665V546ZM327.727 540.834C327.727 541.646 327.881 542.395 328.189 543.081C328.497 543.753 329.064 544.089 329.89 544.089H331.318V539.511C331.318 538.909 331.164 538.482 330.856 538.23C330.548 537.964 330.177 537.831 329.743 537.831C329.099 537.831 328.602 538.097 328.252 538.629C327.902 539.161 327.727 539.896 327.727 540.834ZM328.147 534.492C327.797 534.492 327.496 534.366 327.244 534.114C326.992 533.862 326.866 533.561 326.866 533.211C326.866 532.847 326.992 532.539 327.244 532.287C327.496 532.021 327.797 531.888 328.147 531.888C328.511 531.888 328.819 532.021 329.071 532.287C329.323 532.539 329.449 532.847 329.449 533.211C329.449 533.575 329.323 533.883 329.071 534.135C328.819 534.373 328.511 534.492 328.147 534.492ZM331.423 534.492C331.059 534.492 330.751 534.366 330.499 534.114C330.247 533.862 330.121 533.561 330.121 533.211C330.121 532.847 330.247 532.539 330.499 532.287C330.751 532.021 331.059 531.888 331.423 531.888C331.787 531.888 332.088 532.021 332.326 532.287C332.578 532.539 332.704 532.847 332.704 533.211C332.704 533.575 332.578 533.883 332.326 534.135C332.088 534.373 331.787 534.492 331.423 534.492ZM342.654 544.089V546H341.163C340.407 546 339.749 545.818 339.189 545.454C338.741 545.818 338.181 546 337.509 546H335.661V544.089H337.047C337.425 544.089 337.684 543.928 337.824 543.606C337.978 543.284 338.055 542.836 338.055 542.262V535.227C338.055 534.611 337.95 534.156 337.74 533.862C337.544 533.568 337.299 533.337 337.005 533.169C337.047 532.959 337.208 532.735 337.488 532.497C337.782 532.259 338.139 532.14 338.559 532.14C339.105 532.14 339.553 532.35 339.903 532.77C340.267 533.19 340.449 533.792 340.449 534.576V542.325C340.449 542.983 340.351 543.571 340.155 544.089H342.654ZM354.057 544.089V546H353.343C352.475 546 351.775 545.783 351.243 545.349C350.599 545.783 349.843 546 348.975 546H342.654V544.089H348.282C348.66 544.089 349.031 543.998 349.395 543.816C349.773 543.634 350.095 543.319 350.361 542.871C350.627 542.409 350.76 541.807 350.76 541.065C350.76 539.917 350.41 539.091 349.71 538.587C349.024 538.069 348.037 537.81 346.749 537.81H345.048C344.488 537.81 344.061 537.649 343.767 537.327C343.473 536.991 343.312 536.571 343.284 536.067C343.27 535.843 343.291 535.661 343.347 535.521C343.403 535.381 343.473 535.304 343.557 535.29C343.669 535.472 343.893 535.633 344.229 535.773C344.579 535.913 345.013 535.983 345.531 535.983L346.581 535.962L347.757 535.92C348.765 535.92 349.675 536.123 350.487 536.529C351.313 536.921 351.964 537.502 352.44 538.272C352.916 539.042 353.154 539.952 353.154 541.002C353.154 541.52 353.091 542.052 352.965 542.598C352.839 543.13 352.65 543.627 352.398 544.089H354.057ZM354.057 544.089H355.443C355.821 544.089 356.08 543.928 356.22 543.606C356.374 543.284 356.451 542.836 356.451 542.262V535.227C356.451 534.611 356.346 534.156 356.136 533.862C355.94 533.568 355.695 533.337 355.401 533.169C355.443 532.959 355.604 532.735 355.884 532.497C356.178 532.259 356.535 532.14 356.955 532.14C357.501 532.14 357.949 532.35 358.299 532.77C358.663 533.19 358.845 533.792 358.845 534.576V542.325C358.831 543.445 358.558 544.341 358.026 545.013C357.508 545.671 356.801 546 355.905 546H354.057V544.089ZM363.485 546C362.701 546 362.309 545.538 362.309 544.614V535.227C362.309 534.625 362.204 534.177 361.994 533.883C361.798 533.589 361.553 533.351 361.259 533.169C361.301 532.973 361.462 532.756 361.742 532.518C362.022 532.266 362.379 532.14 362.813 532.14C363.359 532.14 363.807 532.357 364.157 532.791C364.507 533.211 364.682 533.806 364.682 534.576V544.635C364.682 545.545 364.283 546 363.485 546ZM383.969 535.92C384.837 535.92 385.586 536.046 386.216 536.298C386.846 536.536 387.364 537.033 387.77 537.789C388.176 538.545 388.379 539.63 388.379 541.044C388.379 542.752 388.057 544.005 387.413 544.803C386.783 545.601 385.789 546 384.431 546H382.709C382.037 546 381.54 546.161 381.218 546.483C380.896 546.805 380.735 547.197 380.735 547.659V549.402C380.735 550.172 380.56 550.767 380.21 551.187C379.86 551.621 379.412 551.838 378.866 551.838C378.432 551.838 378.075 551.712 377.795 551.46C377.515 551.222 377.354 551.005 377.312 550.809C377.606 550.627 377.851 550.389 378.047 550.095C378.257 549.801 378.362 549.353 378.362 548.751V547.68C378.362 547.134 378.481 546.553 378.719 545.937C378.971 545.307 379.405 544.824 380.021 544.488V540.351C380.021 539.161 380.168 538.244 380.462 537.6C380.77 536.956 381.204 536.515 381.764 536.277C382.324 536.039 383.059 535.92 383.969 535.92ZM384.137 544.089C384.893 544.089 385.39 543.767 385.628 543.123C385.866 542.465 385.985 541.737 385.985 540.939C385.985 539.889 385.838 539.112 385.544 538.608C385.25 538.09 384.76 537.831 384.074 537.831C383.598 537.831 383.199 537.964 382.877 538.23C382.555 538.496 382.394 538.93 382.394 539.532V544.089H384.137ZM391.63 546C391.392 546 391.189 545.916 391.021 545.748C390.867 545.566 390.79 545.328 390.79 545.034C390.79 544.754 390.867 544.53 391.021 544.362C391.189 544.18 391.399 544.089 391.651 544.089H394.192V538.188C394.192 537.572 394.087 537.117 393.877 536.823C393.681 536.529 393.436 536.298 393.142 536.13C393.184 535.92 393.345 535.696 393.625 535.458C393.919 535.22 394.276 535.101 394.696 535.101C395.242 535.101 395.69 535.311 396.04 535.731C396.404 536.151 396.586 536.753 396.586 537.537V544.089H398.686C399.106 544.089 399.428 543.921 399.652 543.585C399.876 543.235 399.988 542.794 399.988 542.262V535.227C399.988 534.611 399.883 534.156 399.673 533.862C399.477 533.568 399.232 533.337 398.938 533.169C398.98 532.959 399.141 532.735 399.421 532.497C399.715 532.259 400.072 532.14 400.492 532.14C401.038 532.14 401.486 532.35 401.836 532.77C402.2 533.19 402.382 533.792 402.382 534.576V542.325C402.368 543.445 402.095 544.341 401.563 545.013C401.045 545.671 400.338 546 399.442 546H391.63ZM407.023 546C406.239 546 405.847 545.538 405.847 544.614V535.227C405.847 534.625 405.742 534.177 405.532 533.883C405.336 533.589 405.091 533.351 404.797 533.169C404.839 532.973 405 532.756 405.28 532.518C405.56 532.266 405.917 532.14 406.351 532.14C406.897 532.14 407.345 532.357 407.695 532.791C408.045 533.211 408.22 533.806 408.22 534.576V544.635C408.22 545.545 407.821 546 407.023 546Z" fill="#FF383D"/>
<path d="M373.973 450.026C325.2 450.026 285.663 489.563 285.663 538.338C285.663 587.111 325.2 626.648 373.973 626.648V670.262" stroke="#FFD6D7" stroke-width="2.4" stroke-miterlimit="10"/>
<path d="M381.433 672.545C381.433 668.533 378.182 665.283 374.17 665.283C370.161 665.283 366.908 668.533 366.908 672.545C366.908 676.557 370.161 679.807 374.17 679.807C378.182 679.807 381.433 676.557 381.433 672.545Z" fill="#F2AEB0"/>
<path d="M474.511 553.07H677.822C685.243 553.07 692.246 549.638 696.792 543.772L739.528 488.629C744.074 482.763 751.077 479.331 758.498 479.331H915.721" stroke="#FFB2B1" stroke-width="5" stroke-linejoin="round"/>
<path d="M484.761 553.586C484.761 558.622 480.678 562.704 475.642 562.704C470.606 562.704 466.524 558.622 466.524 553.586C466.524 548.55 470.606 544.468 475.642 544.468C480.678 544.468 484.761 548.55 484.761 553.586Z" fill="#FF383D"/>
<path opacity="0.13" d="M1444 750.366C1444 711.356 1412.38 679.732 1373.37 679.732C1334.36 679.732 1302.74 711.356 1302.74 750.366C1302.74 789.376 1334.36 821 1373.37 821C1412.38 821 1444 789.376 1444 750.366Z" fill="#FF383D"/>
<path d="M1335.02 759.198C1333.52 759.198 1332.42 758.751 1331.72 757.856C1331.01 756.961 1330.66 755.605 1330.66 753.786C1330.66 752.011 1331.01 750.677 1331.69 749.782C1332.38 748.887 1333.49 748.44 1335.02 748.44C1336.56 748.44 1337.67 748.887 1338.36 749.782C1339.05 750.677 1339.39 752.011 1339.39 753.786C1339.39 755.59 1339.04 756.947 1338.32 757.856C1337.61 758.751 1336.51 759.198 1335.02 759.198ZM1335.02 757.196C1336.26 757.196 1336.89 756.023 1336.89 753.676C1336.89 752.796 1336.76 752.041 1336.51 751.41C1336.28 750.765 1335.78 750.442 1335.02 750.442C1334.28 750.442 1333.79 750.757 1333.54 751.388C1333.29 752.019 1333.17 752.789 1333.17 753.698C1333.17 756.03 1333.78 757.196 1335.02 757.196ZM1333.32 746.944C1332.96 746.944 1332.64 746.812 1332.38 746.548C1332.11 746.284 1331.98 745.969 1331.98 745.602C1331.98 745.221 1332.11 744.898 1332.38 744.634C1332.64 744.355 1332.96 744.216 1333.32 744.216C1333.7 744.216 1334.03 744.355 1334.29 744.634C1334.55 744.898 1334.69 745.221 1334.69 745.602C1334.69 745.983 1334.55 746.306 1334.29 746.57C1334.03 746.819 1333.7 746.944 1333.32 746.944ZM1336.75 746.944C1336.37 746.944 1336.05 746.812 1335.79 746.548C1335.52 746.284 1335.39 745.969 1335.39 745.602C1335.39 745.221 1335.52 744.898 1335.79 744.634C1336.05 744.355 1336.37 744.216 1336.75 744.216C1337.14 744.216 1337.45 744.355 1337.7 744.634C1337.96 744.898 1338.1 745.221 1338.1 745.602C1338.1 745.983 1337.96 746.306 1337.7 746.57C1337.45 746.819 1337.14 746.944 1336.75 746.944ZM1348.53 759H1346.38V760.276C1346.38 761.171 1346.11 762.021 1345.58 762.828C1345.06 763.635 1344.11 764.038 1342.75 764.038C1342.04 764.038 1341.47 763.913 1341.03 763.664C1340.59 763.429 1340.28 763.136 1340.11 762.784C1339.92 762.447 1339.83 762.124 1339.86 761.816C1340.11 761.977 1340.42 762.109 1340.79 762.212C1341.15 762.329 1341.51 762.388 1341.84 762.388C1342.46 762.388 1342.95 762.227 1343.32 761.904C1343.7 761.581 1343.89 761.178 1343.89 760.694V749.628C1343.89 749.247 1344.01 748.953 1344.24 748.748C1344.48 748.543 1344.78 748.44 1345.14 748.44C1345.51 748.44 1345.8 748.543 1346.02 748.748C1346.26 748.953 1346.38 749.254 1346.38 749.65V756.998H1348.53V759ZM1348.52 756.998H1350.33C1350.99 756.998 1351.46 756.653 1351.76 755.964C1352.07 755.275 1352.22 754.446 1352.22 753.478C1352.22 752.51 1352.09 751.718 1351.85 751.102C1351.6 750.471 1351.17 749.907 1350.57 749.408C1350.63 749.173 1350.78 748.953 1351.03 748.748C1351.3 748.543 1351.65 748.44 1352.11 748.44C1352.99 748.44 1353.64 748.851 1354.07 749.672C1354.49 750.493 1354.71 751.557 1354.71 752.862C1354.71 753.918 1354.56 754.915 1354.27 755.854C1353.97 756.778 1353.49 757.533 1352.81 758.12C1352.15 758.707 1351.31 759 1350.28 759H1348.52V756.998ZM1350.35 763.554C1349.98 763.554 1349.67 763.415 1349.4 763.136C1349.14 762.872 1349.01 762.557 1349.01 762.19C1349.01 761.823 1349.14 761.501 1349.4 761.222C1349.67 760.958 1349.98 760.826 1350.35 760.826C1350.73 760.826 1351.05 760.958 1351.32 761.222C1351.58 761.486 1351.71 761.809 1351.71 762.19C1351.71 762.571 1351.58 762.894 1351.32 763.158C1351.05 763.422 1350.73 763.554 1350.35 763.554ZM1353.78 763.554C1353.41 763.554 1353.09 763.422 1352.81 763.158C1352.55 762.894 1352.42 762.571 1352.42 762.19C1352.42 761.823 1352.55 761.501 1352.81 761.222C1353.09 760.958 1353.41 760.826 1353.78 760.826C1354.16 760.826 1354.48 760.958 1354.73 761.222C1354.99 761.486 1355.12 761.809 1355.12 762.19C1355.12 762.571 1354.99 762.894 1354.73 763.158C1354.48 763.422 1354.16 763.554 1353.78 763.554ZM1363.83 759H1361.67V760.276C1361.67 761.171 1361.41 762.021 1360.88 762.828C1360.35 763.635 1359.41 764.038 1358.04 764.038C1357.34 764.038 1356.77 763.913 1356.33 763.664C1355.89 763.429 1355.58 763.136 1355.4 762.784C1355.21 762.447 1355.13 762.124 1355.16 761.816C1355.41 761.977 1355.72 762.109 1356.08 762.212C1356.45 762.329 1356.8 762.388 1357.14 762.388C1357.76 762.388 1358.25 762.227 1358.61 761.904C1359 761.581 1359.19 761.178 1359.19 760.694V749.628C1359.19 749.247 1359.3 748.953 1359.54 748.748C1359.77 748.543 1360.07 748.44 1360.44 748.44C1360.81 748.44 1361.1 748.543 1361.32 748.748C1361.56 748.953 1361.67 749.254 1361.67 749.65V756.998H1363.83V759ZM1376.34 756.998V759H1374.56C1373.91 759 1373.36 758.883 1372.91 758.648C1372.41 758.883 1371.86 759 1371.26 759H1363.82V756.998H1368.84L1364.41 750.992C1364.55 750.596 1364.82 750.207 1365.23 749.826C1365.64 749.43 1366.2 749.1 1366.9 748.836C1367.62 748.572 1368.45 748.44 1369.39 748.44C1370.57 748.44 1371.62 748.645 1372.53 749.056C1373.46 749.452 1374.17 750.024 1374.69 750.772C1375.2 751.52 1375.46 752.407 1375.46 753.434C1375.46 753.947 1375.38 754.534 1375.24 755.194C1375.11 755.839 1374.89 756.441 1374.58 756.998H1376.34ZM1371.32 756.756C1371.92 756.477 1372.35 756.015 1372.6 755.37C1372.85 754.71 1372.97 754.087 1372.97 753.5C1372.97 752.576 1372.63 751.843 1371.96 751.3C1371.3 750.743 1370.46 750.464 1369.43 750.464C1368.52 750.464 1367.78 750.713 1367.21 751.212L1371.32 756.756ZM1398.65 756.998V759H1395.6C1394.7 759 1393.98 758.787 1393.42 758.362C1392.76 758.787 1391.95 759 1391 759H1390.73C1389.99 759 1389.34 758.897 1388.8 758.692C1388.27 758.487 1387.79 758.164 1387.37 757.724C1387.12 758.076 1386.8 758.377 1386.42 758.626C1386.06 758.875 1385.62 759 1385.1 759H1382.31C1381.47 759 1380.72 758.743 1380.06 758.23C1379.73 758.494 1379.4 758.692 1379.07 758.824C1378.77 758.941 1378.41 759 1378 759H1376.35V756.998H1377.45C1378.37 756.998 1378.83 756.411 1378.83 755.238V750.992C1378.83 750.567 1378.91 750.237 1379.07 750.002C1379.25 749.767 1379.58 749.65 1380.06 749.65C1380.55 749.65 1380.88 749.767 1381.05 750.002C1381.23 750.237 1381.32 750.567 1381.32 750.992V755.172C1381.32 755.773 1381.38 756.228 1381.52 756.536C1381.66 756.829 1381.9 756.983 1382.24 756.998H1384.29C1384.82 756.998 1385.18 756.837 1385.39 756.514C1385.59 756.177 1385.7 755.773 1385.7 755.304V750.486C1385.7 750.017 1385.81 749.672 1386.05 749.452C1386.3 749.232 1386.61 749.122 1386.97 749.122C1387.32 749.122 1387.62 749.232 1387.85 749.452C1388.09 749.657 1388.2 750.002 1388.2 750.486V754.798C1388.2 756.265 1388.57 756.998 1389.3 756.998H1391.15C1391.81 756.998 1392.3 756.646 1392.6 755.942C1392.91 755.238 1393.07 754.475 1393.07 753.654C1393.07 752.671 1392.91 751.806 1392.6 751.058C1392.31 750.295 1391.89 749.731 1391.33 749.364C1391.4 749.115 1391.56 748.902 1391.81 748.726C1392.06 748.535 1392.41 748.44 1392.85 748.44C1393.74 748.44 1394.42 748.865 1394.87 749.716C1395.32 750.567 1395.55 751.711 1395.55 753.148C1395.55 754.732 1395.27 756.015 1394.69 756.998H1398.65ZM1386.86 741.4C1387.2 741.4 1387.49 741.525 1387.74 741.774C1387.99 742.009 1388.12 742.302 1388.12 742.654C1388.12 743.006 1387.99 743.307 1387.74 743.556C1387.49 743.805 1387.2 743.93 1386.86 743.93C1386.51 743.93 1386.21 743.805 1385.96 743.556C1385.73 743.307 1385.61 743.006 1385.61 742.654C1385.61 742.302 1385.73 742.009 1385.96 741.774C1386.19 741.525 1386.5 741.4 1386.86 741.4ZM1385.15 744.282C1385.53 744.282 1385.85 744.414 1386.11 744.678C1386.38 744.942 1386.51 745.265 1386.51 745.646C1386.51 746.027 1386.38 746.35 1386.11 746.614C1385.85 746.878 1385.53 747.01 1385.15 747.01C1384.78 747.01 1384.46 746.878 1384.2 746.614C1383.94 746.335 1383.8 746.013 1383.8 745.646C1383.8 745.279 1383.94 744.964 1384.2 744.7C1384.46 744.421 1384.78 744.282 1385.15 744.282ZM1388.58 744.282C1388.96 744.282 1389.27 744.414 1389.52 744.678C1389.79 744.942 1389.92 745.265 1389.92 745.646C1389.92 746.027 1389.79 746.35 1389.52 746.614C1389.27 746.878 1388.96 747.01 1388.58 747.01C1388.21 747.01 1387.89 746.878 1387.61 746.614C1387.35 746.335 1387.21 746.013 1387.21 745.646C1387.21 745.265 1387.35 744.942 1387.61 744.678C1387.89 744.414 1388.21 744.282 1388.58 744.282ZM1404.7 748.44C1405.69 748.44 1406.5 748.557 1407.12 748.792C1407.75 749.027 1408.23 749.474 1408.57 750.134C1408.92 750.794 1409.1 751.74 1409.1 752.972V755.92C1409.1 756.859 1408.86 757.607 1408.39 758.164C1407.92 758.721 1407.2 759 1406.24 759H1398.65V756.998H1401.09C1400.56 756.147 1400.3 754.981 1400.3 753.5C1400.3 752.063 1400.49 750.977 1400.89 750.244C1401.3 749.496 1401.81 749.012 1402.43 748.792C1403.06 748.557 1403.82 748.44 1404.7 748.44ZM1406.59 752.202C1406.59 751.557 1406.43 751.102 1406.1 750.838C1405.78 750.559 1405.39 750.42 1404.92 750.42C1404.26 750.42 1403.74 750.699 1403.35 751.256C1402.99 751.799 1402.8 752.554 1402.8 753.522C1402.8 754.329 1402.95 755.113 1403.24 755.876C1403.55 756.624 1404.08 756.998 1404.83 756.998H1405.29C1405.76 756.998 1406.09 756.866 1406.28 756.602C1406.49 756.323 1406.59 755.876 1406.59 755.26V752.202ZM1403.27 746.944C1402.9 746.944 1402.58 746.812 1402.32 746.548C1402.06 746.284 1401.92 745.969 1401.92 745.602C1401.92 745.221 1402.06 744.898 1402.32 744.634C1402.58 744.355 1402.9 744.216 1403.27 744.216C1403.65 744.216 1403.97 744.355 1404.23 744.634C1404.5 744.898 1404.63 745.221 1404.63 745.602C1404.63 745.983 1404.5 746.306 1404.23 746.57C1403.97 746.819 1403.65 746.944 1403.27 746.944ZM1406.7 746.944C1406.32 746.944 1405.99 746.812 1405.73 746.548C1405.47 746.284 1405.33 745.969 1405.33 745.602C1405.33 745.221 1405.47 744.898 1405.73 744.634C1405.99 744.355 1406.32 744.216 1406.7 744.216C1407.08 744.216 1407.4 744.355 1407.64 744.634C1407.91 744.898 1408.04 745.221 1408.04 745.602C1408.04 745.983 1407.91 746.306 1407.64 746.57C1407.4 746.819 1407.08 746.944 1406.7 746.944Z" fill="#FA5652"/>
<path d="M1373.87 663.801C1325.1 663.801 1285.56 703.339 1285.56 752.111C1285.56 800.886 1325.1 840.424 1373.87 840.424V884.035" stroke="#FFD6D7" stroke-width="2.4" stroke-miterlimit="10"/>
<path d="M1381.13 886.239C1381.13 882.227 1377.88 878.976 1373.86 878.976C1369.85 878.976 1366.6 882.227 1366.6 886.239C1366.6 890.248 1369.85 893.501 1373.86 893.501C1377.88 893.501 1381.13 890.248 1381.13 886.239Z" fill="#F2AEB0"/>
<path d="M1009.74 804.401H1100.85C1108.12 804.401 1115.01 801.098 1119.56 795.421L1145.1 763.605C1149.65 757.929 1156.54 754.626 1163.81 754.626H1258" stroke="#FFA6A6" stroke-width="5" stroke-linejoin="round"/>
<path d="M1263.94 753.913C1263.94 758.949 1259.86 763.031 1254.82 763.031C1249.79 763.031 1245.71 758.949 1245.71 753.913C1245.71 748.877 1249.79 744.794 1254.82 744.794C1259.86 744.794 1263.94 748.877 1263.94 753.913Z" fill="#FF383D"/>
<path opacity="0.15" d="M1444 264.366C1444 225.356 1412.38 193.732 1373.37 193.732C1334.36 193.732 1302.74 225.356 1302.74 264.366C1302.74 303.376 1334.36 335 1373.37 335C1412.38 335 1444 303.376 1444 264.366Z" fill="#FF383D"/>
<path d="M1345.77 261.92C1346.63 261.92 1347.29 262.326 1347.72 263.138C1348.15 263.95 1348.37 265.042 1348.37 266.414C1348.37 267.814 1348.07 269.095 1347.47 270.257C1346.87 271.419 1345.72 272 1344.02 272H1343.75C1343.04 272 1342.42 271.902 1341.9 271.706C1341.4 271.51 1340.94 271.202 1340.54 270.782C1340.31 271.118 1340.01 271.405 1339.63 271.643C1339.27 271.881 1338.84 272 1338.35 272H1336.48C1335.85 271.986 1335.29 271.79 1334.78 271.412C1334.76 272.784 1334.56 273.897 1334.2 274.751C1333.83 275.619 1333.24 276.263 1332.43 276.683C1331.62 277.117 1330.53 277.334 1329.16 277.334C1327.21 277.334 1325.77 276.858 1324.85 275.906C1323.93 274.968 1323.46 273.456 1323.46 271.37C1323.46 269.522 1323.73 268.227 1324.26 267.485C1324.79 266.743 1325.44 266.372 1326.19 266.372C1326.56 266.372 1326.87 266.449 1327.12 266.603C1327.38 266.757 1327.56 266.925 1327.64 267.107C1327.18 267.499 1326.76 268.136 1326.38 269.018C1326.01 269.9 1325.82 270.894 1325.82 272C1325.82 272.994 1325.97 273.757 1326.28 274.289C1326.59 274.821 1326.98 275.171 1327.45 275.339C1327.93 275.521 1328.5 275.619 1329.16 275.633C1329.94 275.633 1330.56 275.493 1331.02 275.213C1331.5 274.933 1331.84 274.471 1332.05 273.827C1332.28 273.183 1332.39 272.315 1332.39 271.223V264.356C1332.39 263.95 1332.47 263.635 1332.64 263.411C1332.81 263.187 1333.12 263.075 1333.59 263.075C1334.05 263.075 1334.36 263.187 1334.53 263.411C1334.7 263.635 1334.78 263.95 1334.78 264.356V268.346C1334.78 268.92 1334.85 269.354 1334.97 269.648C1335.1 269.928 1335.33 270.075 1335.67 270.089H1337.6C1338.12 270.089 1338.47 269.935 1338.67 269.627C1338.86 269.305 1338.96 268.92 1338.96 268.472V263.873C1338.96 263.425 1339.07 263.096 1339.3 262.886C1339.52 262.676 1339.8 262.571 1340.14 262.571C1340.47 262.571 1340.75 262.676 1340.98 262.886C1341.22 263.096 1341.34 263.425 1341.34 263.873V267.989C1341.34 269.389 1341.69 270.089 1342.39 270.089H1344.17C1344.8 270.089 1345.26 269.753 1345.54 269.081C1345.83 268.395 1345.98 267.653 1345.98 266.855C1345.98 265.917 1345.83 265.098 1345.54 264.398C1345.24 263.684 1344.84 263.152 1344.32 262.802C1344.39 262.564 1344.54 262.361 1344.78 262.193C1345.02 262.011 1345.35 261.92 1345.77 261.92ZM1353.02 272C1352.24 272 1351.84 271.538 1351.84 270.614V261.227C1351.84 260.625 1351.74 260.177 1351.53 259.883C1351.33 259.589 1351.09 259.351 1350.79 259.169C1350.84 258.973 1351 258.756 1351.28 258.518C1351.56 258.266 1351.91 258.14 1352.35 258.14C1352.89 258.14 1353.34 258.357 1353.69 258.791C1354.04 259.211 1354.22 259.806 1354.22 260.576V270.635C1354.22 271.545 1353.82 272 1353.02 272ZM1362.61 272H1360.55V273.218C1360.55 274.072 1360.3 274.884 1359.8 275.654C1359.29 276.424 1358.39 276.809 1357.09 276.809C1356.42 276.809 1355.87 276.69 1355.45 276.452C1355.03 276.228 1354.74 275.948 1354.57 275.612C1354.39 275.29 1354.31 274.982 1354.34 274.688C1354.57 274.842 1354.87 274.968 1355.22 275.066C1355.57 275.178 1355.9 275.234 1356.23 275.234C1356.81 275.234 1357.28 275.08 1357.63 274.772C1358 274.464 1358.18 274.079 1358.18 273.617V263.054C1358.18 262.69 1358.29 262.41 1358.52 262.214C1358.74 262.018 1359.03 261.92 1359.38 261.92C1359.73 261.92 1360.01 262.018 1360.22 262.214C1360.44 262.41 1360.55 262.697 1360.55 263.075V270.089H1362.61V272ZM1362.6 270.089H1363.99C1364.37 270.089 1364.63 269.928 1364.77 269.606C1364.92 269.284 1365 268.836 1365 268.262V261.227C1365 260.611 1364.89 260.156 1364.68 259.862C1364.49 259.568 1364.24 259.337 1363.95 259.169C1363.99 258.959 1364.15 258.735 1364.43 258.497C1364.72 258.259 1365.08 258.14 1365.5 258.14C1366.05 258.14 1366.49 258.35 1366.84 258.77C1367.21 259.19 1367.39 259.792 1367.39 260.576V268.325C1367.38 269.445 1367.1 270.341 1366.57 271.013C1366.05 271.671 1365.35 272 1364.45 272H1362.6V270.089ZM1372.03 272C1371.25 272 1370.85 271.538 1370.85 270.614V261.227C1370.85 260.625 1370.75 260.177 1370.54 259.883C1370.34 259.589 1370.1 259.351 1369.8 259.169C1369.85 258.973 1370.01 258.756 1370.29 258.518C1370.57 258.266 1370.92 258.14 1371.36 258.14C1371.9 258.14 1372.35 258.357 1372.7 258.791C1373.05 259.211 1373.23 259.806 1373.23 260.576V270.635C1373.23 271.545 1372.83 272 1372.03 272ZM1389.03 270.089C1389.31 270.089 1389.51 270.194 1389.62 270.404C1389.73 270.6 1389.79 270.81 1389.79 271.034C1389.79 271.272 1389.73 271.496 1389.62 271.706C1389.51 271.902 1389.31 272 1389.03 272H1383.01C1383.01 273.204 1383.15 274.233 1383.45 275.087C1383.76 275.941 1384.17 276.557 1384.69 276.935C1384.62 277.103 1384.46 277.25 1384.2 277.376C1383.97 277.516 1383.69 277.586 1383.36 277.586C1382.75 277.586 1382.25 277.348 1381.87 276.872C1381.51 276.41 1381.25 275.857 1381.1 275.213C1380.96 274.583 1380.89 273.974 1380.89 273.386C1380.89 272.49 1381.05 271.776 1381.39 271.244C1381.73 270.712 1382.18 270.369 1382.76 270.215C1382.45 269.725 1382.19 269.179 1381.98 268.577C1381.78 267.975 1381.68 267.359 1381.68 266.729C1381.68 265.805 1381.9 264.979 1382.34 264.251C1382.78 263.523 1383.36 262.956 1384.08 262.55C1384.79 262.13 1385.54 261.92 1386.33 261.92C1386.79 261.92 1387.28 261.99 1387.8 262.13C1388.31 262.27 1388.75 262.515 1389.12 262.865C1389.48 263.201 1389.66 263.649 1389.66 264.209C1389.66 264.685 1389.53 265.049 1389.27 265.301C1389.01 265.539 1388.71 265.658 1388.36 265.658C1388.03 265.658 1387.68 265.588 1387.31 265.448C1387.31 264.468 1386.93 263.887 1386.16 263.705C1385.6 263.789 1385.11 264.118 1384.69 264.692C1384.28 265.252 1384.08 265.945 1384.08 266.771C1384.08 267.737 1384.37 268.535 1384.96 269.165C1385.55 269.781 1386.47 270.089 1387.73 270.089H1389.03ZM1394.43 272C1393.64 272 1393.25 271.538 1393.25 270.614V261.227C1393.25 260.625 1393.14 260.177 1392.93 259.883C1392.74 259.589 1392.49 259.351 1392.2 259.169C1392.24 258.973 1392.4 258.756 1392.68 258.518C1392.96 258.266 1393.32 258.14 1393.75 258.14C1394.3 258.14 1394.75 258.357 1395.1 258.791C1395.45 259.211 1395.62 259.806 1395.62 260.576V270.635C1395.62 271.545 1395.22 272 1394.43 272ZM1408.09 270.089V272H1405.93C1405.09 272 1404.4 271.804 1403.87 271.412C1403.27 271.804 1402.58 272 1401.81 272H1398.66C1398.38 272 1398.19 271.902 1398.07 271.706C1397.96 271.496 1397.91 271.279 1397.91 271.055C1397.91 270.817 1397.96 270.6 1398.07 270.404C1398.2 270.194 1398.42 270.089 1398.75 270.089H1399.98C1401.24 270.089 1402.16 269.788 1402.74 269.186C1403.32 268.57 1403.62 267.786 1403.62 266.834C1403.62 265.98 1403.41 265.266 1403.01 264.692C1402.6 264.104 1402.11 263.775 1401.52 263.705C1401.17 263.803 1400.89 263.999 1400.68 264.293C1400.47 264.587 1400.36 265.007 1400.36 265.553C1400.08 265.637 1399.79 265.679 1399.48 265.679C1399.34 265.679 1399.24 265.672 1399.19 265.658C1398.86 265.63 1398.59 265.497 1398.37 265.259C1398.14 265.021 1398.03 264.692 1398.03 264.272C1398.03 263.74 1398.21 263.299 1398.58 262.949C1398.96 262.585 1399.41 262.326 1399.94 262.172C1400.47 262.004 1400.98 261.92 1401.45 261.92C1402.21 261.92 1402.94 262.13 1403.64 262.55C1404.34 262.97 1404.91 263.544 1405.34 264.272C1405.79 265 1406.01 265.805 1406.01 266.687C1406.01 267.205 1405.93 267.772 1405.78 268.388C1405.64 269.004 1405.41 269.571 1405.09 270.089H1408.09ZM1401.96 263.642C1401.86 263.642 1401.79 263.649 1401.75 263.663L1401.96 263.642ZM1416.85 261.92C1417.77 261.92 1418.66 262.081 1419.51 262.403C1420.38 262.725 1421.1 263.271 1421.68 264.041C1422.25 264.811 1422.54 265.819 1422.54 267.065C1422.54 268.241 1422.24 269.361 1421.63 270.425C1421.05 271.475 1419.91 272 1418.23 272H1408.09V270.089H1410.19V265.448C1410.19 265.084 1410.08 264.755 1409.87 264.461C1409.68 264.167 1409.46 263.957 1409.22 263.831C1409.33 263.607 1409.52 263.411 1409.79 263.243C1410.07 263.075 1410.41 262.991 1410.82 262.991C1411.49 262.991 1411.97 263.257 1412.27 263.789C1412.63 263.299 1413.21 262.865 1414.01 262.487C1414.82 262.109 1415.77 261.92 1416.85 261.92ZM1417.98 270.089C1418.71 270.089 1419.25 269.802 1419.6 269.228C1419.96 268.64 1420.14 267.975 1420.14 267.233C1420.14 266.435 1419.96 265.784 1419.6 265.28C1419.23 264.762 1418.77 264.391 1418.21 264.167C1417.66 263.943 1417.1 263.831 1416.51 263.831C1415.68 263.831 1414.89 264.027 1414.14 264.419C1413.38 264.797 1412.86 265.252 1412.58 265.784V270.089H1417.98Z" fill="#FF383D"/>
<path d="M1373.87 177.65C1325.1 177.65 1285.56 217.188 1285.56 265.96C1285.56 314.732 1325.1 354.273 1373.87 354.273V397.884" stroke="#FFD6D7" stroke-width="2.4" stroke-miterlimit="10"/>
<path d="M1381.13 400.087C1381.13 396.075 1377.88 392.825 1373.87 392.825C1369.86 392.825 1366.61 396.075 1366.61 400.087C1366.61 404.099 1369.86 407.349 1373.87 407.349C1377.88 407.349 1381.13 404.099 1381.13 400.087Z" fill="#F2AEB0"/>
<path d="M1259.84 272.859H1133.56C1127.44 272.859 1121.56 275.195 1117.1 279.39L1088.57 306.271C1084.11 310.466 1078.23 312.802 1072.11 312.802H958.12" stroke="#FFB2B1" stroke-width="5" stroke-linejoin="round"/>
<path d="M1263.94 272.146C1263.94 277.182 1259.86 281.264 1254.82 281.264C1249.79 281.264 1245.7 277.182 1245.7 272.146C1245.7 267.11 1249.79 263.027 1254.82 263.027C1259.86 263.027 1263.94 267.11 1263.94 272.146Z" fill="#FF383D"/>
<path d="M1725.16 778.124C1693.8 775.688 1663.63 778.779 1634.37 792.922C1601.76 808.688 1579.85 846.084 1570.9 879.913C1567.57 892.479 1565.86 905.979 1569.88 918.335C1579.19 946.877 1607.44 942.751 1629.42 931.82C1641.81 925.665 1652.22 916.436 1662.52 907.302C1679.61 892.131 1701.46 881.054 1715.49 862.624C1720.19 856.427 1723.16 849.7 1729.16 844.497C1738.5 836.4 1750.09 830.645 1759.84 822.938C1768.16 816.338 1776.88 806.815 1774.14 796.568C1771.32 786.063 1758.54 782.318 1747.78 780.728C1740.15 779.583 1732.63 778.693 1725.16 778.124Z" fill="url(#paint5_linear)"/>
<path d="M108.78 706.506C122.117 713.318 171.374 728.448 163.79 697.135C161.89 689.337 156.346 682.765 150.033 678.383C142.804 673.349 135.68 671.607 129.36 665.175C121.66 657.427 113.386 650.425 104.645 644.259C86.6963 631.361 66.8278 620.33 45.8883 618.678C31.2028 617.525 8.84368 624.849 7.11542 643.738C4.59196 671.236 45.4726 665.113 60.022 670.959C73.8237 676.483 84.3216 689.544 96.59 698.864C100.465 701.802 104.545 704.36 108.78 706.506Z" fill="url(#paint6_linear)"/>
<defs>
<filter id="filter0_d" x="316.365" y="768.783" width="112.443" height="19.551" filterUnits="userSpaceOnUse" color-interpolation-filters="sRGB">
<feFlood flood-opacity="0" result="BackgroundImageFix"/>
<feColorMatrix in="SourceAlpha" type="matrix" values="0 0 0 0 0 0 0 0 0 0 0 0 0 0 0 0 0 0 127 0"/>
<feOffset/>
<feColorMatrix type="matrix" values="0 0 0 0 0 0 0 0 0 0 0 0 0 0 0 0 0 0 0.1 0"/>
<feBlend mode="normal" in2="BackgroundImageFix" result="effect1_dropShadow"/>
<feBlend mode="normal" in="SourceGraphic" in2="effect1_dropShadow" result="shape"/>
</filter>
<linearGradient id="paint0_linear" x1="563.615" y1="701.802" x2="627.866" y2="830.175" gradientUnits="userSpaceOnUse">
<stop stop-color="#FFC8C8"/>
<stop offset="1" stop-color="#FFF2F5"/>
</linearGradient>
<linearGradient id="paint1_linear" x1="1195.18" y1="298.499" x2="673.511" y2="88.2373" gradientUnits="userSpaceOnUse">
<stop stop-color="white"/>
<stop offset="1" stop-color="#FFD5D5"/>
</linearGradient>
<linearGradient id="paint2_linear" x1="1127.95" y1="203.536" x2="966.873" y2="176.967" gradientUnits="userSpaceOnUse">
<stop stop-color="#FFD3D3"/>
<stop offset="1" stop-color="#FFF6F6"/>
</linearGradient>
<linearGradient id="paint3_linear" x1="489.431" y1="478.025" x2="1246.77" y2="478.025" gradientUnits="userSpaceOnUse">
<stop stop-color="#FFF8F5"/>
<stop offset="1" stop-color="#FFDEDE"/>
</linearGradient>
<linearGradient id="paint4_linear" x1="1177.01" y1="659.535" x2="978.623" y2="677.818" gradientUnits="userSpaceOnUse">
<stop stop-color="#FFC2C2"/>
<stop offset="1" stop-color="white"/>
</linearGradient>
<linearGradient id="paint5_linear" x1="1710.07" y1="774.796" x2="1600.45" y2="883.245" gradientUnits="userSpaceOnUse">
<stop stop-color="#FFD3D2"/>
<stop offset="1" stop-color="#FFFAFA"/>
</linearGradient>
<linearGradient id="paint6_linear" x1="164.736" y1="696.295" x2="-11.8229" y2="671.419" gradientUnits="userSpaceOnUse">
<stop stop-color="#FFE1E2"/>
<stop offset="1" stop-color="#FFF8F8"/>
</linearGradient>
</defs>
</svg>
