<?xml version="1.0" encoding="utf-8"?>
<!-- Generator: Adobe Illustrator 24.1.0, SVG Export Plug-In . SVG Version: 6.00 Build 0)  -->
<svg version="1.1" id="Layer_1" xmlns="http://www.w3.org/2000/svg" xmlns:xlink="http://www.w3.org/1999/xlink" x="0px" y="0px"
	 viewBox="0 0 1018.9 691" style="enable-background:new 0 0 1018.9 691;" xml:space="preserve">
<style type="text/css">
	.st0{fill:#FFFFFF;}
	.st1{fill:none;stroke:#F44A45;stroke-width:2.67;stroke-linecap:round;stroke-linejoin:round;}
	.st2{fill:#F7B66B;}
	.st3{fill:#F44A45;}
	.st4{fill:#167C51;}
	.st5{fill:#035755;}
	.st6{fill:#0C6C44;}
	.st7{fill:#41294A;}
	.st8{fill:#FA5652;}
	.st9{fill:#DA5C5D;}
	.st10{fill:#FF5476;}
	.st11{fill:none;stroke:#A2A5B2;stroke-linecap:round;}
	.st12{fill:none;stroke:#687089;stroke-width:1.5;stroke-linecap:round;stroke-linejoin:round;}
	.st13{fill:#A2A5B2;}
</style>
<g>
	<path class="st0" d="M930.2,69h67.7c2.3,0,4.2,1.9,4.2,4.2v64.7c0,2.3-1.9,4.2-4.2,4.2h-67.7c-2.3,0-4.2-1.9-4.2-4.2V73.2
		C926,70.9,927.9,69,930.2,69z"/>
</g>
<path class="st1" d="M961.6,114.1c6.4,0,11.6-5.2,11.6-11.6c0-6.4-5.2-11.6-11.6-11.6c-6.4,0-11.6,5.2-11.6,11.6
	C950,109,955.2,114.1,961.6,114.1z"/>
<path class="st1" d="M978.9,119.9l-9.2-9.2"/>
<path class="st2" d="M1348.3,462.5h-15.6v13.2h15.6V462.5z"/>
<path class="st3" d="M800.6,618.3c0,0-2.4,0,0-11.8c2.4-11.8,2.4-29.8,7.1-35.3c4.7-5.5,20.4-11.8,32.2-18.1
	c11.8-6.3,18.8-14.1,23.6-14.1s3.1,7.1,9.4,0c6.3-7.1,7.1-0.8,13.4,0l6.3,0.8c0,0-1.6,6.3,0,10.2c1.6,3.9,3.9,4.7,9.4,3.1
	c5.5-1.6,12.6-16.1,14.9-17.5c2.4-1.4,5.5,14.3,7.1,19.8c1.6,5.5,12.6,19.6,16.5,27.5c3.9,7.9-25.1,44-31.4,45.6
	c-6.3,1.6-25.1-1.6-28.3,0c-3.1,1.6-10.1-14.1-10.6-15.7c-0.4-1.6-4.4,0.8-4.4,0.8s-9.4-7.1-15.7-6.3c-6.3,0.8-18.1,7.1-22,7.9
	c-3.9,0.8-14.1,0-14.1,0l-5.5,4.7L800.6,618.3z"/>
<path class="st3" d="M882.8,650.7c0,0,1.6-6.3,2.1-9.4c0.5-3.1,6.3-4.2,6.3-4.2s1.6,6.3,0,9.4C889.6,649.7,882.8,650.7,882.8,650.7z
	"/>
<path class="st4" d="M943.6,660.7c0,0,1-8.4,5.8-9.9c4.7-1.6,21.5-13.1,25.7-13.6c4.2-0.5,0,9.4,0,9.4s-16.2,11.5-20.4,14.1
	C950.4,663.3,943,663.4,943.6,660.7z"/>
<path class="st4" d="M984.9,637.1c0,0,4.2-7.8,4.7-12c0.5-4.2,4.2-7.3,4.2-7.3s1.6,8.9,2.1,9.7c0.5,0.8,2.1,2.4,2.1,5.5
	c0,3.1-12,8.9-13.1,8.4C983.9,640.8,983.4,640.2,984.9,637.1z"/>
<path class="st4" d="M877.6,495.2c0,0,3.4,8.9,4.7,9.4c1.3,0.5,13.3,3.1,16.8,5.8c3.4,2.6,1.6,6.3,0,7.9c-1.6,1.6,1.3,4.2,3.7,3.9
	c2.4-0.3,5,1,5.8,2.6c0.8,1.6,5.2,3.4,6.5,2.4c1.3-1,2.9-5.2,4.7-5.8c1.8-0.5,7.9-1.6,8.4,0c0.5,1.6,4.2,4.8,5.8,6.1
	c1.6,1.3,5.5,1.1,8.4,0c2.9-1.1-1.3-2.1-2.9-3.2c-1.6-1-3.9-2.6-5.2-6.8c-1.3-4.2,0.5-5.5-2.9-7.3c-3.4-1.8-18.1-11.8-22-12.8
	c-3.9-1-17.3,2.1-21.2,0.8c-3.9-1.3-3.9-3.7-5-4.2C882,493.4,875.8,490.8,877.6,495.2z"/>
<path class="st5" d="M939.1,509.1c0,0,4.2,0,6.3,1.4c2.1,1.5,4.2,2,2.4,2.5c-1.8,0.5-7.1,2.4-8.6,0.8
	C937.5,512.2,936.7,508.9,939.1,509.1z"/>
<path class="st5" d="M849.1,520.6c0,0,3.3-3.1,5.9-3.1c2.6,0,5.9,1.5,5.9,1.5s-4.8,2.6-7,3.3C851.8,523,847.6,521.9,849.1,520.6z"/>
<path class="st5" d="M836.5,520.1c0,0,2.6-2.9,5-3.4c2.4-0.4,6.1,0.9,6.1,0.9s-2.6,1.3-5.6,2.5C839.1,521.3,835.4,521.1,836.5,520.1
	z"/>
<path class="st5" d="M835.4,522.6c0,0,2.6,0.4,3.7,0c1.1-0.4,0.7,2.6-0.9,2.6C836.7,525.2,834.3,525.1,835.4,522.6z"/>
<path class="st5" d="M826,519c0,0,2.4-1.3,4.6-1.7c2.2-0.5,5.5-0.8,4.9,0c-0.6,0.8-1.6,2.5-3.5,2.8C830.2,520.4,824,519.9,826,519z"
	/>
<path class="st6" d="M795.3,510.5c0,0,2.7-2.1,7-1.4c4.2,0.6,9.7,1.7,13.2,2.7c3.5,1,8.7,5,10.9,4.9c2.2-0.1,3.7,1.1,1,1.5
	c-2.7,0.3-11.2,0.6-15.3-0.5c-4.1-1.1-8.6-3.7-11.8-3.9C797,513.4,793.5,511.4,795.3,510.5z"/>
<path class="st6" d="M838.9,509c0,0-2.9-8.2-3.3-11.7c-0.4-3.5,4.3-11.8,4.9-13.2c0.5-1.4,10.8-1.2,13.4-2.2c2.6-1-0.9,4.5-3.4,4.5
	c-2.5,0-6.8,0.5-8.5,1.3c-1.7,0.8-0.8,3.1-0.5,3.1c0.3,0,5.5,0.1,6.1,0.8s-2.5,2.6-2.5,3.2c0.1,0.5,3,5.8,3.1,7.4
	c0.1,1.6-0.8,6.2-1.3,5.8c-0.5-0.4-3.2-2.1-3.5-3.4c-0.3-1.3-1.3-3.5-2.6-3.7c-1.3-0.2-0.7,3.7-0.7,5.1
	C840.2,507.3,839.3,510.3,838.9,509z"/>
<path class="st5" d="M853.8,493.4c0,0,2.5,0.3,3.3,1.5c0.8,1.2-1,1.5-2.2,1.4C853.6,496.2,851.9,493.6,853.8,493.4z"/>
<path class="st6" d="M862.6,489.4c0,0-0.1-3.3,0-5c0.1-1.7,0.3-3.8,1.2-3.8c0.9,0,2.9,3.6,2.6,4.4c-0.3,0.8-1.1,3.8-1.9,4.4
	C863.7,490.1,862.6,491,862.6,489.4z"/>
<path class="st5" d="M868,494.2c0,0,2.3,0,3.3,0.6c1,0.6,1.5,1.2,1,1.5c-0.5,0.3-2.9,0.1-3.6,0C868,496.2,866.6,494.1,868,494.2z"/>
<path class="st4" d="M805.1,481.8c0.3-0.1,4.5-1.7,7.2-1.7c2.7,0,5.4-6.9,8.5-7.3c3.2-0.4,5.5-6.5,8-7.5c2.4-1,8.1,1.9,7.5,2.7
	c-0.6,0.9-2.8,3.3-3.6,4.9c-0.9,1.6-0.2,6.2,0.4,7.8c0.7,1.5,2.8,3.6,2.5,4c-0.4,0.4-5.9,11.4-6.7,13.1s-2.7,3.2-5,3.3
	c-2.3,0.1-9.9-0.7-12-1.6c-2.1-1-3.6-5.3-4.2-6.7c-0.5-1.4-1.9-3.3-2-5.1C805.6,485.7,804.4,482,805.1,481.8z"/>
<path class="st6" d="M763.2,466.7c0,0,7.2,2.5,8.7,3.7c1.5,1.2,5.8,6.9,8.4,9.7c2.6,2.8,7,5.9,7.3,7.2c0.3,1.3,6.8,11.1,7.1,12.3
	s1.3,6.4,0,6.6c-1.3,0.1-8.3-1.7-9.5-3.4c-1.2-1.6-7.2-7.1-7.4-9.5c-0.2-2.4-2.7-9.8-4-11.6c-1.3-1.7-3.9-1.6-4.8-2.8
	c-0.9-1.2-3.2-6.7-4.7-7.1C762.8,471.4,762.2,466.4,763.2,466.7z"/>
<path class="st5" d="M793.1,492.4c0,0,0,3.2,1.2,4c1.2,0.7,1.9,1.7,2.3,1.4c0.4-0.3,0.8-1.6,0.4-2.9
	C796.7,493.6,793,491,793.1,492.4z"/>
<path class="st6" d="M715.5,452v7.5c0,1.6,4.8,5,5,5.5c0.2,0.4,1.5-6.8,1.5-8.1S715.5,449.7,715.5,452z"/>
<path class="st5" d="M543.1,352.8c0,0,2.2,0.6,2.9,0.8c0.7,0.2,3.7,1.5,3.4,1.8c-0.3,0.3-3.7,0.5-4,0.5c-0.3,0-2.4,0.7-2.8,0
	c-0.4-0.7-2-3.4-1.6-3.1C541.3,353.1,542.1,352.6,543.1,352.8z"/>
<path class="st5" d="M511,342.4c0,0,3,1.6,4,1.9c1,0.2,2,2,2.5,2.8c0.5,0.7-2-0.1-2.5-0.4c-0.5-0.3-2.7-0.5-3.4-1.1
	C510.8,345.1,510.2,342,511,342.4z"/>
<path class="st5" d="M498.6,332.5c0,0,1.4,1.3,1.8,1.8c0.4,0.5-0.6,3.3,0,4.2c0.6,0.9-0.8,3-0.8,2.5c0-0.5-1.7-2.4-2.3-3.5
	c-0.7-1.1-0.8-1.8-0.7-2.9C496.7,333.4,497.8,331.8,498.6,332.5z"/>
<path class="st5" d="M496.9,325.4c0,0-1.1,1.6,0,2.3c1.1,0.7,2.9,1.6,2.9,1.6s0.2-0.9,0-2C499.6,326.3,497.4,324,496.9,325.4z"/>
<path class="st5" d="M482.6,335.4c0,0,0.7,1.2,1.2,1.3c0.5,0.1,1.6-0.6,2-0.7c0.4-0.1-1.6-1.1-1.6-1.3S482.6,335.4,482.6,335.4z"/>
<path class="st5" d="M476.3,337.7c0,0,0.4-0.5,1.6-1c1.1-0.4,2.5-0.3,2.9-0.4c0.4-0.1,0.1,0.7-0.7,1.4s-1.7,1.6-3.2,1.7
	c-1.5,0.2-1.7,0.8-1.5,0.2C475.7,338.9,475.3,338.4,476.3,337.7z"/>
<path class="st4" d="M456.2,292.3c0,0,0.5-2,1.5-3.6c1-1.6,0.5-6.3,0.9-7.1c0.3-0.8,3.3-5,3.4-5.4c0.1-0.3-7.2-7.1-7.5-8.1
	c-0.3-1,0.2-3.9,0.7-5c0.4-1.1,3.2-6.4,3.7-6.7c0.5-0.2,2.2,0,2.2,0s0.7,2.1,1.5,2.6c0.9,0.5,2.9,1.3,3.5,1.9
	c0.5,0.5,1.1,7.8,1.3,8.4c0.2,0.7,4,8.6,4.5,8.8c0.4,0.2,4.9,3.7,5,4.1c0.1,0.4-1,7.2-1.5,7.5c-0.5,0.3-5.6,1.7-6.1,1.9
	c-0.5,0.1-1.6,1.2-2.8,1.4C465.1,293.4,456.2,292.3,456.2,292.3z"/>
<path class="st4" d="M441.3,281.9c0,0,1.4-5.1,2.3-6.2c0.9-1.1,3.5-3.1,4.5-3.5c1-0.4,6.4-1.5,6.2-1c-0.1,0.5-0.6,4.1-0.6,4.7
	c0,0.5,1.3,3.2,1.2,3.9c-0.1,0.8-2.7,5.2-3.7,5.9c-1,0.7-8,2.3-8.2,1.6c-0.2-0.7-0.5-2.8-0.5-2.8s-0.8-0.9-1.2-1.2
	C440.9,283,441.3,281.9,441.3,281.9z"/>
<path class="st5" d="M454.3,255.8c0,0-1.9,1.9-2.2,2.5s-1,2.9-0.7,2.8c0.3-0.1,1.4-0.8,2.2-1.2c0.8-0.4,1.1-2.2,1.3-2.6
	C455.2,256.8,454.3,255.8,454.3,255.8z"/>
<path class="st5" d="M468.5,246c0,0-2,2.1-2.3,2.8c-0.3,0.8-1.3,2.3-0.6,2.4c0.6,0.1,2.8-1.3,2.9-1.4c0.1-0.1,0.3-0.2,0.9-1.2
	C469.9,247.6,468.5,246,468.5,246z"/>
<path class="st7" d="M603.7,206.8c0,0,0.9-1.6,1.3-2c0.4-0.3,2.4-1.1,2.7-1.1c0.3,0,0.9,2.7,0,3.1c-0.9,0.3-3.4,1.7-3.4,1.7
	S603.4,207.3,603.7,206.8z"/>
<path class="st6" d="M610.2,190.8c0,0,1.2-4.9,2.4-6.3c1.2-1.4,8.8-11.8,9.6-12c0.8-0.2,3.6-1.6,5-2.2c1.4-0.5,0,5.5,0,5.5
	s0.4,0.1,1.4-0.1c1-0.2,2.9-0.5,2.9,0.1v3.4c0,0-8.7,6.3-8.8,7c-0.1,0.7-0.4,6.4-0.4,6.4c0.4,1.5,2.1,5,2.1,5.6
	c0,0.5-0.1,2.7-0.1,2.7s-4.5-1.2-5.5-1.6c-1-0.4-3.9-4.9-4.5-5.1c-0.5-0.2-2.4-1.3-2.9-1.7C610.8,191.8,610.2,190.8,610.2,190.8z"/>
<path class="st6" d="M631.6,169.4c0,0-1.2,1.2-1.6,2.1c-0.4,0.9,1.6,1.9,2.6,2.5c1,0.7,2.8,0.5,3.6,0c0.8-0.5,4-3.7,4-3.7
	c-0.1-0.7-2.9-1.9-3.9-1.9C635.3,168.3,631.6,169.4,631.6,169.4z"/>
<path class="st6" d="M646.1,165.3c0,0-5.5,1-5.9,1.6c-0.4,0.7,3.9,2.4,4.9,2.4c1,0,2.4,0.3,3.7,0c1.2-0.3,3.3-2.9,3.3-2.9
	S648.9,164.7,646.1,165.3"/>
<path class="st4" d="M619.7,528.3c0,0-2.3,5.6-2.9,6.1c-0.7,0.5-6.6,6.1-8,7c-1.5,1-3.1,2.1-3.6,3.3c-0.5,1.1-2.6,4.4-2.3,5.1
	c0.3,0.7,1.8,2.5,1.8,3.3c0,0.8-2.1,4.3-2.6,6.1c-0.5,1.8-1.5,9.2-1,10.2c0.5,1,2.1,6.4,3.9,7c1.8,0.7,10.2-11.8,11.1-14.1
	c1-2.3,0.2-3.3,1.5-4.3c1.3-1,2.8-13.4,3.3-14.9c0.5-1.5,2.1-2.3,2.3-2.9c0.2-0.7-1.3-11.3-1.6-11.8
	C621.2,527.8,621.4,527,619.7,528.3z"/>
<path class="st4" d="M602.2,444.8c0,0,0.5,0.5,2.5,1.6c2,1.1,4.4-1,6.6-0.8c2.1,0.2,11-2.5,12.6-2.5c1.6,0,2.3,0.5,1.6,3.6
	c-0.7,3.1-3.9,16.5-5.2,19c-1.3,2.5-16.2,16.5-19.3,19.6c-3.1,3.1-10.2,11.8-10.3,12.6c-0.2,0.8,0.5,13.6,1.1,15.2
	c0.7,1.6,2,5.4,2.1,7.5c0.2,2.1-0.7,17-1.3,19c-0.7,2-15.9,14.6-16.5,16.4c-0.7,1.8-1.6,4.7-1,5.4c0.7,0.7,2.6,1.5,2,3.9
	c-0.7,2.5-1.7,4.6-2.2,5.6c-0.4,1-3.7,1-5,2.6c-1.3,1.6-1,5.6-2,8.4c-1,2.8-3.8,5.7-5.2,8.2c-1.5,2.5-5.9,6.1-7,8.5
	c-1.1,2.5-2.9,4.4-3.6,5.4c-0.7,1-12.8,2-15.2,2.9c-2.5,1-3.6,3.1-5.4,3.3c-1.8,0.2-6.1,0-6.1,0s-3.1-4.4-3.4-6.1
	c-0.3-1.6-2.1-4.3-1.6-6.9c0.5-2.6-6.5-20-7.5-22.1c-1-2.1-1.3-15.4-1.5-18.3c-0.2-2.9-6.1-7.7-5.5-9.7c0.6-2,0.8-9.2,1.1-10.8
	c0.3-1.6,3.1-7.8,3.9-9.7c0.8-1.9,1-4.9,1-6.5c0-1.6-1.5-3.4-1.5-5.2c0-1.8,0.2-4.8,0.2-5.2s-10-15.7-11-17c-1-1.3-1.1-2.6-1-4.7
	c0.2-2.1,0.5-4.9-0.1-5.7c-0.6-0.8-0.5-8.4,0-9.8c0.5-1.5-2.9-5.4-2.9-5.4l-7.9-1c0,0-3.9-5.1-4.7-5.2c-0.8-0.2-3.8-0.7-4.6-0.2
	c-0.8,0.5-4.1,1.5-5.1,1.5h-6.1c0,0-1.8,2.8-3.4,3.1c-1.6,0.3-3.6,0.7-3.6,0.7l-2.6-1.6c0,0-4.4-0.8-6.1-0.5
	c-1.6,0.3-3.8,1.6-4.4,1.6c-0.7,0-2.9,0-3.4-0.2c-0.5-0.2-15.7-14.4-17-16.4c-1.3-2-6.2-8.8-6.4-9.7c-0.2-0.8-0.8-8-0.8-8l-2.3-2
	c0,0,0.5-4.1,0.8-5.4c0.3-1.3,3.4-6.4,3.9-7.2c0.5-0.8-0.8-2.5-0.7-3.3c0.2-0.8,1.8-3.3,1.8-3.3s-1.6-5.4-1.5-7
	c0.2-1.6-0.3-2,0.7-4.3c1-2.3,0.3-9.8,0.8-10.8c0.5-1,11.8-10.5,13.4-10.8c1.6-0.3,2.9-2.8,2.9-2.8s-0.2-4.1,0.2-6.1
	c0.3-2,7.7-11.2,9-12.1c1.3-0.9,3.8-4.3,4.4-4.3h15.6c1.5,0,4.4-3.1,5.6-3.1c1.1,0,27.2,0.3,27.8,0c0.7-0.3,1.1,10.2,2.1,10.3
	c1,0.2,5.1,2.5,5.4,3.1c0.3,0.7,1.1,1.5,1.3,1.6c0.2,0.2,6.5,1.3,7,1.8s4.5,6.2,4.5,6.2s6.4,0,6.9-0.3c0.5-0.3,2.9-5.6,3.4-6.2
	c0.5-0.7,2-0.7,3.6-0.7c1.6,0,5.9,1.8,6.6,1.8c0.7,0,1,4.6,1.3,5.1c0.3,0.5,2.3-2.3,2.8-2.3c0.5,0,10,2.3,11.1,2.8
	c1.1,0.5,11.7,11,13.6,12.1c1.9,1,7,15.4,7.7,16.6c0.7,1.1,0.8,4.6,0.8,4.6s2.8,2,3.3,3.6c0.5,1.6,1.7,5,2.4,6.3
	c0.7,1.3,1.7,5,3.3,6.3c1.6,1.3,2.3,6.4,2.9,7.4c0.7,1,0.8,4.8,1.5,4.9c0.7,0.2,3.3,1.3,4.3,2.1c1,0.8,2.6,2.9,3.6,3.8
	C602.2,440.5,602.2,444.8,602.2,444.8z"/>
<path class="st6" d="M279.5,688.8c0,0-3.9-2-6.3-3.1c-2.4-1.1-5-3.1-5-3.1s-1.3-2.4-2.2-2.6c-0.9-0.2-4.8,2.4-4.8,2.4l2.8,6.3
	c0,0,5.2,1.7,6.3,2.2C271.5,691.4,279.5,688.8,279.5,688.8z"/>
<path class="st4" d="M267.3,674.1l-1.7-5.2c0,0,5.9-5.9,6.6-8.1c0.7-2.2,0.9-8.7,0.9-8.7l-2.6-3.3c0,0,6.8-10,7.2-11.8
	c0.4-1.7,0-5.9,0-5.9s0.4-1.1,2-1.5c1.5-0.4,3.7-5.5,4.8-6.8c1.1-1.3,11.8-5.5,12.2-6.3c0.4-0.9,0.9-3.9,0.9-3.9s-3.1-7-2-7.6
	c1.1-0.7,6.1,0,6.1,0s10.7-10.9,15.3-16.4c4.6-5.5,4.1-14.6,5.5-17.9c1.3-3.3,19-11.6,20.5-14.2c1.5-2.6,5.7-19.4,5.7-19.4
	s1.7-12.9,2.4-14.8c0.7-2,7.6-4.8,8.1-7c0.4-2.2,1.1-16.4,1.1-16.4s-11.6-3.1-12-4.6c-0.4-1.5-0.4-3.5-1.5-4.6
	c-1.1-1.1-13.3-2.6-14.2-2.8c-0.9-0.2-6.3-7.2-6.3-7.2s-9.8,0.9-11.3,0c-1.5-0.9-1.9-2.8-1.9-2.8s0.1-6.3,0-7.9
	c-0.1-1.5-8.8-9-11.2-10.5c-2.4-1.5-12.7-5.5-14.4-7c-1.7-1.5-3.5-7.6-4.1-8.5c-0.7-0.9-19.9-3.1-20.5-3.5c-0.7-0.4-6.8-3.5-6.8-3.5
	s-3.1,3.5-4.1,2.8c-1.1-0.7-2-5-2.8-5c-0.9,0-6.3,3.3-6.3,3.3s-4.6,1.1-5.7,2.2c-1.1,1.1-3.3,6.1-4.4,6.6c-1.1,0.4-3.9,1.1-3.9,1.1
	s-1.3,3.7-0.9,4.6c0.4,0.9,2.6,5,2.6,5s-0.4,8.7-1.1,9.4c-0.7,0.7-9.6,12.7-9.8,13.8c-0.2,1.1,0,4.8,0,4.8s3.5,3.1,2.6,5.2
	c-0.9,2.2-4.1,5.5-4.1,6.8s4.6,7.9,5.7,8.5c1.1,0.7,1.3,9.4,2,10.3c0.7,0.9,10,14,11.1,14.8c1.1,0.9,14.8,12.4,15.3,14.8
	c0.4,2.4,2.6,12.9,1.5,19.6s-2.4,15.5-3.3,18.1c-0.9,2.6-0.2,25.8-0.7,27.7c-0.4,1.9-0.9,5-1.5,5.7c-0.7,0.7,0.2,16.8,0.7,19.4
	c0.4,2.6,1.3,10.3,0,12.7c-1.3,2.4-2.2,6.8-2,8.1c0.2,1.3,2.4,7.4,2.6,8.3c0.2,0.9,0.4,4.6,0.4,4.6l3.9,3.1l0.9,5
	c0,0,4.4,1.1,5.5,1.3c1.1,0.2,1.3-2.2,1.3-2.2s2,1.1,4.4,0.4C268,676.1,267.3,674.1,267.3,674.1z"/>
<path class="st6" d="M213.2,394.3c0,0,10.6-0.5,11.8,0c1.1,0.5,11.6,7.2,12.6,7.7c1,0.5,6.4,2.9,6.4,2.9s-1.5,1.1-2.6,1.5
	c-1.1,0.3-9.2,0-9.2,0s-1.5-3.9-2.3-4.4c-0.8-0.5-5.7-3.1-6.9-3.4c-1.1-0.3-8.2,1.8-8.2,1.8s-2.9-1.9-3.4-2.6
	C210.9,397.1,213.2,394.3,213.2,394.3z"/>
<path class="st6" d="M230.7,410.6c0,0,3.6,0.7,4.9,1c1.3,0.3,2.8,2.3,2.8,2.3s-3.3-0.3-3.8,0c-0.6,0.3-3.8,0-3.8,0
	S229.6,410.4,230.7,410.6z"/>
<path class="st6" d="M243.9,410.5c0,0,1.6,0.8,2.8,0c1.1-0.8,2.8-2.4,3.8-2.4c1,0,4.9-0.3,5.7,0c0.8,0.3,3.3,1.3,2.6,2.4
	c-0.7,1.2-3.4,4.4-4.6,4.4c-1.1,0-4.1,0.7-4.6,0c-0.5-0.7-1.8-1-1.8-1s-2.3-0.6-2.9-0.8C244.3,413,242,410.2,243.9,410.5z"/>
<path class="st3" d="M299,296.1c0,0,11.6-10.3,12.6-9.5c1,0.8,0,5.7,0,5.7s1.5,1.1,3.1,1.3c1.6,0.2,2.4,5.1,2.8,5.7
	c0.3,0.7,0,6.4-1.1,6.4c-1.1,0-3.6-1.8-3.6-1.8l-7.5-1.1l-2.5-1c0,0-4.7-0.8-4.6-1.5C298.3,299.7,299,296.1,299,296.1z"/>
<path class="st3" d="M232.3,225.7c0,0,3.1-6.2,4.4-7c1.3-0.8,5.9-1.3,5.9-1.3s2.6,5.4,3.3,5.6c0.7,0.2,4.6,2.8,4.6,2.8l-1.1,1h-6.7
	c0,0-4.3,3.8-4.9,3.9C237.1,230.8,231.7,226.9,232.3,225.7z"/>
<path class="st3" d="M240,231.7c0,0-0.8,2.5,0,2.6c0.8,0.2,3.8-1.3,4.1-2.6l0.3-1.3C244.4,230.4,240.3,230.6,240,231.7z"/>
<path class="st3" d="M255.7,227.5l-1.5,3.1c0,0-0.5,0.3,1.5-0.2c2-0.5,3.4-2.9,3.4-2.9S257.5,226.2,255.7,227.5z"/>
<path class="st3" d="M258.2,224c0,0,8.5,1.7,9.7,1.7c1.1,0,3.4,4.4,4.8,4.8c1.3,0.3,6.1,0.5,7.7,2c1.6,1.5,5.2,6.5,6.1,6.4
	c0.8-0.2,0-2.6,0-2.6l-2.5-7.4c0,0,6.1,5.9,6.7,5.6c0.7-0.3,1.6-10.4,1.6-10.4s-4.6-6.1-4.7-6.6c-0.2-0.5,0.5-1.5,1.6-1.6
	c1.1-0.2,5.6,4.4,7.2,4.3c1.6-0.2,8.5-7.7,8.5-7.7s-16.9-10.3-15.6-10.8s1.8-0.7,1.8-1.3c0-0.7,1.1-3.9,1.1-3.9s-7.7-9-8.8-9h-5.2
	c0,0-0.2-0.2-2.5-1.8c-2.3-1.6-16.5-2.5-16.5-2.5s-2.9-4.6-3.4-4.9c-0.5-0.3-6.4,0-6.4,0s-3.6,8-4.1,7.4c-0.5-0.7,0-3.8,0-3.8
	l1.6-5.2l-5.5,1c0,0-6.8,7.2-6.6,8c0.2,0.8,0.7,8.7,0.7,8.7s4.9,2.5,6.6,2.8c1.7,0.3,10.5,0.3,12.2,0.3c1.7,0,6.4-0.7,6.4-0.7
	l2.5-1.5l1.3,3.4c0,0,2.1,4.4,2.8,4.6c0.7,0.2,6.2,2,6.2,2s-0.5,6.2-0.5,6.7c0,0.5-4.9,4.9-5.7,5.6c-0.8,0.7-6.1,3.9-6.7,3.9
	C259.8,221.3,257,223.7,258.2,224z"/>
<path class="st3" d="M267.7,205.2c0,0-3.9,2.3-3.9,3.1c0,0.8-0.8,4.7,0,4.6c0.8-0.2,3.4-3.3,3.9-3.8
	C268.2,208.5,267.7,205.2,267.7,205.2z"/>
<path class="st3" d="M261.1,198.8c0,0-2.1,0-2.9,1.1c-0.8,1.1-1.5,2.3-1.5,2.3s2.3,0.3,3.3,0c1-0.3,2-1.6,2-1.6
	S262,198.7,261.1,198.8"/>
<path class="st3" d="M140,181.8c0,0,1.5,1.4,1.6,1.7c0.1,0.3,0,3.3,0,3.3s10.1,0.7,10.6,0c0.4-0.7,1.4-4,2.2-4.4
	c0.8-0.3,4-3.4,4-3.4s0.7,4,0,4c-0.7,0-0.7,1.7-0.7,1.7l0.9,5.4c0,0,11.8,0.5,11.6,0.9c-0.2,0.3-2.8,1.2-2.8,1.2s-8,1.1-8.2,1.5
	c-0.2,0.4-0.4,2.5-0.4,2.5s7.8,3.7,9,4.4c1.2,0.7,5.2,1.2,5.9,1.1c0.7-0.1,4-2.3,4-2.3s8.7,0.4,9.7,0.4c1,0,4.3,0.9,5,0.8
	c0.8,0,3.8,0,3.8,0s1.7-4.4,2.3-4.6c0.5-0.2,2-1.4,2-1.4s0.1-1.4,0-2.1c-0.1-0.7-7.5-8.8-8.1-9.8c-0.5-1-1.4-4.6-1.4-4.6h-3.2
	c0,0-1.3,2.3-1.9,2.4c-0.5,0.1-1.6-1.5-1.6-1.5l-3.9,1.4c0,0-9-0.4-9.5-0.9c-0.5-0.4-3.2-2.4-3.2-2.4l-2,0.8l-1.3-1.5
	c0,0,0.9-0.7,1.1-1.4c0.2-0.7-0.1-2.2-0.1-2.2s-7,0.2-7.3,0c-0.3-0.2-2-1.2-2.4-1.3c-0.4-0.1-9.8,0-9.8,0s-2.8,4.7-2.9,5.5
	S140,181.8,140,181.8z"/>
<path class="st3" d="M155.3,160.4c0,0,0.2-1.1,0.8-1.5c0.5-0.4,9.1-4.9,9.6-5.1c0.5-0.2,8.4,0,8.4,0s-1.6,3-2.3,3.3
	c-0.7,0.3-5.3,2.5-5.3,2.5s-1.6,3.1-1.8,3.2c-0.2,0.1-1.6-1.6-1.6-1.6S155.1,161,155.3,160.4z"/>
<path class="st3" d="M169.1,164.4c0,0,5.1-4.8,5.7-5c0.5-0.2,5.6,3.2,6.1,3.3c0.5,0.1,0.4,2.1,0.4,2.7c0,0.7-2.9,3.3-2.9,3.7
	c0,0.4-1.5,1-1.5,1s-0.9-1.5-1.6-1.7c-0.8-0.2-5.8-0.7-6.1-0.8C168.7,167.5,168.1,165.3,169.1,164.4z"/>
<path class="st3" d="M192.7,175.3c0,0,1.1-1,1.9-1.1c0.8-0.1,1.9,0,1.9,0s0.8,2.5,0,2.8c-0.8,0.3-2.4,0.9-2.4,0.9
	S193,176,192.7,175.3z"/>
<path class="st3" d="M202.5,180.6c0,0,0.9-0.4,1.9-0.7c1-0.2,3.5,0,3.5,0s0.4-1.1,0-1.6c-0.4-0.5-1.2-1.1-1.2-1.1V176
	c0,0,5.9-0.5,6.1-1c0.2-0.4,1.2-0.9,1.5-0.9c0.3-0.1,2.9,0,2.9,0s-1.4,2.8-1.9,2.8c-0.4,0-1.9,1-1.9,1s0.8,0.8,1.2,1.1
	c0.4,0.3,1,1,1.1,1.6s-0.7,3.6-0.7,3.6s-3.2,3.6-3.7,3.6c-0.5,0-2.4,0.8-2.8,0c-0.4-0.8-1.1-2.8-1.1-2.8s-3.3-0.8-3.8-1
	C203.1,183.8,202.5,180.6,202.5,180.6z"/>
<path class="st8" d="M194.8,167.2c0,0-0.5-0.9-1.3-1.3c-0.7-0.4-2.9-1.9-3.2-2c-0.2-0.1-2.3-0.6-2.4-1.2c-0.1-0.6-0.2-3.6,0.4-4
	c0.7-0.4,2.5-1.1,2.5-1.1s0.8,2,1.1,2.2c0.3,0.2,1.5,1.2,2.7,1.2c1.2,0,3.2,0.8,3.2,0.8s-1.5,1.3-1.8,1.3c-0.3,0-0.6,2-0.6,2
	l1.2,0.9C196.8,166.1,195.1,167.7,194.8,167.2z"/>
<path class="st3" d="M181.3,153c0,0-0.5-1.4,0.8-1.7c1.2-0.3,2-1.5,2-1.5s2-2.4,2.5-2.5c0.4-0.1,5,0,5,0s-2,2.4-2,2.8
	c0,0.4,0.3,2.3,0.3,2.3s-1.1,2-1.5,2.1c-0.4,0.1-5.2,0.6-5.3,0.5C182.8,155,181.3,153,181.3,153z"/>
<path class="st8" d="M180.1,149.5c0,0-2.7,0.6-2.7,1.1c0,0.6-2,2.3-1.6,2.4c0.3,0.1,2.2,0,2.2,0s1.7-1.1,2.2-1.4
	C180.6,151.3,181.6,149.1,180.1,149.5z"/>
<path class="st3" d="M198.8,166.5c0,0,1.7-0.6,2.4-0.6h2.4c0,0-0.3,1.8-1.6,2.2c-1.3,0.4-3.1,0.4-3.1,0.4S197.4,166.9,198.8,166.5z"
	/>
<path class="st8" d="M220.8,177.4c0,0,2.5-1.1,3.6-1c1.1,0.2,3.4-0.4,3.4-0.4s1.6-1.5,3.4-1.5h3.6c0,0-1.4,2.8-1.9,3.4
	c-0.5,0.6-2.9,1.3-2.9,1.3h-3.5c0,0-1.6,2.4-2,2.5c-0.5,0.2-1.9,1.3-2.3,1.3h-2.9C219.3,183,219.5,177.9,220.8,177.4z"/>
<path class="st8" d="M222.6,174.1c0,0,1.8-1.1,3.4-1.1h3.9c0,0-1.3,2.1-2.4,2.3c-1.1,0.2-5.2,0.3-5.5,0.4
	C221.8,175.7,222.6,174.1,222.6,174.1z"/>
<path class="st3" d="M220.8,168c0,0,1.4-2,1.7-2.2c0.3-0.2,1.8-0.6,3.4-0.6c1.7-0.1,4,0,4,0s-0.2,3.7-1.2,3.9
	c-1,0.2-4.6,1.2-5.9,1.6C221.4,171,220.8,168,220.8,168z"/>
<path class="st3" d="M207.2,164.8c0,0,1.8,0.4,2.6,1.1c0.9,0.7,2.8,1.4,3,1.3c0.2-0.1,2.5,0.1,3,0.2c0.5,0.1,1.8-4.1,1.8-4.1
	s1.4-1.9,1.6-2.2c0.2-0.3-0.5-1.7-0.5-1.7h-5.1c0,0-1.1-0.5-1.4-0.4c-0.3,0.1-2.5,2.3-2.5,2.3L207.2,164.8z"/>
<path class="st3" d="M202.5,161.2l1.9-2.1c0,0,1.1,0.2,2,0c0.9-0.2,0.8,1.7,0.8,1.7s-1.6,1.9-1.9,1.7c-0.2-0.2-2,0-2,0
	S201.5,162.2,202.5,161.2"/>
<path class="st3" d="M199.3,153c0,0,0.6,1.4,1.3,1.6c0.7,0.2,1.5,0.9,1.5,0.9l1.4,0.5c0,0-0.3-2.6-0.6-3S199,152.4,199.3,153z"/>
<path class="st3" d="M213.3,145.2c0,0-2.6-1.5-3.3-1.7c-0.7-0.3-2.8,0-2.8,0l-0.8,1.7l-2.6,2.1c0,0-1.8,1.8-1.6,1.8s3.6,0.3,5,0.5
	c1.4,0.2,5.6-0.3,5.6-0.3l1.5,1.9c0,0,1.6,0.6,2.1,0.6c0.5,0,2.3-0.3,2.3-0.3s-0.5-2.9-0.9-3.2c-0.3-0.3-2.7-1.4-2.7-1.4
	S213.8,145.5,213.3,145.2"/>
<path class="st3" d="M227.2,153c0,0-3.3-0.5-3.7-1.1c-0.4-0.7-1.1-1.4-1.1-1.4l-2.1-2.2c0,0,4.2-1.3,5.2-1.5c1-0.2,3,1.7,3.2,1.9
	c0.2,0.2,0.5,1.5,0.5,1.5l0.7,1.2l1.3,1.3C231.2,152.6,228,153.1,227.2,153z"/>
<path class="st8" d="M229.3,153.3c0,0,1.9-0.2,2.6,0c0.7,0.2,1.4,1.1,1.4,1.1l0.3,1.1c0,0-2.7,0.2-3.1,0c-0.3-0.2-1.2-0.4-1.6-0.7
	C228.4,154.5,229.3,153.3,229.3,153.3z"/>
<path class="st8" d="M223.1,157.5c0,0,5.3-0.1,6.1,0c0.8,0.1,2.3,0.8,2.3,0.8l2,0.8c0,0-2.3,1.1-2.7,1.2c-0.4,0.1-3.2-0.1-3.4,0
	c-0.2,0.1-2.1-0.7-2.1-0.7s-1.5,0.1-2.2-0.1c-0.8-0.1-1.5-0.9-1.5-0.9S222.3,157.2,223.1,157.5"/>
<path class="st3" d="M177.6,169.8c0,0,4.9-2.1,6.1-1.9c1.2,0.2,7.1,0,7.1,0l4.6-0.8l-4-4.4l-3-1.9l-5.8,1.9l-3.9-1.2l-1.2,4.3V169.8
	z"/>
<path class="st3" d="M223.1,159.5c0,0,4,2,3.9,2c0,0,2.7,1.8,3.7,1.7c1-0.2,1.6,2.7,1.6,2.7l2.4,4l1.5,0.9c0,0,5.3-1.6,6.5-0.9
	c1.2,0.7,4.2,2.1,4.6,1.7c0.4-0.4,5.6-1.3,7.8-0.8c2.2,0.5,6.8,0.9,6.8,0.9l3.7-1.8c0,0-3.5-3.3-4.1-4c-0.7-0.6-8.5-1.4-8.5-1.4
	s-9.9,0.1-10.3-0.1c-0.3-0.2-2.7-3.7-3.1-3.6c-0.3,0.1-4.9-1.3-4.9-1.3h-2.2H223.1z"/>
<path class="st3" d="M260.6,176.4c0,0,1.2,2.6,2.7,3.1s6.4,1,6.4,1h4.1c0,0-2.5-3.9-4.1-4.1C268.2,176.2,260.6,176.4,260.6,176.4z"
	/>
<path class="st3" d="M271.3,161.8c0,0-1.8-1.6-2.6-1.5c-0.8,0.1-2.1-0.8-2.1-0.8l-3.1,2.3c0,0-2.9-1.6-4.1-1.5c-1.1,0.1-5.9,0-5.9,0
	l-3.9,0.5l-5.9-0.1l-2.5-1.6c0,0,3.6-3.2,4.1-3.6c0.5-0.3,1.6-2.2,2.1-2.3c0.5,0,2.8-0.5,3.3,0c0.5,0.5,2.1,1.1,2.1,1.1l0.8-1.1
	l-1.1-2l-2.1-1.4l1.1-0.4l-1.1-1.8l-2.9,1.8h-3.8l-7.9-0.9l-2.9-7.2l-2.9-1.3c0,0-1-3.1,0-3.1c1,0,3.7-3.1,3.7-3.1s3.1-4.4,3.7-4.4
	c0.7,0,5.7,1.5,5.7,1.5s10.8,10.6,11,11.1c0.2,0.5,1.3,4.8,2,4.7s4.8,0.6,4.8,0.6s-0.8-3.3-1.3-4c-0.5-0.6-2.6-3.4-2.6-3.4l1.7-0.8
	c0,0,1.6-0.2,3.6,1l2,1.1l-0.5-4.3l-4.1-1.3l-4.6-0.5l-4.4-1.5c0,0-2.5-1.6-3.6-2.8c-1.1-1.1-1.3-3.1-1.3-3.1l4.9-2.1l6.3-1.6
	l2.6,0.8l4.1-0.8c0,0,4.3-1.5,6.4-2c2.1-0.5,4.9,0.8,9.2,0c4.3-0.8,5.6-1,7.2-0.1c1.6,0.9,3.4,0.9,3.4,0.9l3.6-1.5
	c0,0,3.1,0.1,7.5,0c4.4-0.1,6.4,0,6.4,0l3.9,2.7l5.1,1.5c0,0,3.8,0.2,4.3,0.7c0.5,0.5-2.9,3.1-2.9,3.1l-9.5,1c0,0-1.1,5.9-2,5.9
	c-0.8,0-4.4,1.3-4.4,1.3s-6.5,2.6-7.9,2.9c-1.3,0.3-11.1,1.2-11.1,1.2s-0.8,5.5-1.3,5.9c-0.5,0.3-2.5,2.4-2.5,2.4l0.7,1.5l-8.5,6.1
	c0,0,2.3,1.3,1.3,2.9L271.3,161.8z"/>
<path class="st4" d="M286.7,151c0,0,1.6-2.3,2.6-2.6c1-0.3,5.9-1.3,5.9-1.3s6.9-2.5,8.2-2.8c1.3-0.3,4.9-2.8,4.9-2.8
	s-3.3-0.2-3.4-1.3c-0.2-1.1,0.8-2.5,0.8-2.5s1.5-2.9,2.6-3.3c1.1-0.3,6.4-2,6.4-2l2.4-2.1c0,0,11.1-3.3,12.9-4.1
	c1.8-0.8,14.4,0.5,18.2,0c3.8-0.5,6.1-1,6.1-1s2-1.3,4.6-2c2.6-0.7,12.3-1.3,16.4-0.8c4.1,0.5,7-1.3,7-1.3s22.8-0.6,24.7,0
	c2,0.6,9,1.7,9.5,1.7s3.9,3.4,3.1,3.3c-0.8-0.2-4.6,1-4.6,1s-16.7,0.8-17.5,1.3c-0.8,0.5-1,2.1-0.5,2.1c0.5,0,20.5-1,21-0.8
	c0.5,0.2-2.1,4.1-1.3,4.1c0.8,0,4.7-2,5.2-2c0.5,0,18.3,0.5,19.4,0.5c1.1,0-1,2.8-1,2.8s-5.7,1.8-7.4,2.5c-1.6,0.7-1.8,3.8-2.6,3.8
	c-0.8,0-5.2,2-5.2,2s-1.1,4.6-1.8,6.1c-0.7,1.5-2.8,3.3-2.8,3.3s1.3,2.8,1.8,3.6c0.5,0.8,3.1,3.4,3.1,5.5v2.1c0,0-5.4-1.7-5.9-2.1
	c-0.5-0.4-0.5,2.1-0.5,2.1l1.8,1.5c0,0,0.5,10.8,0,11.8c-0.5,1-1.8,3.9-1.8,3.9l-8.2-3.3c0,0-0.7,3.3,0,3.3c0.7,0,3.9,2.6,3.9,2.6
	l0.7,3.9c0,0-4.4-1.6-5.7-2.5c-1.3-0.8-1.5,0.7-1.5,0.7l1,1l4.9,2.6c0,0,1.5,3.6,1.6,4.9c0.2,1.3-0.3,2.3-0.3,2.3H411l-2.3-2.1
	l-3.4-0.3l-3.1,0.8l-3.1,0.5l-0.5,2.1l4.9,0.8c0,0,5.2-0.7,7,0c1.8,0.7-2.5,3.9-2.9,4.6c-0.5,0.7-6.1,4.6-6.7,4.6s-2.1-0.3-7.7,0
	c-5.6,0.3-8.8,1.3-8.8,1.3l-2.3,3.3c0,0-3.3,2.9-3.8,3.4c-0.5,0.5-4.3,1.1-4.3,1.1h-5.7c0,0-0.8,3.3-1.6,3.8
	c-0.8,0.5-6.7,7.4-6.7,7.4s-3.3,8-4.4,10c-1.1,2-2,4.7-2.9,5.6c-1,0.8-3.4,3.3-3.4,3.3h-4.4l-9.7-7l-3.4-11.1c0,0-1.3-0.2-1.5-1.3
	c-0.2-1.1-3.1-11-3.1-11l0.2-8.8l3.9-3l1.8-1l0.2-4.9l-1.1-0.8l-2.6,2h-2.6l1.1-4.7l2.3-2l4.3-0.3l-3.6-2.8l-4.8-1.1
	c0,0-1-12.4-1.8-13.4c-0.8-1-3.7-3.9-3.7-3.9l-3.6-6l-5.1-2.1l-4.9-1.6l-3.6-0.1l-3.6,0.1h-4.9l-3.6-2.4l-2.6-0.9l2.3-1.3l2.9-2
	l3.1-0.8l-1-1.1h-5.2l-1.6-1.1L286.7,151z"/>
<path class="st4" d="M409.6,217.2h4.1v2.1h2.5l4.9-2.1l8.8-1l2.6,1.6l2.1,3.8l-3.8,7.4l-5.1,2l-5.2,2l-2.6-2.3l-5.7-1.1l-2.6-5.6
	v-0.8l-1.1-2.5l-2.8-1l1.5-2L409.6,217.2z"/>
<path class="st8" d="M101.2,282.8l3.1,2.1l3.3,3.1l1.1,2.9v1.8l-3.8-2.5l-3.1-2.5l-0.7-3.4V282.8z"/>
<path class="st9" d="M89.4,252.5v3.8v3.1l-3.4-3.4v-4.7C85.9,251.2,88.1,250.9,89.4,252.5z"/>
<path class="st10" d="M93.9,259.4l2.6,4.1v3.6l-2.6-2.3l-2.5-2.5L93.9,259.4z"/>
<path class="st9" d="M33.5,255.3l3.3-3.3l3.1-2.5l1.3,1.6l-2.1,2.8l-1.7,2.5h-3L33.5,255.3z"/>
<path class="st3" d="M862.5,374.6v-8.3l1.7-3.6l3,2.7v5v4.3H862.5z"/>
<path class="st3" d="M867.1,359.7l3.6-5h6.3l2.7-3.3l2.6-4.3c0,0,0.7,3.6,2.7-2l2-5.6v-4h5.3l3.6,2v13.9l-2,6l-4,2.3l-10.2,4.6
	c0,0,1.6,3.6-1.7,1.7l-3.3-2l-4.6-1.3h-3V359.7z"/>
<path class="st3" d="M886,330.9v-4.3l3-4.3v-5h5.3l3.6,2l3.6,2l-3.6,6l-5.3,3.6h-3H886z"/>
<path class="st3" d="M887.7,313.3l-1.7-12.6v-2l-4.5-6v-12.9h3.1l1.4,8l5,10.9l2.8,1.7v4.3v7v1.7H887.7z"/>
<path class="st6" d="M801.4,417.5l4.4-3.8h4.2v3.8l-4.3,3.1h-0.9L801.4,417.5z"/>
<path class="st6" d="M835.8,404.2l1.8-5.7l2-2.6l2.2-1.1l2.7,4.8l-4.4,4.8v2.2l-4.3,0.9V404.2z"/>
<path class="st6" d="M837.6,418.2v8l-1.8,4.9l3.2,3.8l4,2.9l1.5-5.5v-7.5v-6.4l-4.3-1L837.6,418.2z"/>
<path class="st6" d="M846.7,433.9l0.9,3.8v1.3l3.1,2.4l1.1-3.8v-3.8l-1.5-1.1L846.7,433.9z"/>
<path class="st6" d="M853.4,441.4v2.2l-1.6,4l-2.5,1.1v3.3h1.2l3-1.3c0,0,2.6-2.4,3.7-4l1.1-1.5v-2.4L853.4,441.4z"/>
<path class="st6" d="M840.1,437.6l5.4,1.8v2l-2.7,0.9l-2.7-0.9l-0.7-1.4L840.1,437.6z"/>
<path class="st6" d="M830.5,452l2.4-5.3l2.8-2.4h2.5l1.1,1.3l-1.1,4l-2.5,2.4l-0.8,4h-4.4V452z"/>
<path class="st6" d="M845.5,459.5l6.3-3.5l1.9-4h2.7l1.4,1.3l0.4,2.4v3.8l-0.4,4.4l-2.6,0.9l-3.5-1.7v-1.8l-5.1,1.8h-1.2V459.5z"/>
<path class="st4" d="M975.8,220.7c-1.3-1.3-27.5-12.9-28.4-13.1c-0.9-0.2-14.2-3.1-14.8-2.2c-0.7,0.9-1.1,4.6-2,4.4
	c-0.9-0.2-2.4-0.9-2.4-0.9l-1.7-2c0,0-12.4,0.4-13.8,0.4c-1.3,0-3.9,2.6-5,2.6c-1.1,0-7.6-8.1-8.7-8.3c-1.1-0.2-19.7-0.9-19.9-1.1
	c-0.2-0.2-0.8-2.8-2.4-3.3c-1.5-0.4-16.2-5.9-17.7-5.9h-14.8c-1.5,0-3.5,4.6-3.5,4.6s-14.2,0.4-15.5,0.7c-1.3,0.2-2,1.1-3.1,1.1
	s-8.1-10.5-9.6-10.9c-1.5-0.4-9.2-1.3-11.1-1.1c-2,0.2-3.7,2-5.2,1.7c-1.5-0.2-6.1,0.4-7.4-0.4c-1.3-0.9-3.1-0.7-4.4-1.3
	c-1.3-0.6-11.8-0.8-12.9-1.1c-1.1-0.2-2.8-2.4-4.2-2.2c-1.3,0.2-6.8,3.3-7.6,3.1c-0.9-0.2,3.1-3.1,3.1-3.1s6.8-4.6,7.2-6.3
	c0.4-1.7-2.6-3.9-3.7-5.5c-1.1-1.5-3.5-2.8-4.8-3.1c-1.3-0.2-7.9-0.9-10-1.7c-2.2-0.9-3.7-3.3-5.5-3.7c-1.7-0.4-3.9-0.2-5.9,0
	c-2,0.2-6.3,5.2-7.4,5.5c-1.1,0.2-14.4,1.3-15.3,1.3c-0.9,0-6.5,4.4-8.3,4.6c-1.7,0.2-5.9,1.7-7.2,3.1c-1.3,1.3-2.6,6.1-4.4,6.1
	c-1.7,0-7-0.4-8.1,0.9c-1.1,1.3-3.7,2.2-2.4,3.1c1.3,0.9,8.7,6.1,7.6,6.6c-1.1,0.4-4.9-1.3-8-2.2c-3.1-0.9-5.8-1.1-6.4-0.7
	c-0.7,0.4-1.7,3.7-3.1,3.5c-1.3-0.2-2.2-5.7-3.1-5.9c-0.9-0.2-3.5,0.9-3.5,3.7c0,2.8,2,7.4,3.3,10.5c1.3,3.1,5.2,5.2,7.2,5.9
	c2,0.7,3.3,3.1,2.2,3.5c-1.1,0.4-5-0.2-5.7,0.2c-0.7,0.4-3.5,6.6-5.5,7.4c-2,0.9-5.7,1.5-5.2,0.9c0.4-0.7,3.7-6.1,3.5-9.6
	c-0.2-3.5-2.3-8.3-3.5-10.9c-1.3-2.6,0.4-6.1,0-8.7c-0.4-2.6-7.4-2.6-9.6-1.7c-2.2,0.9-4.6,4.4-5,6.6c-0.4,2.2,2.6,7.6,4.8,9.8
	c2.2,2.2,0.9,4.4-0.2,4.4c-1.1,0-7.9-5.7-11.8-7.6c-3.9-2-9.2-1.7-11.1-1.5c-2,0.2-2.8,3.5-1.3,3.3c1.5-0.2,5.2,3.1,5.2,3.7
	c0,0.7-14,1.1-15.9,1.5c-2,0.4-4.4-0.9-5-1.1c-0.7-0.2-16.6,10.5-17.5,10.3c-0.9-0.2-1.1-5.9-1.3-6.8c-0.2-0.9-3.7-2.2-4.4-2.4
	c-0.7-0.2-0.9,3.5-1.1,5c-0.2,1.5-3.9,5-3.9,5l-6.1,5.2c0,0,1.7,3.5,0,3.5c-1.7,0-6.6-2.8-8.1-2.8c-1.5,0,0.4,4.7,0,5
	c-0.4,0.3-2.6,0-2.6,0s-7.2-10.6-6.3-11.5c0.9-0.9,6.5-0.7,7.6,0.9c1.1,1.5-0.2,2,1.1,1.5c1.3-0.4,6.3-1.1,6.3-1.1s3.1-3.3,3.1-4.1
	c0-0.9-21.4-14.6-22.7-15.1c-1.3-0.4-0.4,0.4-3.3,0.4c-2.8,0-3.9-0.2-3.9-0.2s-0.9,0.2,0-1.7c0.9-2-5.2-4.8-5.9-5
	c-0.7-0.2-5.2,2-5.9,2c-0.7,0-3.9-0.7-3.9-0.7l-7.9,3.9c0,0-5.2,0.9-6.1,1.7c-0.9,0.9-5,1.1-5.7,1.7c-0.7,0.7-7.2,5.7-5.7,6.3
	c1.5,0.7,1.1,4.4,1.1,4.4s-14,15.7-15.9,17.5c-2,1.7-9.6,8.5-9.8,9.6c-0.2,1.1-2.2,4.2-1.1,4.8c1.1,0.7,3.1,2,3.1,2.8
	c0,0.9,0.9,9,1.7,9.2c0.9,0.2,4.1,0.4,4.1,0.4s4.6-2.8,5.2-2.8c0.7,0,3.8,7.6,4.5,8.7c0.7,1.1,0.9,5.5,0.9,5.5l3.5,1.5
	c0,0,5.9-1.3,7.4-2.2c1.5-0.9,1.3-7.6,1.3-8.7s6.3-7,6.5-8.1c0.2-1.1-2.6-8.3-2.8-9.4c-0.2-1.1,0.9-6.1,2-7.2
	c1.1-1.1,3.3-1.1,4.4-2.4c1.1-1.3,5.7-7.6,6.8-8.5c1.1-0.9,5.2-1.3,5.2-1.3s2,2.8,0.7,3.5c-1.3,0.7-7.2,4.8-7.6,5.9
	c-0.4,1.1-4.1,11.8-2.8,13.1c1.3,1.3,5.2,4.4,7.4,4.8c2.2,0.4,9.2-2,11.4-1.5c2.2,0.4,4.8,2.4,4.8,2.4s-8.1,1.1-9.6,1.7
	c-1.5,0.7-4.1,1.3-4.1,1.3s-0.7,8.1-1.7,8.1c-1.1,0-5.5,1.7-5.5,1.7s-3.9,9.4-5,9.8c-1.1,0.4-24,1.1-26,0.4l-1.1-11.4
	c0,0-3.3,2-3.9,2.8c-0.7,0.9-1.1,9.4-2,10c-0.9,0.7-8.7,5.2-9.1,6.1c-0.3,0.9-10.6,14.2-12.3,14c-1.7-0.2-7-1.1-7.4,0.2
	c-0.4,1.3-0.9,3.5-2.2,4.1c-1.3,0.7-7.4,2-7.4,2s1.3,1.7,2.2,2c0.9,0.2,2.8,0,2.8,0s3.7,6.1,4.6,6.8c0.9,0.7-0.2,8.5-0.4,9.2
	c-0.2,0.7-4.6,0-5.9,0c-1.3,0-5.5-1.1-5.5-1.1s-8.5,2.6-9.6,2.8c-1.1,0.2-3.1,2.2-2.2,3.3c0.9,1.1,2.2,3.1,2.2,3.1l-1.3,4.8
	l-2.8,6.1c0,0,3.9,6.1,5.2,7.4c1.3,1.3,16.6-0.4,17.5,0c0.9,0.4,6.8-5.7,7.4-6.5c0.7-0.9,0-7.2,0-7.2s8.5-4.6,9.6-6.1
	c1.1-1.5,1.1-5,1.1-5s10,0.4,11.3,0.2c1.3-0.2,6.8-0.9,6.8-0.9s6.6,7.6,8.1,9.2c1.5,1.5,10.7,6.5,10.7,6.5s2.2,5.7,2.6,4.8
	c0.4-0.9,0.4-5.9,0.4-5.9s0.4,0.2,1.7-0.2c1.3-0.4-11.8-8.9-12.7-11.4c-0.9-2.4-2.4-6.3-2.4-6.3s15.3,7.4,16.6,9.6
	c1.3,2.2,1.1,10,2.2,10.5c1.1,0.4,4.1,4.2,4.6,5.2c0.4,1.1,2.2,5.5,3.3,5.7c1.1,0.2,3.5,1.5,3.5,1.5s5-5.2,5-5.9
	c0-0.7-3.5-4.8-3.9-5.9c-0.4-1.1,7.2-4.4,9-4.6c1.7-0.2,5.2,1.3,5.2,1.3s-5.9,4.6-4.6,5.9c1.3,1.3,3.9,10.3,5.7,10.5
	c1.7,0.2,18.8-1.3,20.1,0c1.3,1.3,2,2.9,2,2.9s-1,16-4.9,16c-3.9,0-11.8,0.3-10.2,1c1.6,0.7,6.2,7.6,12.2,10.8
	c3.7,1.9,13.2,18.4,13.6,21.4c0.3,2.9,13.8,33,16.4,34.3c2.6,1.3,30.5-11.1,33.4-12.4c2.9-1.3,13.4-16.4,13.4-18
	c0-1.6-7.2-14.1-7.9-15.1c-0.7-1-11.8,5.2-13.8,4.6c-2-0.7-12.1-19-10.8-19.7c1.3-0.7,6.5,2.3,6.5,2.3s4.9,9.2,6.6,9.5
	c1.6,0.3,11.5-2,12.8-1.6c1.3,0.3,2,5.9,3.9,5.9c1.1,0,7.9,0.3,13.7,0.8l12.1-13.8v-11.7v-6v-9.9l10.6-5.4l8-7.5l4.4-7.5v-19v-10.7
	l8.8-4.7l9.2-1.3l3.3-10v-15.5l6.9-10h6.2h8v4.4l9.7,9.3h5.3l7.8,5.1h11.6l10.6,6.7l8.2,1l8.2,5.2h10.5l8.8-5.2l5-7.7l5-5.1v-3.7
	l-5-12.6l-8.8-2.1l-0.9-7.8l4.7-6.1h5l5-9.6h9.5l5.4,5.9h7.5l11.5,9.8l8,2.6h10.3l2.5,7.9c5.2-0.5,11.7-0.8,12.3-0.4
	c0.9,0.7,2.4,3.3,4.6,3.5c2.2,0.2,7.6-3.9,9.2-3.7c1.5,0.2-2.2-3.5-2.2-3.5s3.7-5.2,5.2-5.2c1.5,0,3.7,2,5.2,2.6
	c1.5,0.7,9.2-5.9,9.2-5.9s1.3,1.5,1.3,2.2c0,0.7-8.3,13.5-10,14.6c-1.7,1.1-4.4,3.7-4.4,3.7s-1.7,10-0.9,11.8
	c0.9,1.7,8.5,21,9.6,19.2c1.1-1.7,7.2-12.4,7.6-14c0.4-1.5-1.3-3.5,0-5.5c1.3-2,4.4-3.9,4.4-5.2c0-1.3-1.7-5.7-2-7.4
	c-0.2-1.7-2.6-3.1-2.6-3.1s0.7-4.6,2.8-5c2.2-0.4,2.6-2.2,6.6-2.4c3.9-0.2,5.9-0.4,5.9-0.4s3.3,1.5,4.1,1.5c0.9,0,5.5-9.2,6.8-9
	c1.3,0.2,4.6,0.9,5.5,0.4c0.9-0.4,3.7-1.5,3.7-1.5s3.5-0.9,3.5-2.2c0-1.3-3.3-7.9-4.4-8.3c-1.1-0.4-2.6-2-2.6-2s1.7-2,2.6-2.4
	c0.9-0.4,1.3-3.7,1.3-3.7s1.5-1.5,3.1,0c1.5,1.5,12.9,9.4,15.9,9.8l3.1,0.4v-5.5c0-1.1,1.7-4.1,1.7-4.1S977.1,222,975.8,220.7"/>
<path class="st3" d="M872.5,251.2l-8-2.6l-11.5-9.8h-7.5l-5.4-5.9h-9.5l-5,9.6h-5l-4.7,6.1l0.9,7.8l8.8,2.1l5,12.6v3.7l-5,5.1
	l-5,7.7l-8.8,5.2h-10.5l-8.2-5.2l-8.2-1l-10.6-6.7h-11.6l-7.8-5.1h-5.3l-9.7-9.3v-4.4h-8h-6.2l-6.9,10v15.5l-3.3,10l-9.2,1.3
	l-8.8,4.7v10.7v19l-4.4,7.5l-8,7.5l-10.6,5.4v9.9v6v11.7l-12.1,13.8c4.3,0.3,8,0.7,8.6,1c1.3,0.8,11.5,10.6,11.5,10.6l-2.6,2
	c0,0,3.6,4.3,5.2,4.6c1.6,0.3,7.9-2.3,7.9-2.3s2,14.4,2.3,15.7c0.3,1.3,9.5,29.8,12.4,29.5c2.9-0.3,5.9-5.9,7.5-9.8
	c1.6-3.9,0.7-12.8,2.3-15.1c1.6-2.3,6.6-2.3,7.2-4.3c0.7-2,3.6-8.8,3.6-8.8s8.2-1,8.5-2.3c0.3-1.3,1.6-5.2,1.6-5.2l9.2-3.9
	c0,0,2.3,7.5,3.9,7.9c1.6,0.3,8.2,6.5,8.2,6.5s-1.6,9.2-0.7,9.5c1,0.3,9.8-0.7,9.8-0.7s2.7,11.4,0.9,13.2c0,0,1.6,13.4,2.8,16.3
	c1.2,2.8,6.9,8.1,7.8,10.4c0.9,2.3,0,6.8,1.7,8.7c1.7,2,7.4,6,8.8,6.7c1.4,0.7,0.8-4.1,1-5.5c0.2-1.3-1.6-0.8-1.6-4.2
	c0-3.4-0.1-3.9-0.7-5.5c-0.5-1.5-9.3-10-10.5-11c-1.2-1-3-3.2-3.3-4.4c-0.3-1.2-0.2-7-0.2-8.2c0-1.2,3.4-5.5,3.5-5.5
	c0.2,0,6.4,7.4,7.7,8.4c1.3,1,4.3,8.3,5.7,8.7c1.4,0.4,10.5-9.9,11.6-12c1.1-2.1,2.1-11.4,0-13.4c-2.1-2.1-7.2-4.9-7.8-7.3
	c-0.5-2.4-2.3-6.5-1.2-8.2c1.1-1.6,5.1-4.7,6-4.9c0.9-0.2,4.3,2.2,5.4,2.1c1.1-0.1,3.6-1,4.9-1.2c1.3-0.2,12.9-5.9,15.3-8.7
	c2.4-2.8,12.2-17.9,11.9-20.3c0,0-2.9-4.4-2.2-5.7c0.7-1.3,2.2-4.6,2.2-4.6l-9.1-12.8c0,0,8.1-7.2,6.8-8.5c-1.3-1.3-16.4-2-15.7-3.6
	c0.7-1.6,7.2-10.5,8.2-10.5c1,0,2.6,6.9,2.6,6.9s8.2-2,9.5-1c1.3,1,1.3,6.2,2.3,8.2c1,2,4.9,11.5,6.6,11.1c1.6-0.3,2.9-4.9,6.5-5.2
	c3.6-0.3,0-7.2,0-10.2c0-2.9-4.9-3.9-4.3-7.5c0.7-3.6,3.6-10.2,8.2-10.8c4.6-0.7,10.5-5.6,13.4-9.5c2.9-3.9,6.6-17.7,4.9-22.9
	c-1.6-5.2-2-12.8-2-12.8l-7-1.7c0,0-5,0.7-5,0c0-0.7-3.3-4.4-3.3-4.4s16.1-17.2,17.7-17.9c0.6-0.2,3.2-0.6,6.3-0.9l-2.5-7.9H872.5z"
	/>
<path class="st3" d="M915.3,270l8,2.5l2.5,5l6.3,1v5.5l-6.3,16l-10.5-15l-0.4-6.2L915.3,270z"/>
<path class="st3" d="M805.2,481.8l3.5,1.9h4.4l3.9,0.7l3.7-2.6l3.9-5.2l3.8-3.9l0.5-2.5l3.2-2.3l2-1.8c0,0-3.4-1.9-4.6-1.3
	c-1.2,0.7-3.1,1.9-3.1,1.9l-6.8,6.5l-2.6,1.3l-4.2,5l-3.4,0.6C809.4,480,805.4,481.3,805.2,481.8z"/>
<path class="st4" d="M185.3,358.6h-10.6l-14.6,3.4l-4.9-3.4l-8.4-2.3l-10.6,2.3l-20.6-1.4c0.5,2.7,1,6.2,2.3,7.2c2,1.5,2.8,9,3.1,10
	c0.3,1,1,3.3,2.6,3.9c1.6,0.7,3.8,6.7,4.3,8.4c0.5,1.6,5.2,5.4,6.4,5.7c1.1,0.3,1.6-2.6,1.6-2.6s-3.9-5.2-4.3-6.5
	c-0.3-1.3-1.8-5.4-2-5.9c-0.2-0.5-3.6-11.8-2.9-11.8c0.7,0,1.5,0.3,1.5,0.3s4.6,10.8,5.2,12.3c0.7,1.5,8.5,10.3,9.5,11.3
	c1,1,3.1,14.2,3.6,14.7c0.5,0.5,10.2,9.2,11.1,10c1,0.8,7.2,4.4,8.7,5.2c1.5,0.8,4.8,1,5.2,1s10.8,0.2,11.1,0.8
	c0.3,0.7,5.7,6.2,6.1,7c0.3,0.8,8.8,0.8,10,1.1c1.1,0.3,3.1,4.7,3.4,6.1c0.3,1.3,10.2,12.1,11.3,13.3c1.1,1.1,6.9,1.3,7.7,1.1
	c0.8-0.2,2.8-1.1,3.4-1.8c0.7-0.7,0.7-2.9,0.7-2.9s-1.6-1.8-2.5-1.8h-3.9c0,0-5.9-3.9-6.4-5.1c-0.5-1.1,1.1-16.5,0.8-17.2
	c-0.3-0.7-12-2.6-12.4-3.6c-0.5-1,0-4.1,0-4.1s3.6-8.2,3.6-9.2c0-1-3.8-3.8-3.8-3.8s-13.5,7.9-14.4,8.4c-0.8,0.5-12.9-0.8-13.6-1.8
	c-0.7-1,0.5-23.6,0.8-25.5c0.3-2,6.2-8.2,8.8-8.8c2.6-0.7,16.4-0.3,17.5-0.8c1.1-0.5,5.4-2.6,5.4-2.6l-8.2-7.1L185.3,358.6z"/>
<path class="st3" d="M306.2,273.7l-7.7-9.7c0,0-2.3-12.4-2.8-13.1c-0.5-0.7-4.3-4.6-4.3-4.6s-2.8,3.1-3.3,3.6l-2,2l-6.2-0.7
	c0,0-1.6-10.5-2.3-11c-0.7-0.5-10.5-7.2-11.6-7.7c-1.1-0.5-8.7,1.1-9.3,1.1c-0.7,0-3.3,13.8-3.3,13.8s-1.8,2.5-2.1,2.9
	c-0.3,0.5-0.2,3.9,0.8,4.3c1,0.3,1,4.9,1,4.9l-2.5,6.1c0,0-4.3,2.9-4.9,3.4c-0.7,0.5-2,9.8-2,10.5s-1.3,4.9-2.6,4.3
	c-1.3-0.7-2-5.1-2-5.1l-3.1-1.6c0,0-1-5.6-1.5-7c-0.5-1.5-8.5-5.9-8.5-5.9s-8.7-6.2-9.3-6.4c-0.7-0.2-6.6-2.3-6.6-2.3l-0.8-2.8
	c0,0-2.5-0.8-2.8-1.3c-0.3-0.5-0.5-4.7,0.5-5.9c1-1.1,12.3-16.2,13.3-16.7c1-0.5,5.2-1,5.2-1s10.3-11,11.6-11.8c1.3-0.8,6.4-2,6.4-2
	s6.7-2.1,7.4-2.6c0.7-0.5,1.8-11,1.1-11.8c-0.7-0.8-7-1.6-7.7-1.3c-0.7,0.3-0.8,3.8-2.6,4.4c-1.8,0.7-6.7,5.2-6.7,5.2
	s-0.7-7.5-1.1-7.5c-0.5,0-4.6-0.2-4.6-0.2s-1.3-3.5-1.8-3.1c-0.5,0.4-2.3,0-2.3,0s-0.2-6.5-0.8-8.3c-0.7-1.8-4.3-3.4-4.3-3.4
	s-5.1,6.9-5.2,7.4c-0.2,0.5,1.6,2.6,1.6,2.6l4.8,1.8c0,0-1.8,2.8-2,3.6c-0.2,0.8-3.4,1.8-3.4,1.8l-1.5-2.8l-5.4-3.4
	c0,0-4.9,2.9-4.6,3.9c0.3,1,2.1,1.6,2.1,1.6l-1.6,1.8c0,0-8.4,0.7-10.3,0.7s-11.1-2.5-12.1-2.3c-1,0.2-2.3,3.4-2.3,3.4
	s-5.7,0.3-6.4,0.2c-0.7-0.2-12.9-1.3-12.8-1.8c0.2-0.5,1.8-2.1,1.8-2.1l-0.7-1.5l-12.4-1.5c0,0-1.5-1.6-3.1-2.6
	c-1.6-1-12.4-1-12.4-1s-1.3-1.8-2.6-2.1c-1.3-0.3-15.4,0.7-15.4,0.7s-6.4,4.3-7.4,4.4c-1,0.2-10.6-0.8-10.6-0.8s-5.9-4.1-7.5-4.3
	c-1.6-0.2-13.4-1.3-14.4-1.6c-1-0.3-4.6-1.8-4.6-1.8s-2.8,1-3.3,1c-0.5,0-2.5-1.6-3.8-2.5c-1.3-0.8-16.7-2-18-1.3
	c-1.3,0.7-4.9,2.5-4.9,2.5s-8,2.8-8.7,2.8c-0.7,0-2,4.3-3.4,4.7c-1.5,0.5-7.4,0.8-7.5,1.5c-0.2,0.7-1,3.1-1,3.1s4.7,2.8,5.1,3.4
	c0.3,0.7-0.5,3.1,0.7,3.6c1.1,0.5-2.8,1.5-3.6,1.3c-0.8-0.2-5.7,1.6-5.7,1.6s-3.1,3.4-3.3,4.1c-0.2,0.7,0,2,0,2s10.5-0.2,10.5,0.8
	c0,1-0.5,3.8-0.5,3.8s-6.7,2.5-7,3.4c-0.3,1-6.7,5.9-7,6.7c-0.3,0.8-0.2,9.3,0.8,10c1,0.7,2.3,1.5,2.3,1.5s0,2.8,0.2,3.4
	c0.2,0.7,11.3,1.5,11.3,1.5s0.5,4.4-0.5,4.7c-1,0.3-8.4,3.4-10.5,3.9c-2.1,0.5-12.3,9-12.3,9s-1.1,1,0,1.1
	c1.1,0.2,10.2-4.9,10.6-4.9c0.5,0,6.9-0.3,9.2-0.5c2.3-0.2,9.2-5.9,10.2-6.9c1-1,3.3-5.1,3.3-5.1s4.3-1.6,5.4-2.1
	c1.1-0.5,2.5-3.3,2.5-3.3l6.7-9c0,0,3.3,1.1,2.8,1.6c-0.5,0.5-7.2,6.2-6.7,6.5c0.5,0.3-1.5,3.1-0.5,2.8c1-0.3,7.4-3.8,8.7-3.8
	c1.3,0,3.1-0.3,3.1-0.3s2-3.3,2.6-3.3c0.7,0,3.3,2.9,3.9,3.1c0.7,0.2,14.9-0.3,16.4,0.2c1.5,0.5,4.4,3.6,4.4,3.6s5.2,0.3,6.5,0.3
	c1.3,0,3.3,2.6,3.3,2.6s4.7,12,5.9,13.6c1.1,1.6,2.8,17.7,3.3,18.3c0.5,0.7,2.8,1.1,3.8,2c1,0.8,2.1,5.1,2.8,5.4
	c0.7,0.3,2.8,3.8,2.8,3.8s-3.4,3.4-4.1,3.9c-0.7,0.5-0.2,15.9-1,17c-0.8,1.1-3.9,4.1-3.9,5.1c0,1-0.8,13.4-0.3,16.4
	c0.5,2.9,6.1,18,7.7,18.2c1.6,0.2,2.9-0.3,4.1,1.3c0.4,0.6,0.7,1.8,0.9,3.2l20.6,1.4l10.6-2.3l8.4,2.3l4.9,3.4l14.6-3.4h10.6
	l11.9,3.4l8.2,7.1c0,0,8.5,0,9.7,0.8c1.1,0.8,4.4,12.1,5.2,13.1c0.8,1,4.7,4.3,5.1,3.6c0.3-0.7,2.1-4.6,2.1-4.6s-1.6-11-1.6-11.6
	c0-0.7,0.7-4.7,0.3-5.7c-0.3-1,10.3-9.2,11.8-10.2c1.5-1,3.6-3.6,3.6-3.6s2.6-9.7,3.4-10.2c0.8-0.5,8.2-10.5,9.2-10.8
	c1-0.3,6.1-3.1,7-3.8c1-0.7,1.3-3.4,2-4.4c0.7-1,6.2-5.1,6.2-5.1s5.2,0.5,6.1,0c0.8-0.5,4.4,0,4.4,0l9.2-5.7c0,0-7.4-6.5-8.4-6.4
	c-1,0.2-1.1-5.9-0.7-6.7c0.5-0.8,2-3.4,2-3.4s-0.2-2.8,0.5-3.1c0.7-0.3,8-1.1,8-1.1s3.9,1.1,4.9,1.1s14.1-9.5,14.1-9.5
	s-0.3-5.6,0-6.1C309.9,275.3,306.2,273.7,306.2,273.7z"/>
<path class="st3" d="M474.6,296.1l6.2,1.8l3.2-0.9c0,0,2.5,0.7,4,0l1.5-0.7v-4.1l-2.3-2.7l-5.2-1.9C482,287.6,476,294.5,474.6,296.1
	z"/>
<g>
	<path class="st0" d="M64,69h75.1c2.8,0,5,2.2,5,5v213c0,2.8-2.2,5-5,5H64c-2.8,0-5-2.2-5-5V74C59,71.2,61.2,69,64,69z"/>
</g>
<line class="st11" x1="106.8" y1="198.2" x2="98.6" y2="198.2"/>
<line class="st11" x1="106.8" y1="143.1" x2="98.6" y2="143.1"/>
<path class="st12" d="M88.9,105.8h27.6"/>
<path class="st12" d="M102.7,92v27.6"/>
<path class="st12" d="M88.9,170.2h27.6"/>
<path class="st3" d="M98.9,222.2c0.8-1.9,3.5-1.9,4.3,0l7.6,19.1c0.6,1.5-0.5,3.1-2.1,3.1H93.5c-1.6,0-2.7-1.6-2.1-3.1L98.9,222.2z"
	/>
<path class="st13" d="M103.2,268.9c-0.8,1.9-3.5,1.9-4.3,0l-7.6-19.1c-0.6-1.5,0.5-3.1,2.1-3.1h15.1c1.6,0,2.7,1.6,2.1,3.1
	L103.2,268.9z"/>
</svg>
