<svg width="103" height="106" viewBox="0 0 103 106" fill="none" xmlns="http://www.w3.org/2000/svg">
<g filter="url(#filter0_d)">
<path d="M94.9566 48.6339C93.4635 48.5896 92.1769 49.7565 91.8116 51.3605C89.5005 51.5433 86.8598 51.6054 83.961 51.4194C82.3487 51.3129 80.816 51.1416 79.3824 50.9291C79.3904 50.6485 79.3943 50.365 79.3943 50.0815C79.3943 48.7021 79.2951 47.3463 79.1124 46.0198C79.8431 45.4495 80.7564 44.85 81.8643 44.3362C83.7823 43.4382 85.5772 43.1194 86.963 43.0276C87.6421 44.6019 89.2027 45.5178 90.6958 45.1189C92.3795 44.6701 93.3444 42.7291 92.844 40.7827C92.3477 38.836 90.5846 37.6191 88.9009 38.0679C87.3681 38.4785 86.4309 40.1268 86.6533 41.8903C85.4422 42.5934 83.6393 43.3554 81.4076 43.4114C80.3077 43.4411 79.3427 43.2904 78.5604 43.0958C78.0641 41.0366 77.3533 39.0634 76.4439 37.2028C77.4049 36.3165 78.5406 35.377 79.8708 34.4701C81.7968 33.1529 83.6552 32.2106 85.2873 31.5339C86.3515 32.8044 88.0471 33.2268 89.3575 32.4531C90.8625 31.5664 91.2834 29.4308 90.3026 27.6879C89.3218 25.9455 87.3006 25.2542 85.7956 26.1433C84.4891 26.9142 83.9967 28.6274 84.5367 30.2049C83.135 31.3154 81.4116 32.488 79.3427 33.5339C77.937 34.2487 76.5908 34.7922 75.3717 35.2057C74.375 33.5014 73.2116 31.9121 71.9011 30.4617C72.4054 28.5949 73.2552 26.415 74.7046 24.229C76.0667 22.1852 77.5756 20.6934 78.8583 19.6446C80.2719 20.5398 82.0509 20.4009 83.0635 19.2223C84.2151 17.8872 83.953 15.728 82.4718 14.399C80.9986 13.0668 78.8702 13.0692 77.7226 14.4047C76.71 15.5834 76.7894 17.4002 77.8417 18.7259C77.0118 20.1264 75.7569 21.8631 73.9144 23.5175C71.8812 25.3428 69.8402 26.4357 68.2836 27.0856C66.5125 25.7002 64.5826 24.5243 62.5217 23.5942C62.8195 22.7461 63.2166 21.8928 63.7368 21.054C64.1537 20.3892 64.6025 19.8043 65.0552 19.2933C66.6237 19.946 68.3828 19.4765 69.1731 18.109C70.0626 16.5818 69.4113 14.5079 67.7197 13.4803C66.028 12.4523 63.9393 12.8568 63.0498 14.3868C62.2715 15.7312 62.6805 17.4973 63.9393 18.602C63.6772 19.3112 63.3596 20.0468 62.9783 20.7965C62.5455 21.6592 62.0769 22.4541 61.5806 23.1893C61.3701 23.1036 61.1636 23.0211 60.9531 22.9443C58.4991 22.0049 55.8822 21.4115 53.1541 21.2104C52.7054 19.9757 52.3163 18.6073 52.0423 17.1045C51.4863 14.0379 51.5896 11.369 51.8477 9.36462C53.452 9.05024 54.6512 7.76272 54.6512 6.21969C54.6512 4.4415 53.0589 3 51.0932 3C49.1236 3 47.5273 4.4415 47.5273 6.21969C47.5273 7.78912 48.7702 9.09452 50.4142 9.37965C50.7715 11.3552 51.0059 14.1204 50.4579 17.3259C50.2117 18.7369 49.8503 20.0228 49.4294 21.1869C46.8125 21.3376 44.2989 21.8538 41.9242 22.6856C41.5946 22.1487 41.2968 21.5849 41.0308 20.92C40.5066 19.6032 40.2802 18.3693 40.1889 17.3421C41.7257 16.5237 42.5159 14.8068 41.9758 13.2882C41.3802 11.618 39.3987 10.8232 37.5482 11.5136C35.7017 12.2041 34.6851 14.1175 35.2847 15.7881C35.801 17.2292 37.3457 18.0159 38.946 17.7613C39.4146 18.7446 39.8633 19.8782 40.2127 21.1661C40.4034 21.8481 40.5423 22.515 40.6496 23.1673C38.4933 24.041 36.4721 25.1803 34.6137 26.5438C33.6368 25.8204 32.6361 24.9809 31.6473 23.9971C29.372 21.7319 27.855 19.4087 26.8583 17.548C27.9623 16.2987 28.1569 14.5099 27.2316 13.2776C26.1714 11.8674 24.0469 11.7187 22.4863 12.9449C20.9297 14.1716 20.5246 16.3084 21.5809 17.7182C22.522 18.9639 24.2852 19.2231 25.7624 18.4205C27.1998 19.7393 29.0702 21.8193 30.5156 24.8094C31.1788 26.177 31.6394 27.5068 31.965 28.7468C31.6672 29.0271 31.3654 29.3162 31.0755 29.6111C29.6261 31.0989 28.3276 32.7463 27.2157 34.529C26.5605 34.336 25.8815 34.1025 25.1866 33.8166C22.9271 32.886 21.1759 31.6997 19.9052 30.666C20.4452 29.0584 19.9171 27.324 18.5749 26.5718C17.054 25.7168 15.0526 26.4544 14.1075 28.2192C13.1585 29.9832 13.6271 32.1066 15.1559 32.9612C16.4941 33.7126 18.2016 33.2325 19.238 31.9068C20.7788 32.4519 22.7007 33.3263 24.6822 34.7621C25.2739 35.191 25.814 35.6321 26.3183 36.0757C24.7498 38.9667 23.6538 42.1621 23.1336 45.5543C21.7795 45.6725 20.3182 45.7294 18.7496 45.6798C16.51 45.6096 14.4887 45.3411 12.7217 44.9918C12.6819 43.2177 11.5224 41.7327 9.94992 41.5638C8.21857 41.3777 6.65005 42.8497 6.44356 44.8508C6.24104 46.852 7.47601 48.6246 9.20338 48.8098C10.7441 48.9751 12.1498 47.8264 12.5906 46.1616C14.4014 46.1989 16.4345 46.3646 18.6384 46.7525C20.1672 47.021 21.5769 47.3634 22.8834 47.744C22.8199 48.5145 22.7921 49.2935 22.7921 50.0815C22.7921 51.9527 22.9628 53.7824 23.2964 55.5566C21.7954 56.5716 19.7304 57.7227 17.0977 58.5309C14.7905 59.2397 12.7137 59.4809 11.0578 59.5329C10.4622 57.9554 8.98497 56.9712 7.48792 57.2665C5.78437 57.6036 4.7003 59.4781 5.07357 61.4537C5.44684 63.4297 7.1345 64.7578 8.83805 64.4207C10.3152 64.1291 11.3199 62.6884 11.3239 61.0272C13.0195 60.4635 15.0209 59.9342 17.2962 59.5898C19.9091 59.1942 22.256 59.1373 24.2335 59.2251C25.0238 61.6734 26.1356 63.9731 27.5056 66.0783C26.8584 66.6018 26.1396 67.1185 25.3255 67.6014C23.7729 68.5266 22.2838 69.1022 20.9892 69.4742C20.1156 68.0449 18.4796 67.3739 17.0659 67.958C15.4577 68.6257 14.7469 70.6785 15.4855 72.5424C15.9501 73.7122 16.8753 74.5334 17.8998 74.8141C18.5034 74.9822 19.1428 74.9619 19.7424 74.7138C19.9171 74.6398 20.0878 74.548 20.2427 74.4388C21.4181 73.6419 21.9185 71.9896 21.4221 70.4133C22.6451 69.7679 24.0747 69.1286 25.7187 68.6014C26.7789 68.2635 27.7876 68.0165 28.7366 67.8329C29.6023 68.9783 30.5553 70.053 31.5759 71.0449C31.6712 71.1395 31.7704 71.2341 31.8658 71.3223C31.1748 72.8998 30.1344 74.8169 28.5658 76.7604C27.0291 78.6629 25.4328 80.0479 24.0866 81.0264C22.7404 80.0479 20.9733 80.069 19.8893 81.1649C18.6503 82.4142 18.7695 84.5885 20.1553 86.021C21.5333 87.4503 23.6617 87.5985 24.8967 86.3488C25.9728 85.2643 26.0244 83.4808 25.1111 82.0954C26.1674 80.686 27.5453 79.0971 29.3045 77.5285C31.1986 75.8449 33.065 74.5984 34.6931 73.6797C36.8454 75.245 39.224 76.5123 41.7614 77.4192C41.6622 78.3969 41.4914 79.4513 41.2094 80.5593C40.5979 82.9727 39.6846 84.9073 38.8547 86.3313C37.2226 85.997 35.6104 86.7594 35.0584 88.2188C34.4349 89.8759 35.4158 91.8076 37.2504 92.5343C39.081 93.2609 41.0744 92.5046 41.7058 90.8446C42.2498 89.4031 41.5827 87.7549 40.1889 86.8744C40.582 85.1583 41.2055 83.1287 42.1903 80.9488C42.6747 79.8859 43.187 78.9168 43.7112 78.0338C45.6689 78.5744 47.7059 78.9054 49.8106 78.9968C50.1521 80.6807 50.43 82.5649 50.565 84.6238C50.7676 87.6867 50.6048 90.3986 50.3189 92.6374C48.7225 92.9538 47.5273 94.2414 47.5273 95.7807C47.5273 97.5589 49.1196 99 51.0932 99C53.0589 99 54.6512 97.5589 54.6512 95.7807C54.6512 94.2475 53.4639 92.9624 51.8755 92.6403C51.6094 90.3511 51.4665 87.6457 51.6174 84.6238C51.7206 82.5852 51.9469 80.7039 52.2329 79.0025C54.4328 78.9168 56.5652 78.5715 58.6023 77.9952C58.777 78.3022 58.9478 78.6215 59.1146 78.9497C60.2225 81.1145 60.8181 83.1441 61.1398 84.7684C59.7222 85.6104 58.9994 87.2468 59.5117 88.7061C60.0915 90.3808 62.069 91.1903 63.9234 90.5164C65.7739 89.8402 66.8064 87.9349 66.2226 86.2602C65.7064 84.7745 64.0902 83.9707 62.4383 84.2781C61.6798 82.9459 60.7983 80.9342 60.4925 78.3587C60.4528 78.0394 60.425 77.7267 60.4091 77.4192C62.6765 76.6158 64.8129 75.52 66.7786 74.1788C68.0453 75.2332 69.3795 76.4916 70.7058 77.9862C72.7469 80.2843 74.2321 82.5503 75.3042 84.4759C74.2162 85.7225 74.0295 87.4978 74.9468 88.7236C76.0111 90.1326 78.1316 90.2805 79.6922 89.0542C81.2488 87.8288 81.6538 85.6932 80.5976 84.2814C79.6803 83.0641 77.9688 82.7863 76.5154 83.528C74.9508 81.9061 73.2155 79.8534 71.5437 77.3307C70.4636 75.6999 69.5702 74.1171 68.8355 72.6309C69.6258 71.9782 70.3802 71.2841 71.1029 70.5485C72.2784 69.3434 73.3545 68.0348 74.3075 66.6347C76.0667 67.1372 78.0958 67.8727 80.2481 68.9771C82.3249 70.038 84.0563 71.2045 85.4501 72.2914C84.9219 73.8689 85.4223 75.5761 86.7327 76.338C88.2417 77.2214 90.255 76.5184 91.2318 74.7727C92.2087 73.0241 91.7719 70.8942 90.2629 70.0108C88.9445 69.2403 87.2331 69.6806 86.1768 70.9742C84.6202 70.3682 82.73 69.4499 80.7723 68.0409C78.7391 66.5787 77.2024 65.0101 76.0905 63.6571C76.841 62.2161 77.4763 60.7007 77.9846 59.1231C78.8265 59.1528 79.72 59.2295 80.6412 59.3713C83.0199 59.7376 85.0014 60.4257 86.5262 61.1109C86.3952 62.7948 87.3244 64.3366 88.7976 64.7237C90.4813 65.1668 92.2444 63.9467 92.7368 61.9975C93.2252 60.0479 92.2603 58.1101 90.5726 57.667C89.0954 57.2767 87.5507 58.1751 86.8638 59.7254C85.2476 59.5898 83.1707 59.2263 80.9033 58.3287C80.0456 57.9859 79.2514 57.6049 78.5287 57.206C78.89 55.7442 79.1442 54.2402 79.2752 52.6984C80.7405 52.5773 82.2971 52.5006 83.9371 52.4973C86.828 52.4888 89.4568 52.7012 91.7639 53.0144C92.0419 54.6362 93.261 55.8709 94.7501 55.9185C96.4894 55.9684 97.9467 54.3791 97.9984 52.3678C98.0539 50.3564 96.6919 48.6843 94.9566 48.6339Z" fill="#128E5A" fill-opacity="0.47"/>
</g>
<defs>
<filter id="filter0_d" x="0" y="0" width="103" height="106" filterUnits="userSpaceOnUse" color-interpolation-filters="sRGB">
<feFlood flood-opacity="0" result="BackgroundImageFix"/>
<feColorMatrix in="SourceAlpha" type="matrix" values="0 0 0 0 0 0 0 0 0 0 0 0 0 0 0 0 0 0 127 0"/>
<feOffset dy="2"/>
<feGaussianBlur stdDeviation="2.5"/>
<feColorMatrix type="matrix" values="0 0 0 0 0 0 0 0 0 0 0 0 0 0 0 0 0 0 0.1 0"/>
<feBlend mode="normal" in2="BackgroundImageFix" result="effect1_dropShadow"/>
<feBlend mode="normal" in="SourceGraphic" in2="effect1_dropShadow" result="shape"/>
</filter>
</defs>
</svg>
