<svg width="190" height="155" viewBox="0 0 190 155" fill="none" xmlns="http://www.w3.org/2000/svg">
<g opacity="0.5" filter="url(#filter0_d)">
<path d="M79.5731 104.795C78.3187 104.758 77.2379 105.736 76.931 107.08C74.9894 107.233 72.7709 107.285 70.3356 107.129C68.9812 107.04 67.6934 106.896 66.4891 106.718C66.4958 106.483 66.4991 106.245 66.4991 106.008C66.4991 104.852 66.4157 103.716 66.2623 102.604C66.8761 102.126 67.6434 101.624 68.5742 101.194C70.1855 100.441 71.6934 100.174 72.8577 100.097C73.4281 101.416 74.7392 102.184 75.9935 101.849C77.408 101.473 78.2187 99.8468 77.7983 98.2159C77.3813 96.5845 75.9001 95.5648 74.4856 95.9409C73.1979 96.285 72.4106 97.6662 72.5975 99.144C71.58 99.7331 70.0654 100.372 68.1905 100.419C67.2664 100.443 66.4558 100.317 65.7986 100.154C65.3816 98.4285 64.7844 96.7751 64.0205 95.216C64.8278 94.4733 65.7819 93.6861 66.8995 92.9261C68.5174 91.8223 70.0787 91.0327 71.4498 90.4657C72.3439 91.5303 73.7684 91.8843 74.8693 91.2359C76.1336 90.4929 76.4873 88.7033 75.6633 87.2429C74.8393 85.7827 73.1412 85.2035 71.8768 85.9485C70.7793 86.5945 70.3656 88.0301 70.8193 89.352C69.6417 90.2825 68.1939 91.2651 66.4558 92.1415C65.2748 92.7406 64.1439 93.196 63.1197 93.5424C62.2824 92.1143 61.3049 90.7825 60.2041 89.5671C60.6277 88.0029 61.3416 86.1762 62.5593 84.3444C63.7035 82.6317 64.9712 81.3816 66.0488 80.5028C67.2364 81.253 68.731 81.1366 69.5817 80.1489C70.5491 79.0301 70.3289 77.2208 69.0846 76.1072C67.8469 74.9908 66.0588 74.9929 65.0947 76.1119C64.244 77.0997 64.3107 78.622 65.1948 79.733C64.4975 80.9065 63.4433 82.3619 61.8954 83.7481C60.1873 85.2777 58.4726 86.1935 57.1649 86.7381C55.677 85.5772 54.0557 84.5918 52.3243 83.8124C52.5745 83.1018 52.9081 82.3867 53.3451 81.6839C53.6954 81.1267 54.0724 80.6366 54.4527 80.2085C55.7704 80.7554 57.2483 80.3619 57.9122 79.216C58.6595 77.9362 58.1123 76.1984 56.6912 75.3373C55.27 74.4759 53.5153 74.8148 52.768 76.097C52.1141 77.2235 52.4578 78.7034 53.5153 79.6292C53.2951 80.2234 53.0282 80.8398 52.708 81.4681C52.3443 82.191 51.9507 82.8571 51.5337 83.4731C51.3569 83.4013 51.1834 83.3322 51.0066 83.2679C48.9449 82.4806 46.7464 81.9834 44.4546 81.8149C44.0776 80.7802 43.7507 79.6336 43.5205 78.3743C43.0534 75.8046 43.1402 73.5682 43.357 71.8885C44.7048 71.6251 45.7123 70.5462 45.7123 69.2532C45.7123 67.7631 44.3745 66.5552 42.7232 66.5552C41.0685 66.5552 39.7274 67.7631 39.7274 69.2532C39.7274 70.5683 40.7716 71.6622 42.1527 71.9011C42.453 73.5566 42.6498 75.8737 42.1894 78.5598C41.9826 79.7422 41.679 80.8197 41.3254 81.7952C39.1269 81.9215 37.0152 82.354 35.0203 83.0511C34.7434 82.6011 34.4932 82.1287 34.2697 81.5716C33.8293 80.4681 33.6391 79.4341 33.5624 78.5734C34.8535 77.8876 35.5173 76.4489 35.0636 75.1763C34.5632 73.7768 32.8985 73.1107 31.3439 73.6893C29.7927 74.2679 28.9387 75.8713 29.4424 77.2712C29.8761 78.4788 31.1738 79.138 32.5182 78.9246C32.9119 79.7486 33.2889 80.6985 33.5824 81.7778C33.7426 82.3492 33.8593 82.9081 33.9494 83.4547C32.1379 84.1868 30.4399 85.1415 28.8786 86.2841C28.058 85.6779 27.2173 84.9744 26.3866 84.1501C24.475 82.2519 23.2007 80.3051 22.3633 78.7459C23.2907 77.699 23.4542 76.2001 22.6769 75.1675C21.7862 73.9858 20.0014 73.8612 18.6903 74.8887C17.3826 75.9166 17.0423 77.7072 17.9297 78.8886C18.7204 79.9324 20.2016 80.1496 21.4426 79.477C22.6502 80.5821 24.2215 82.3251 25.4358 84.8308C25.9929 85.9767 26.3799 87.0911 26.6535 88.1302C26.4033 88.365 26.1497 88.6073 25.9062 88.8544C24.6885 90.1011 23.5977 91.4816 22.6636 92.9754C22.1131 92.8137 21.5427 92.618 20.9589 92.3784C19.0606 91.5987 17.5895 90.6045 16.5219 89.7383C16.9756 88.3912 16.5319 86.9379 15.4043 86.3076C14.1266 85.5911 12.4453 86.2092 11.6513 87.688C10.854 89.1662 11.2477 90.9456 12.532 91.6617C13.6563 92.2913 15.0908 91.889 15.9615 90.7781C17.2559 91.2349 18.8705 91.9676 20.5352 93.1708C21.0322 93.5302 21.4859 93.8998 21.9096 94.2715C20.5919 96.6941 19.6711 99.3717 19.2341 102.214C18.0965 102.313 16.8689 102.361 15.5511 102.319C13.6696 102.261 11.9715 102.036 10.487 101.743C10.4536 100.256 9.47953 99.0119 8.15846 98.8703C6.70394 98.7145 5.38621 99.9479 5.21274 101.625C5.0426 103.302 6.08011 104.787 7.53129 104.942C8.82567 105.081 10.0066 104.118 10.3769 102.723C11.8982 102.754 13.6062 102.893 15.4577 103.218C16.7421 103.443 17.9264 103.73 19.024 104.049C18.9706 104.695 18.9472 105.348 18.9472 106.008C18.9472 107.576 19.0907 109.109 19.3709 110.596C18.1099 111.446 16.3751 112.411 14.1633 113.088C12.2251 113.682 10.4804 113.884 9.08923 113.928C8.58882 112.606 7.3478 111.781 6.09011 112.029C4.65895 112.311 3.74822 113.882 4.06181 115.537C4.37539 117.193 5.79321 118.306 7.22437 118.024C8.46537 117.779 9.30941 116.572 9.31275 115.18C10.7372 114.708 12.4186 114.264 14.3301 113.976C16.5252 113.644 18.4969 113.596 20.1582 113.67C20.8221 115.722 21.7562 117.649 22.9071 119.413C22.3633 119.851 21.7595 120.284 21.0756 120.689C19.7712 121.464 18.5202 121.947 17.4327 122.258C16.6987 121.061 15.3243 120.498 14.1367 120.988C12.7856 121.547 12.1884 123.268 12.8089 124.829C13.1992 125.81 13.9765 126.498 14.8372 126.733C15.3443 126.874 15.8814 126.857 16.3852 126.649C16.5319 126.587 16.6754 126.51 16.8055 126.419C17.793 125.751 18.2133 124.366 17.7963 123.045C18.8238 122.504 20.0248 121.969 21.4059 121.527C22.2966 121.244 23.144 121.037 23.9413 120.883C24.6685 121.843 25.4692 122.743 26.3266 123.575C26.4066 123.654 26.49 123.733 26.5701 123.807C25.9896 125.129 25.1156 126.735 23.7978 128.364C22.5068 129.958 21.1657 131.119 20.0348 131.939C18.9038 131.119 17.4193 131.136 16.5086 132.055C15.4677 133.102 15.5678 134.924 16.7321 136.124C17.8897 137.322 19.6778 137.446 20.7153 136.399C21.6194 135.49 21.6627 133.995 20.8955 132.835C21.7828 131.653 22.9405 130.322 24.4183 129.008C26.0096 127.597 27.5776 126.552 28.9454 125.782C30.7535 127.094 32.7518 128.156 34.8835 128.916C34.8001 129.735 34.6566 130.619 34.4198 131.547C33.906 133.57 33.1387 135.191 32.4415 136.384C31.0704 136.104 29.7159 136.743 29.2522 137.966C28.7285 139.354 29.5525 140.973 31.0937 141.582C32.6317 142.191 34.3064 141.557 34.8368 140.166C35.2938 138.958 34.7334 137.577 33.5624 136.839C33.8927 135.401 34.4165 133.7 35.2438 131.874C35.6508 130.983 36.0811 130.171 36.5215 129.431C38.1662 129.884 39.8775 130.161 41.6456 130.238C41.9325 131.649 42.1661 133.228 42.2795 134.953C42.4496 137.52 42.3129 139.792 42.0727 141.668C40.7316 141.934 39.7274 143.012 39.7274 144.302C39.7274 145.792 41.0652 147 42.7232 147C44.3745 147 45.7123 145.792 45.7123 144.302C45.7123 143.018 44.7148 141.941 43.3804 141.671C43.1569 139.753 43.0368 137.485 43.1635 134.953C43.2503 133.245 43.4404 131.668 43.6806 130.243C45.5288 130.171 47.3202 129.882 49.0316 129.399C49.1784 129.656 49.3219 129.923 49.462 130.198C50.3928 132.013 50.8932 133.713 51.1634 135.074C49.9724 135.78 49.3653 137.151 49.7956 138.374C50.2827 139.777 51.944 140.456 53.5019 139.891C55.0565 139.324 55.9239 137.728 55.4335 136.324C54.9998 135.079 53.642 134.406 52.2542 134.664C51.6171 133.547 50.8765 131.861 50.6196 129.703C50.5862 129.436 50.5629 129.174 50.5495 128.916C52.4544 128.243 54.2492 127.325 55.9006 126.201C56.9648 127.084 58.0856 128.139 59.1999 129.391C60.9146 131.317 62.1623 133.216 63.063 134.829C62.1489 135.874 61.9921 137.362 62.7628 138.389C63.6568 139.569 65.4383 139.693 66.7493 138.666C68.0571 137.639 68.3974 135.849 67.51 134.666C66.7394 133.646 65.3015 133.413 64.0805 134.035C62.7661 132.676 61.3083 130.956 59.9038 128.842C58.9964 127.475 58.2458 126.149 57.6286 124.904C58.2925 124.357 58.9263 123.775 59.5335 123.159C60.521 122.149 61.425 121.052 62.2257 119.879C63.7035 120.3 65.4083 120.916 67.2164 121.842C68.9611 122.731 70.4157 123.708 71.5866 124.619C71.1429 125.941 71.5633 127.372 72.6642 128.01C73.9319 128.75 75.6232 128.161 76.4439 126.698C77.2646 125.233 76.8976 123.448 75.6299 122.708C74.5223 122.062 73.0845 122.431 72.1971 123.515C70.8894 123.007 69.3014 122.238 67.6567 121.057C65.9487 119.832 64.6577 118.518 63.7236 117.384C64.3541 116.176 64.8878 114.906 65.3148 113.584C66.0221 113.609 66.7727 113.674 67.5467 113.792C69.545 114.099 71.2097 114.676 72.4907 115.25C72.3806 116.661 73.1612 117.953 74.3989 118.278C75.8134 118.649 77.2946 117.627 77.7082 115.993C78.1186 114.359 77.3079 112.736 75.8901 112.364C74.6491 112.037 73.3514 112.79 72.7743 114.089C71.4165 113.976 69.6717 113.671 67.7668 112.919C67.0462 112.631 66.379 112.312 65.7719 111.978C66.0755 110.753 66.289 109.493 66.3991 108.201C67.6301 108.099 68.9378 108.035 70.3156 108.032C72.7442 108.025 74.9527 108.203 76.8909 108.466C77.1244 109.825 78.1486 110.859 79.3996 110.899C80.8608 110.941 82.0851 109.609 82.1285 107.924C82.1752 106.238 81.0309 104.837 79.5731 104.795Z" fill="#FF383D"/>
</g>
<g opacity="0.5" filter="url(#filter1_d)">
<path d="M183.3 36.0391C182.111 36.0042 181.086 36.9257 180.795 38.1924C178.954 38.3368 176.851 38.3858 174.542 38.2389C173.257 38.1549 172.036 38.0195 170.895 37.8518C170.901 37.6301 170.904 37.4062 170.904 37.1823C170.904 36.093 170.825 35.0223 170.68 33.9747C171.262 33.5243 171.989 33.0509 172.871 32.6451C174.399 31.9359 175.829 31.6841 176.933 31.6116C177.474 32.8549 178.717 33.5782 179.906 33.2632C181.247 32.9088 182.016 31.3759 181.617 29.8388C181.222 28.3013 179.818 27.3403 178.476 27.6947C177.256 28.019 176.509 29.3207 176.686 30.7135C175.721 31.2687 174.285 31.8705 172.508 31.9147C171.632 31.9382 170.863 31.8191 170.24 31.6655C169.844 30.0392 169.278 28.4809 168.554 27.0115C169.319 26.3116 170.224 25.5697 171.284 24.8534C172.818 23.8132 174.298 23.069 175.598 22.5346C176.446 23.538 177.796 23.8716 178.84 23.2605C180.039 22.5603 180.374 20.8737 179.593 19.4973C178.812 18.1212 177.202 17.5753 176.003 18.2774C174.962 18.8862 174.57 20.2392 175 21.4851C173.884 22.362 172.511 23.2881 170.863 24.1141C169.743 24.6786 168.671 25.1078 167.7 25.4343C166.906 24.0884 165.979 22.8333 164.935 21.6878C165.337 20.2136 166.014 18.492 167.169 16.7657C168.253 15.1516 169.455 13.9734 170.477 13.1452C171.603 13.8522 173.02 13.7425 173.827 12.8116C174.744 11.7573 174.535 10.0521 173.355 9.00254C172.182 7.95044 170.487 7.95235 169.572 9.00702C168.766 9.93788 168.829 11.3727 169.667 12.4196C169.006 13.5256 168.007 14.8972 166.539 16.2037C164.92 17.6452 163.294 18.5084 162.054 19.0216C160.643 17.9275 159.106 16.9989 157.464 16.2643C157.701 15.5946 158.018 14.9206 158.432 14.2583C158.764 13.7332 159.122 13.2713 159.482 12.8678C160.732 13.3832 162.133 13.0124 162.762 11.9324C163.471 10.7263 162.952 9.08851 161.605 8.27697C160.257 7.46512 158.593 7.78458 157.885 8.9929C157.265 10.0546 157.591 11.4493 158.593 12.3218C158.385 12.8819 158.132 13.4628 157.828 14.0549C157.483 14.7362 157.11 15.3639 156.715 15.9445C156.547 15.8768 156.382 15.8117 156.215 15.7511C154.26 15.0092 152.176 14.5405 150.003 14.3817C149.645 13.4066 149.335 12.326 149.117 11.1391C148.674 8.71737 148.756 6.60964 148.962 5.02666C150.24 4.77839 151.195 3.76158 151.195 2.543C151.195 1.13869 149.927 0.000279329 148.361 0.000279334C146.792 0.000279339 145.521 1.13869 145.521 2.543C145.521 3.78243 146.511 4.81336 147.82 5.03854C148.105 6.59873 148.291 8.78249 147.855 11.314C147.659 12.4283 147.371 13.4439 147.036 14.3632C144.951 14.4822 142.949 14.8898 141.057 15.5468C140.795 15.1227 140.558 14.6775 140.346 14.1524C139.928 13.1125 139.748 12.138 139.675 11.3268C140.899 10.6805 141.529 9.32457 141.099 8.12524C140.624 6.80625 139.046 6.17853 137.572 6.72383C136.101 7.26913 135.291 8.78023 135.769 10.0995C136.18 11.2376 137.41 11.8589 138.685 11.6578C139.058 12.4344 139.416 13.3296 139.694 14.3468C139.846 14.8853 139.957 15.4121 140.042 15.9272C138.325 16.6172 136.715 17.5169 135.234 18.5937C134.456 18.0224 133.659 17.3594 132.871 16.5825C131.059 14.7936 129.851 12.9588 129.057 11.4894C129.936 10.5027 130.091 9.0901 129.354 8.1169C128.51 7.00321 126.817 6.8858 125.574 7.85418C124.334 8.82289 124.012 10.5104 124.853 11.6238C125.603 12.6076 127.007 12.8123 128.184 12.1784C129.329 13.2199 130.819 14.8626 131.97 17.224C132.498 18.3041 132.865 19.3543 133.124 20.3335C132.887 20.5549 132.647 20.7832 132.416 21.0161C131.261 22.1911 130.227 23.4921 129.341 24.8999C128.82 24.7476 128.279 24.5631 127.725 24.3373C125.925 23.6024 124.53 22.6655 123.518 21.8492C123.948 20.5796 123.528 19.2099 122.459 18.6158C121.247 17.9406 119.653 18.5231 118.9 19.9169C118.144 21.3099 118.517 22.9869 119.735 23.6618C120.801 24.2552 122.161 23.8761 122.987 22.8291C124.214 23.2596 125.745 23.9502 127.323 25.0841C127.795 25.4228 128.225 25.7711 128.627 26.1214C127.377 28.4046 126.504 30.9281 126.09 33.6071C125.011 33.7004 123.847 33.7453 122.598 33.7062C120.814 33.6507 119.204 33.4387 117.796 33.1628C117.765 31.7617 116.841 30.589 115.588 30.4556C114.209 30.3087 112.96 31.4711 112.795 33.0515C112.634 34.6319 113.618 36.0318 114.994 36.178C116.221 36.3086 117.341 35.4014 117.692 34.0866C119.134 34.1161 120.754 34.247 122.509 34.5533C123.727 34.7654 124.85 35.0358 125.891 35.3363C125.84 35.9448 125.818 36.56 125.818 37.1823C125.818 38.6601 125.954 40.1051 126.22 41.5062C125.024 42.3078 123.379 43.2169 121.282 43.8552C119.444 44.4149 117.79 44.6055 116.471 44.6465C115.997 43.4007 114.82 42.6234 113.627 42.8566C112.27 43.1229 111.407 44.6032 111.704 46.1634C112.002 47.7239 113.346 48.7728 114.703 48.5066C115.879 48.2763 116.68 47.1385 116.683 45.8266C118.034 45.3814 119.628 44.9634 121.44 44.6914C123.521 44.379 125.391 44.3341 126.966 44.4034C127.595 46.3369 128.481 48.1531 129.572 49.8156C129.057 50.2291 128.484 50.6371 127.836 51.0185C126.599 51.7492 125.413 52.2037 124.382 52.4975C123.686 51.3688 122.383 50.8389 121.257 51.3001C119.976 51.8275 119.409 53.4486 119.998 54.9206C120.368 55.8444 121.105 56.493 121.921 56.7146C122.402 56.8474 122.911 56.8314 123.389 56.6354C123.528 56.577 123.664 56.5045 123.787 56.4182C124.723 55.7889 125.122 54.484 124.727 53.2392C125.701 52.7295 126.839 52.2246 128.149 51.8082C128.994 51.5413 129.797 51.3463 130.553 51.2013C131.242 52.1059 132.002 52.9546 132.815 53.7379C132.89 53.8127 132.969 53.8874 133.045 53.957C132.495 55.2029 131.666 56.7169 130.417 58.2517C129.193 59.7542 127.921 60.848 126.849 61.6207C125.777 60.848 124.369 60.8647 123.506 61.7301C122.519 62.7168 122.614 64.4338 123.718 65.5652C124.815 66.6939 126.511 66.811 127.494 65.824C128.351 64.9676 128.393 63.5591 127.665 62.465C128.506 61.3519 129.604 60.0971 131.005 58.8583C132.514 57.5287 134.001 56.5443 135.298 55.8187C137.012 57.055 138.907 58.0558 140.928 58.772C140.849 59.5441 140.713 60.3768 140.488 61.2518C140.001 63.1578 139.273 64.6856 138.612 65.8102C137.312 65.5462 136.028 66.1483 135.588 67.3008C135.092 68.6095 135.873 70.1351 137.335 70.7089C138.793 71.2828 140.381 70.6855 140.883 69.3746C141.317 68.2362 140.785 66.9345 139.675 66.2391C139.988 64.8839 140.485 63.281 141.269 61.5595C141.655 60.72 142.063 59.9547 142.481 59.2573C144.04 59.6843 145.663 59.9457 147.339 60.0179C147.611 61.3478 147.833 62.8358 147.94 64.4617C148.102 66.8806 147.972 69.0224 147.744 70.7904C146.473 71.0403 145.521 72.0571 145.521 73.2728C145.521 74.6771 146.789 75.8152 148.361 75.8152C149.927 75.8152 151.195 74.6771 151.195 73.2728C151.195 72.0619 150.249 71.047 148.984 70.7927C148.772 68.9848 148.658 66.8482 148.778 64.4617C148.861 62.8518 149.041 61.366 149.269 60.0224C151.021 59.9547 152.72 59.682 154.342 59.2269C154.481 59.4694 154.617 59.7215 154.75 59.9807C155.633 61.6903 156.107 63.2932 156.363 64.5759C155.234 65.2409 154.659 66.5332 155.067 67.6857C155.528 69.0082 157.104 69.6475 158.581 69.1154C160.055 68.5813 160.877 67.0766 160.412 65.7541C160.001 64.5807 158.714 63.9459 157.398 64.1888C156.794 63.1367 156.091 61.5479 155.848 59.5139C155.816 59.2618 155.794 59.0148 155.781 58.772C157.588 58.1376 159.289 57.2721 160.855 56.213C161.864 57.0457 162.927 58.0394 163.983 59.2198C165.609 61.0347 166.792 62.8242 167.646 64.345C166.779 65.3294 166.631 66.7315 167.361 67.6995C168.209 68.8123 169.898 68.929 171.141 67.9606C172.381 66.9929 172.704 65.3063 171.862 64.1913C171.132 63.23 169.769 63.0106 168.611 63.5963C167.365 62.3155 165.982 60.6944 164.651 58.7021C163.79 57.4142 163.079 56.1642 162.494 54.9905C163.123 54.4751 163.724 53.9269 164.3 53.346C165.236 52.3943 166.093 51.3608 166.852 50.2551C168.253 50.6519 169.87 51.2328 171.584 52.1049C173.238 52.9428 174.617 53.864 175.728 54.7224C175.307 55.9682 175.706 57.3164 176.749 57.9181C177.951 58.6158 179.555 58.0606 180.333 56.6819C181.111 55.301 180.763 53.6189 179.561 52.9213C178.511 52.3128 177.148 52.6605 176.307 53.6821C175.067 53.2035 173.561 52.4783 172.002 51.3656C170.382 50.2108 169.158 48.972 168.272 47.9036C168.87 46.7655 169.376 45.5687 169.781 44.3229C170.452 44.3463 171.163 44.4069 171.897 44.5189C173.792 44.8082 175.37 45.3516 176.585 45.8927C176.481 47.2226 177.221 48.4402 178.394 48.7459C179.735 49.0958 181.14 48.1323 181.532 46.5929C181.921 45.0532 181.152 43.5229 179.808 43.1729C178.631 42.8647 177.401 43.5742 176.854 44.7986C175.566 44.6914 173.912 44.4043 172.106 43.6955C171.423 43.4247 170.79 43.1238 170.215 42.8089C170.502 41.6544 170.705 40.4666 170.809 39.249C171.976 39.1534 173.216 39.0928 174.523 39.0902C176.825 39.0835 178.919 39.2513 180.757 39.4986C180.978 40.7794 181.949 41.7545 183.136 41.792C184.521 41.8315 185.682 40.5763 185.723 38.9879C185.767 37.3995 184.682 36.0789 183.3 36.0391" fill="#128E5A"/>
</g>
<defs>
<filter id="filter0_d" x="0" y="66.5552" width="86.1299" height="88.4448" filterUnits="userSpaceOnUse" color-interpolation-filters="sRGB">
<feFlood flood-opacity="0" result="BackgroundImageFix"/>
<feColorMatrix in="SourceAlpha" type="matrix" values="0 0 0 0 0 0 0 0 0 0 0 0 0 0 0 0 0 0 127 0"/>
<feOffset dy="4"/>
<feGaussianBlur stdDeviation="2"/>
<feColorMatrix type="matrix" values="0 0 0 0 0 0 0 0 0 0 0 0 0 0 0 0 0 0 0.07 0"/>
<feBlend mode="normal" in2="BackgroundImageFix" result="effect1_dropShadow"/>
<feBlend mode="normal" in="SourceGraphic" in2="effect1_dropShadow" result="shape"/>
</filter>
<filter id="filter1_d" x="107.646" y="0.000244141" width="82.0787" height="83.8149" filterUnits="userSpaceOnUse" color-interpolation-filters="sRGB">
<feFlood flood-opacity="0" result="BackgroundImageFix"/>
<feColorMatrix in="SourceAlpha" type="matrix" values="0 0 0 0 0 0 0 0 0 0 0 0 0 0 0 0 0 0 127 0"/>
<feOffset dy="4"/>
<feGaussianBlur stdDeviation="2"/>
<feColorMatrix type="matrix" values="0 0 0 0 0 0 0 0 0 0 0 0 0 0 0 0 0 0 0.07 0"/>
<feBlend mode="normal" in2="BackgroundImageFix" result="effect1_dropShadow"/>
<feBlend mode="normal" in="SourceGraphic" in2="effect1_dropShadow" result="shape"/>
</filter>
</defs>
</svg>
